<mxfile host="65bd71144e">
    <diagram id="p7ZxbqYshCXetwDaM680" name="arch">
        <mxGraphModel dx="2852" dy="-1289" grid="1" gridSize="3" guides="1" tooltips="1" connect="1" arrows="1" fold="1" page="1" pageScale="1" pageWidth="1169" pageHeight="827" background="#ffffff" math="0" shadow="0">
            <root>
                <mxCell id="rzaHR70I7FCayc-PlcB1-0"/>
                <mxCell id="rzaHR70I7FCayc-PlcB1-1" parent="rzaHR70I7FCayc-PlcB1-0"/>
                <mxCell id="O4T9YlxyuEKv6EiDyExf-1" value="" style="rounded=1;whiteSpace=wrap;html=1;dashed=1;fillColor=none;strokeWidth=2;opacity=80;" parent="rzaHR70I7FCayc-PlcB1-1" vertex="1">
                    <mxGeometry x="-1263" y="3042" width="633" height="393" as="geometry"/>
                </mxCell>
                <mxCell id="TjCG3OS7FGGDMDlYz-F_-5" value="" style="group;strokeWidth=3;rounded=1;arcSize=3;spacing=0;container=0;fontColor=#ffffff;dashed=1;fontSize=18;strokeColor=#6A00FF;" parent="rzaHR70I7FCayc-PlcB1-1" vertex="1" connectable="0">
                    <mxGeometry x="-1446" y="2340" width="1698" height="1164" as="geometry"/>
                </mxCell>
                <mxCell id="TjCG3OS7FGGDMDlYz-F_-6" value="" style="group;fontSize=30;" parent="rzaHR70I7FCayc-PlcB1-1" vertex="1" connectable="0">
                    <mxGeometry x="-1380" y="2451" width="330" height="32" as="geometry"/>
                </mxCell>
                <mxCell id="TjCG3OS7FGGDMDlYz-F_-7" value="&lt;font style=&quot;font-size: 24px&quot;&gt;Kubernetes&lt;/font&gt;" style="text;html=1;align=left;verticalAlign=middle;resizable=0;points=[];autosize=1;fontSize=24;fontColor=#1A1A1A;fontStyle=1" parent="TjCG3OS7FGGDMDlYz-F_-6" vertex="1">
                    <mxGeometry x="35.99666500835369" y="-2.331048264097365" width="144" height="33" as="geometry"/>
                </mxCell>
                <mxCell id="TjCG3OS7FGGDMDlYz-F_-8" value="" style="aspect=fixed;html=1;points=[];align=center;image;fontSize=18;image=img/lib/mscae/Kubernetes.svg;rounded=1;labelBackgroundColor=none;sketch=0;strokeColor=#7EA6E0;strokeWidth=2;fillColor=#FFFFFF;" parent="TjCG3OS7FGGDMDlYz-F_-6" vertex="1">
                    <mxGeometry width="29.52191358932436" height="28.3424998844551" as="geometry"/>
                </mxCell>
                <mxCell id="u3sTgS_HuzzNfmhpz_RJ-11" value="" style="edgeStyle=orthogonalEdgeStyle;rounded=0;orthogonalLoop=1;jettySize=auto;html=1;fontSize=18;" parent="rzaHR70I7FCayc-PlcB1-1" edge="1">
                    <mxGeometry relative="1" as="geometry">
                        <mxPoint x="-510.99999999999955" y="3114" as="sourcePoint"/>
                        <mxPoint x="-511.9411764705883" y="3114" as="targetPoint"/>
                    </mxGeometry>
                </mxCell>
                <mxCell id="_KA0jhoN8BzXZM-IRgYw-2" value="" style="html=1;dashed=0;whitespace=wrap;fillColor=#2875E2;strokeColor=#ffffff;points=[[0.005,0.63,0],[0.1,0.2,0],[0.9,0.2,0],[0.5,0,0],[0.995,0.63,0],[0.72,0.99,0],[0.5,1,0],[0.28,0.99,0]];shape=mxgraph.kubernetes.icon;prIcon=pod;rounded=1;labelBackgroundColor=none;sketch=0;fontSize=18;fontColor=none;align=left;" parent="rzaHR70I7FCayc-PlcB1-1" vertex="1">
                    <mxGeometry x="-1152" y="2561.3" width="64" height="66" as="geometry"/>
                </mxCell>
                <mxCell id="4T8zVy3dV67mKB7CU19Y-0" value="&lt;font style=&quot;font-size: 18px;&quot;&gt;Service Broker&lt;/font&gt;" style="text;html=1;align=center;verticalAlign=middle;resizable=0;points=[];autosize=1;fontSize=18;fontColor=#1A1A1A;" parent="rzaHR70I7FCayc-PlcB1-1" vertex="1">
                    <mxGeometry x="-1181.9976470588235" y="2634" width="129" height="27" as="geometry"/>
                </mxCell>
                <mxCell id="Ute-wot3sYkNmcI1wuww-0" value="" style="group;fontColor=#1A1A1A;fontSize=18;" parent="rzaHR70I7FCayc-PlcB1-1" vertex="1" connectable="0">
                    <mxGeometry x="-1021.4599999999999" y="2547.5999999999995" width="132" height="93.4" as="geometry"/>
                </mxCell>
                <mxCell id="2lwIPFVucxWGKYpRhkA4-1" value="" style="group;strokeWidth=3;rounded=1;arcSize=3;spacing=0;container=0;fontColor=#1A1A1A;dashed=1;strokeColor=#FF8000;fontSize=18;" parent="rzaHR70I7FCayc-PlcB1-1" vertex="1" connectable="0">
                    <mxGeometry x="-1316" y="2520.72" width="1508" height="941.28" as="geometry"/>
                </mxCell>
                <mxCell id="YaQJlHldGB_ZiWqEoSKC-16" value="" style="shape=image;verticalLabelPosition=bottom;labelBackgroundColor=#ffffff;verticalAlign=top;aspect=fixed;imageAspect=0;image=data:image/png,iVBORw0KGgoAAAANSUhEUgAAAMMAAAA5CAYAAACLdp/VAAANeXpUWHRSYXcgcHJvZmlsZSB0eXBlIGV4aWYAAHjarZlpcis5DoT/8xRzBG4gyOOAW8TcYI4/H0qy23a7I3pi2nqWZInFBUhkJuqF859/3/AvfkrpOVTR3kZrkZ866sjGmx5fP/Y8p1if5+dnlfd36fvnoYz3F5mPfNB7YG/v8R+fp88JXi/GO/kyUV/vL+b3L0Z9z99/TPReqPiOMm/2e6Lxnqjk1xfpPYG9jhXb6Pr1CPO8Xt/Xv8LAb/CnPuJ8T/b67sffVYneFtYpOZ+SSuQ5v77l1X9TKPa88efBwFQG7wt/+SfpvRMC8luc4pddhZ9Z+Xz3IyvVfk9Kaa8RgQ++B7N9vv76eZLfgx+eEH9Zuaz3u/z981tfcYs/guy/9+4e7j2v01lthLS9D/VxxOcdA5mklueyxkP5Fd7r8xg8egC9i5TvuFhx8n6kTFpuqmknSzed53WlxRZrPll5zXmRKP+sF80jA/dAnqo/0s1Kxnbp5HCR3sKn+XMv6Vl3PMut1Fl4J0bmxGTJoRD86Z94/OVE9zrkU/JgVntixb6yg5BteOb8mVEkJN0PHMkT4I/Hzx/PayGD8oS5c0CL8zXFlPTGluOoPIkuDBReX7WWdL8nYEOsLWwmFTIQWyqSWoqas6ZEHDv5MSbqudQ8SUESyZtd5lpKIzk9+9pco+kZmyW/PoazSISUVpTUUFLkqkJs4EdrB0MmRaqINFHpMsRaabVJa02bk59p0aqiTVW7DrVeeu3SW9feQx/dRh4FcpTRho4+xjBjUWNm42pjgNnMs8w6Zbaps88xbQGfVZestnT1sMaynXfZ8MRuW3ffY9tJByideuS0o6efcewCtVtuvXLb1dvvuPaZtRReaf3T4+9nLX1kLT+Z8oH6mTUuVf2YIjmdiOeMjOWayLh6BgB09pzFnmrNwVPnOYsjUxWS2aV4cnbyjJHBelKWmz5z90fmvuUt1Pp/5S1/ZC546v6JzAVP3V9k7s95+yVr2yl4xRKeDHkZelBjofwYcLrlbi5qlqexRKlttmFLsgz4Y05W8KimhSwp25SgVWycPmMlFDfviby0ekfve4/Vz91tjv2etH9/Zfcprxbn1hF6Pcahe+or5bKb+T8TITa7l7rJnbhC3rnqVSbwc76nMrZ+ufrMYqFnFlaVtts6y9ZK58gyQ4HXcfnlEBDEPtaFWuhyrsVdppwO757YWhGcxQ2YBJ99ipG/PEV2sa2HPaeeK0jNuiZ46netaBsCn2ydzDabgIHdkqp7LUzOWNKt67Q5E7tcPZ7BmJIFJRjtDNJgKHA0MHlXnkT5nJraSCuexPZLOzEssFjuqRgRSTvOVcyx0XKUteee63rRgBgppoNrB3JQ05nEUrfeWndpbedwlNECu/WyTBorxHxzOYOBjU2CzDPPzjI91FdS3bsyJQUyi2OigtyiNyhFVAmpgoPW5XKSsjnBUbSNGo1Nzj4O9Gh9XZBAmtgXuQBCmYmNDdQTKMUIP3ernwBMO2s1asE4BK4Q5CvRXufkMh8Abha9DpNSoYzZR9uBsryjkpJSxgFHMzYEyIEyrwHWJRToPlIXSxEL2OXg4nKXJDs+mOOfSQB0aGerBdNYCpObI+41lV+gk/LeS0gHWrL3HB1C0AT27s5ztkYaV6yBwoQ51omEklTe2xXgc51OayCGP+0SFL1Xjpe+zcEhIJRDhdi594F4Cl6ihJIMr2UDUyOQC0CgLHQmKMALcG3be6H996SylJ1Y36mxCQyG5oNrwNWelamiAiYMn0iqNgBZ09gefmx60us9SmrX3YkTVofc85rmPmmw16EBgiHnU5Sd+zZHlMrCUM8tZukZx4VDvw/8Mgzy4UDhVNgv2wFZk1M0G+2mvSFwvM2d8K0zj2/uynL4F4JE+vrcVzZ9AiKVx5r4bABxJXeKw1MJkVY1Mj7m0H5ZQGHGMsmlFwDQ2bC3kKpJ+c05Aa4vE7Zh7TED7sLaXCTACx5CWqlQli1LZemzIGlOATYTDMQ5jcuPtMEuKdlWAzQJtIkHKYrqdg1Sh1j3Fogy5w0g6rlulQiuZ2jV7XYxc6aTvR1azJtD9tMjdbMI2ukaUtQJorR1k0HK7bRC5U1NwzYsGT28zH12hzI2xHU7BRhk3E2tP9Qct86ax11lKrPA8IQ+N466Z9rgvRjihjRTYtltz5Wow3SlNgM5qnUAi7aewMSDyVUAOZ0L10YaiSr7GhmDpMcqLJBb9/IjdYotvS54oVFQhepVrLAzLUTYLyVFMQNAcSN5DyzdENx+kIaiqSkec6A3C34+Zw4KKqBZSJWDVWUC4rs6Cutx0DGhH83QeDudj7KvcfdpL5xbRRfzoEippBIuOwRA7L2eLUjrTPcpKpcBFEuSgT0rWHzknwEUrt5GUpxCiy52k62mcHBuscAeWzwh7GT1+vQVxKZJHxSJWCGKNtEorA0zIT9P1Sde+9OE7eAEfl0TNpVDOFSgd5Vh70nRXk6T4F7ow0mUHjW7xyqUuneaLLBhwGDYgInBknKVjSuOYbOOXVe7A5ceEATJg8dWPH31qJ16i3TsYQLvBL7Xx/kvo61w2RmUOhXlpqQxHdrB+Q/eI82C4mIa7KFsWOlOwCon4aI6F0YNEJHvCdJHUIUiFGSZgJdI0VNiGxMC5sShZMepwUM+EDuia48ZGXcgkNAqAy+yRQh6cm7fI4IUfIhHCa2D5ONDZLAIzqg32LqJs9zDhRfw3hMwl1mxGpNwuvz/OurrIMdvNq1egwMlUdiNDQY9aKfrRaF9qGPgXtBNq6ACt51xtNgMKGqgt6cZ8gSEIAbQTDLxYN291yT99Hv30fHs1U804DIquN1yGuYVMYA9tJMfA8A4JuapQjoOqMQ7EaiGHaA7OotEPNTuVuRmOUJ/qw7yAYcv+AOnZPfRjptWhfsombajIMqUKeMnyHZVTKUvghMRR7bV71SHD8aCbE3YAmsBUWc8hanritNJsjEYS4LYC47tyR/UQfpLYQTowHoRXnPVSIjRZAcDm3ucChpNABYEHaErZoVRawFNFxVpA88LxdVNbihbjgU/YlcdeFgwHIniCJEW/A/kSojR5XNWb9eNByYuQ1ph+J0BzcvXwlaxg9KpLBsktVKzHQdH+8EqoI/g4L6wdzgUCGdS/GiIej0EvONyTgRslzZjOxc4RWSndpYV+nmWwSljWjrStYDFAMB4jnrociB/A8aB1WHrx+1OBB5BcfjRPk824CWPeBL79KHCfE94rhMBNAGLtY6KJlSEgGTcMHnBYmyPAfjEYHZokfhvFAF5JLDXO9x7cVbYJiERMPXEx5SFde2hrUGbcZ06KbnmIEVjyGuFIebtx90X+Onqezo1P6/QESSB0mY6K1oPm4HvvPdZKDVmbeatTrnQf8lujpBV6Lzv9zS/8R/Bhf/CTwJ09EaHw0Inb8PuHiwsTARskGpsE/W1DlGJZC25M6QeITZy34mAZtf/jtM7fu/P1Wwo/mIgd/gF+AscUR86hcbWjSid1gIBG89Kc4YcWeMc1FaDRdmSbqBgUAoebjjlKbSEtl8vkiQQhEpaeMFVaWWwDZqKYzegfkZz53GmzQT93uQhDQAcpr3NrcOOEHAzgEVTMSMwRIcA7hruTDKU21PAMtMw0/qwNETaamcyqEMzQdvkl1i3t8Ut6gUJjLM73+nswx/7kc4wKLQjnoZafh/lbb3pS3sV7eUV0/RiXvqzQyvXoJHhQIcP+GKQJ7wYzdW5lMSCPL3/o5yx8Vh85J6Ga3YAqlgGCOgMoffwVllDatAGRIgUxX4xLMiYXtw+H8MvJyNSPQGURYPomooJxjCLu2Z2A6Zp+3o5obPa1kUrdxYUsyYxOWTEbRyxmm4yDJRLSvLcZjioLO0ANujCBNAnXSZdXCCECZ8Og0tuFd9M9jfkR3xozNGSOkCOu3FsG3CA/Ol+I0o+nrtLfpdi7LVCxY3Dx20gv4jR3gAKBwLp2oBQMMVXHPHUMu00bd6Iue0nO326Zj8NKm4ElcYeoU10hTg1/I/SXo+jedB+Ui7L0eu9BEwJM7lXhiTYCX6s+s1oyPIsCaMPcMex8LKv7uB/NVy4QEgm/MEySDPy1rt3uF73eyU6Bwd2ArkI7SkXu3eQ7yO0/3DGxpdHSCPHFrw3FufaXKpgvYCikvCCxYRTdybZCcCTb7xPO5AdfaubM2fOl92KqOkNbL07c+L8aKV/5x1ojOKnK8d4LdowrRmv0m3QNW8aQIpa6I5wHasIhWdeVi2vJR64VXFEhb74VWefLSVOZ3q/RyG9CgcabUaJgKAszfuhCfTNO2ian69NWcbOLb9tgBcQKBp42aooP7gb4xDbmVdgAiqDjVDiX1f+0tQCVL+RQiWWg/sSqgi8Ewb1uxXVG4nFjnAsWYrDfqu3E/RaBCQS+35gR/ZGAT+s5A3WTH7LiI7A7TL4yH53CF9/MRHwM8JORVBkXB4xF+D+HLjaKFPnIbKF8GAi9zLknJM41Xb/Tx4O+dwECn/cWDJBex4Eb7qjy0EvzpKKeJ0ZiWemaoS6Ksx8BcdWHpPmVweQYzq87/C2cLkzo1PsC+p25qoz4yxYFSrCpQF7AqqEv8orEyR9hP8CUm31gBZUsmEAAAGEaUNDUElDQyBwcm9maWxlAAB4nH2RPUjDQBzFX1OlWioOdhB1yFCdLIiKCC5ahSJUCLVCqw4m109o0pCkuDgKrgUHPxarDi7Oujq4CoLgB4ibm5Oii5T4v6TQIsaD4368u/e4ewcI9TJTzY4xQNUsIxmPienMqhh4hYBuBDGIGZmZ+pwkJeA5vu7h4+tdlGd5n/tz9GRzJgN8IvEs0w2LeIN4atPSOe8Th1lRzhKfE48adEHiR64rLr9xLjgs8MywkUrOE4eJxUIbK23MioZKPEkcyaoa5Qtpl7Octzir5Spr3pO/MJTTVpa5TnMIcSxiCRJEKKiihDIsRGnVSDGRpP2Yh3/A8UvkUshVAiPHAipQITt+8D/43a2Znxh3k0IxoPPFtj+GgcAu0KjZ9vexbTdOAP8zcKW1/JU6MP1Jeq2lRY6A3m3g4rqlKXvA5Q7Q/6TLhuxIfppCPg+8n9E3ZYC+WyC45vbW3MfpA5CirhI3wMEhMFKg7HWPd3e19/bvmWZ/P3eJcqkjlxUKAAAPoGlUWHRYTUw6Y29tLmFkb2JlLnhtcAAAAAAAPD94cGFja2V0IGJlZ2luPSLvu78iIGlkPSJXNU0wTXBDZWhpSHpyZVN6TlRjemtjOWQiPz4KPHg6eG1wbWV0YSB4bWxuczp4PSJhZG9iZTpuczptZXRhLyIgeDp4bXB0az0iWE1QIENvcmUgNC40LjAtRXhpdjIiPgogPHJkZjpSREYgeG1sbnM6cmRmPSJodHRwOi8vd3d3LnczLm9yZy8xOTk5LzAyLzIyLXJkZi1zeW50YXgtbnMjIj4KICA8cmRmOkRlc2NyaXB0aW9uIHJkZjphYm91dD0iIgogICAgeG1sbnM6aXB0Y0V4dD0iaHR0cDovL2lwdGMub3JnL3N0ZC9JcHRjNHhtcEV4dC8yMDA4LTAyLTI5LyIKICAgIHhtbG5zOnhtcE1NPSJodHRwOi8vbnMuYWRvYmUuY29tL3hhcC8xLjAvbW0vIgogICAgeG1sbnM6c3RFdnQ9Imh0dHA6Ly9ucy5hZG9iZS5jb20veGFwLzEuMC9zVHlwZS9SZXNvdXJjZUV2ZW50IyIKICAgIHhtbG5zOnBsdXM9Imh0dHA6Ly9ucy51c2VwbHVzLm9yZy9sZGYveG1wLzEuMC8iCiAgICB4bWxuczpHSU1QPSJodHRwOi8vd3d3LmdpbXAub3JnL3htcC8iCiAgICB4bWxuczpkYz0iaHR0cDovL3B1cmwub3JnL2RjL2VsZW1lbnRzLzEuMS8iCiAgICB4bWxuczp0aWZmPSJodHRwOi8vbnMuYWRvYmUuY29tL3RpZmYvMS4wLyIKICAgIHhtbG5zOnhtcD0iaHR0cDovL25zLmFkb2JlLmNvbS94YXAvMS4wLyIKICAgeG1wTU06RG9jdW1lbnRJRD0iZ2ltcDpkb2NpZDpnaW1wOjU0YzNkYjU5LWUyNTYtNDZmOS1iNGI2LTM5ZTk2N2Y2NGM3OCIKICAgeG1wTU06SW5zdGFuY2VJRD0ieG1wLmlpZDo1YzFlMjMzNi1iMTlhLTRjNGQtYTYzZC1kN2M0NWZlM2RiZWIiCiAgIHhtcE1NOk9yaWdpbmFsRG9jdW1lbnRJRD0ieG1wLmRpZDo5ZWY0OGU1Ny0yYjM4LTRkYzUtYTdiNy03YTE3NDFjOWIzODUiCiAgIEdJTVA6QVBJPSIyLjAiCiAgIEdJTVA6UGxhdGZvcm09Ik1hYyBPUyIKICAgR0lNUDpUaW1lU3RhbXA9IjE2MTI4NjY2MDkzOTA4MTciCiAgIEdJTVA6VmVyc2lvbj0iMi4xMC4yMiIKICAgZGM6Rm9ybWF0PSJpbWFnZS9wbmciCiAgIHRpZmY6T3JpZW50YXRpb249IjEiCiAgIHhtcDpDcmVhdG9yVG9vbD0iR0lNUCAyLjEwIj4KICAgPGlwdGNFeHQ6TG9jYXRpb25DcmVhdGVkPgogICAgPHJkZjpCYWcvPgogICA8L2lwdGNFeHQ6TG9jYXRpb25DcmVhdGVkPgogICA8aXB0Y0V4dDpMb2NhdGlvblNob3duPgogICAgPHJkZjpCYWcvPgogICA8L2lwdGNFeHQ6TG9jYXRpb25TaG93bj4KICAgPGlwdGNFeHQ6QXJ0d29ya09yT2JqZWN0PgogICAgPHJkZjpCYWcvPgogICA8L2lwdGNFeHQ6QXJ0d29ya09yT2JqZWN0PgogICA8aXB0Y0V4dDpSZWdpc3RyeUlkPgogICAgPHJkZjpCYWcvPgogICA8L2lwdGNFeHQ6UmVnaXN0cnlJZD4KICAgPHhtcE1NOkhpc3Rvcnk+CiAgICA8cmRmOlNlcT4KICAgICA8cmRmOmxpCiAgICAgIHN0RXZ0OmFjdGlvbj0ic2F2ZWQiCiAgICAgIHN0RXZ0OmNoYW5nZWQ9Ii8iCiAgICAgIHN0RXZ0Omluc3RhbmNlSUQ9InhtcC5paWQ6MDMwMjg5ZjctNDU3ZC00MGYxLWJjZDMtZDQzMmRkNTA2YjI1IgogICAgICBzdEV2dDpzb2Z0d2FyZUFnZW50PSJHaW1wIDIuMTAgKE1hYyBPUykiCiAgICAgIHN0RXZ0OndoZW49IjIwMjEtMDItMDlUMTk6MzA6MDkrMDk6MDAiLz4KICAgIDwvcmRmOlNlcT4KICAgPC94bXBNTTpIaXN0b3J5PgogICA8cGx1czpJbWFnZVN1cHBsaWVyPgogICAgPHJkZjpTZXEvPgogICA8L3BsdXM6SW1hZ2VTdXBwbGllcj4KICAgPHBsdXM6SW1hZ2VDcmVhdG9yPgogICAgPHJkZjpTZXEvPgogICA8L3BsdXM6SW1hZ2VDcmVhdG9yPgogICA8cGx1czpDb3B5cmlnaHRPd25lcj4KICAgIDxyZGY6U2VxLz4KICAgPC9wbHVzOkNvcHlyaWdodE93bmVyPgogICA8cGx1czpMaWNlbnNvcj4KICAgIDxyZGY6U2VxLz4KICAgPC9wbHVzOkxpY2Vuc29yPgogIDwvcmRmOkRlc2NyaXB0aW9uPgogPC9yZGY6UkRGPgo8L3g6eG1wbWV0YT4KICAgICAgICAgICAgICAgICAgICAgICAgICAgICAgICAgICAgICAgICAgICAgICAgICAgICAgICAgICAgICAgICAgICAgICAgICAgICAgICAgICAgICAgICAgICAgICAgICAgIAogICAgICAgICAgICAgICAgICAgICAgICAgICAgICAgICAgICAgICAgICAgICAgICAgICAgICAgICAgICAgICAgICAgICAgICAgICAgICAgICAgICAgICAgICAgICAgICAgICAgCiAgICAgICAgICAgICAgICAgICAgICAgICAgICAgICAgICAgICAgICAgICAgICAgICAgICAgICAgICAgICAgICAgICAgICAgICAgICAgICAgICAgICAgICAgICAgICAgICAgICAKICAgICAgICAgICAgICAgICAgICAgICAgICAgICAgICAgICAgICAgICAgICAgICAgICAgICAgICAgICAgICAgICAgICAgICAgICAgICAgICAgICAgICAgICAgICAgICAgICAgIAogICAgICAgICAgICAgICAgICAgICAgICAgICAgICAgICAgICAgICAgICAgICAgICAgICAgICAgICAgICAgICAgICAgICAgICAgICAgICAgICAgICAgICAgICAgICAgICAgICAgCiAgICAgICAgICAgICAgICAgICAgICAgICAgICAgICAgICAgICAgICAgICAgICAgICAgICAgICAgICAgICAgICAgICAgICAgICAgICAgICAgICAgICAgICAgICAgICAgICAgICAKICAgICAgICAgICAgICAgICAgICAgICAgICAgICAgICAgICAgICAgICAgICAgICAgICAgICAgICAgICAgICAgICAgICAgICAgICAgICAgICAgICAgICAgICAgICAgICAgICAgIAogICAgICAgICAgICAgICAgICAgICAgICAgICAgICAgICAgICAgICAgICAgICAgICAgICAgICAgICAgICAgICAgICAgICAgICAgICAgICAgICAgICAgICAgICAgICAgICAgICAgCiAgICAgICAgICAgICAgICAgICAgICAgICAgICAgICAgICAgICAgICAgICAgICAgICAgICAgICAgICAgICAgICAgICAgICAgICAgICAgICAgICAgICAgICAgICAgICAgICAgICAKICAgICAgICAgICAgICAgICAgICAgICAgICAgICAgICAgICAgICAgICAgICAgICAgICAgICAgICAgICAgICAgICAgICAgICAgICAgICAgICAgICAgICAgICAgICAgICAgICAgIAogICAgICAgICAgICAgICAgICAgICAgICAgICAgICAgICAgICAgICAgICAgICAgICAgICAgICAgICAgICAgICAgICAgICAgICAgICAgICAgICAgICAgICAgICAgICAgICAgICAgCiAgICAgICAgICAgICAgICAgICAgICAgICAgICAgICAgICAgICAgICAgICAgICAgICAgICAgICAgICAgICAgICAgICAgICAgICAgICAgICAgICAgICAgICAgICAgICAgICAgICAKICAgICAgICAgICAgICAgICAgICAgICAgICAgICAgICAgICAgICAgICAgICAgICAgICAgICAgICAgICAgICAgICAgICAgICAgICAgICAgICAgICAgICAgICAgICAgICAgICAgIAogICAgICAgICAgICAgICAgICAgICAgICAgICAgICAgICAgICAgICAgICAgICAgICAgICAgICAgICAgICAgICAgICAgICAgICAgICAgICAgICAgICAgICAgICAgICAgICAgICAgCiAgICAgICAgICAgICAgICAgICAgICAgICAgICAgICAgICAgICAgICAgICAgICAgICAgICAgICAgICAgICAgICAgICAgICAgICAgICAgICAgICAgICAgICAgICAgICAgICAgICAKICAgICAgICAgICAgICAgICAgICAgICAgICAgICAgICAgICAgICAgICAgICAgICAgICAgICAgICAgICAgICAgICAgICAgICAgICAgICAgICAgICAgICAgICAgICAgICAgICAgIAogICAgICAgICAgICAgICAgICAgICAgICAgICAgICAgICAgICAgICAgICAgICAgICAgICAgICAgICAgICAgICAgICAgICAgICAgICAgICAgICAgICAgICAgICAgICAgICAgICAgCiAgICAgICAgICAgICAgICAgICAgICAgICAgICAgICAgICAgICAgICAgICAgICAgICAgICAgICAgICAgICAgICAgICAgICAgICAgICAgICAgICAgICAgICAgICAgICAgICAgICAKICAgICAgICAgICAgICAgICAgICAgICAgICAgICAgICAgICAgICAgICAgICAgICAgICAgICAgICAgICAgICAgICAgICAgICAgICAgICAgICAgICAgICAgICAgICAgICAgICAgIAogICAgICAgICAgICAgICAgICAgICAgICAgICAgICAgICAgICAgICAgICAgICAgICAgICAgICAgICAgICAgICAgICAgICAgICAgICAgICAgICAgICAgICAgICAgICAgICAgICAgCiAgICAgICAgICAgICAgICAgICAgICAgICAgIAo8P3hwYWNrZXQgZW5kPSJ3Ij8+czlD6QAAAAZiS0dEAP8A/wD/oL2nkwAAAAlwSFlzAAAXEgAAFxIBZ5/SUgAAAAd0SU1FB+UCCQoeCS2fPtYAABx/SURBVHja7X15fFvVne/v3Kt7dWVdy5JsybLseIkdEsdZSJzEWSxLWaBNoIQEwlbKEkqh006ndNr3yjKv0DfzOq9vOqxlptNX6DymD2hmoKEPSgMEyfKCE0QSE9tx7HhJ5E2WtVxt9+ou5/0R0THmykkgduLUv8/HH3+ko7uc3/l9z/n+fr+zAMzLvMwLAACQ8yq4sgRjjARBWHj11VcvLS8vr4pGoxzHcal5zcyD4YqVe+65h9HpdJTf78cAgAFAs3r16k3t7e1PajSaH5EkeVMqlSqmaXq0urra39vbK89rbXrRzKtgbnRaW7ZssZnN5hXLli3bpShKeXt7+wcajabZZDJ9EA6HoxaLhVmzZs0tLMvWKooC6XQ6VVFR8RWCIEw8zwcB4BgASPOqnAfDZU9tHnjgAVtxcfFSgiDKY7FY7oEDBw6JovhhR0dH2m63awGg2Gg03iFJ0jZFUeQVK1asFEVxpyRJT7e2tr6Qk5OzqKCgYI0oisKZM2feDAaDb1RVVT1htVpXptPpG0wmU284HI7Oa3seDJe15Ofnl1x33XXfFgRhh16vt1MUFdi8efPazs7Op6PR6MdlZWVGvV5/XWVl5a3RaLQrlUqN63S6HJqmq8rKyjYRBLGP5/nqWCw2npeXVxKLxfhQKKTXaDRsOp1OSpJUEw6HxXlNz4Phchfixhtv3Guz2TYbDAY7x3FjOp3OnJeXtzMcDh8NBoOp/Pz8gNFoXClJUuLDDz98bmxsLLJs2bKVS5YsWZZOpwmz2aw9derUmdHR0Taj0bi5qKhog8FgMNM0nRuPx0/09PS8CwDJeVXPg+FyF8pqtVbSNG0Nh8OdBw4ceKiwsPD6bdu2PWSz2eo7Ojo+5jiun6KosKIoyoIFC67V6XTjAFCQSqUonuchmUx+2WQykYFA4DRN011lZWWrEELrRVGMAEAsHo+3zav5EoHB6XQ+DACLVIriHo/nO5ebElwu1z9jjOnPvGw8/m2fzzejParJZGIoiuonSfJLGo3GbLPZ6gsLC9dEo9EJvV6/gOf51OHDhxNbtmxpGRgYWJVKpXZIkqQbGRlBIyMjAAD3AMA9FEUBAMDQ0BD4/X6FpmlJo9FoOI5LsSw7crnouqGh4QGEUJ1K0csej+edi/ysnyCECqd8zXs8nr9Q+z2aAcOyAcCZbEBTFGVrY2PjwcsJDE6nM4EQylGzVbfbHZnhx9P333//hvz8/GdYlrXH4/FulmWrZFnGIyMjje+8885fFhcX/yVBEA8BgP5zOugiAPyHoijPeb3e5kvc8UQAIE/lHUfT6XRNa2tr6CK2azdC6Kopz4l7PJ5cVb46A5GRu6YbcRBC35wfkD8l6c7Ozo88Hs/zCKGk0WhcrigKCgQCh0+cONFZUlJynCCIxz4vEDI6pxBCt5Ek2eR0Oo/U19fXXm5KQAjZtFrtM5fUeZuBe957jvKdmdFjXjLS3Nwc4zjuxX379v3V8PDw2zzPy93d3WsB4HGEkOUiG93VJEk2uVyuO6exCXImWMN5yFcdDsfOKwIMDQ0NGxFCS87VSwHA1+ch8Gnp6OhIx+Px06dPn+46cuSIRZKkC+owMMb4AgDBAMBLLpfrH+DTsxAYAMhdtmyZ3eVyFQIA43K5ZjXIQhDEP2/YsME85x1ogiD2nmfD3Q8APwGA+SkCk8RgMBjD4fBDCKFp24UkyWRubm46Nzd3pLe395GCgoKkwWBYKsvyekVRSmVZNqfT6fJYLEafo4f/a6fTuXxoaOgGiqIaSktLd5hMpmtIkrSNj4/7ampqfhyLxfoAYNYccISQjabpZwHgq3MWDC6Xi8UY34oQmmr4Awih8ikVLnU6nTs8Hs/v5yFwVmpra3NYln0OIWSYprMJGo3G7pKSknydTleKMS7V6XRPYIwxQogkCEKLENJijDUAEE2n08TExISG47hcjDGZxfiutdvtf48x7tPpdMsURTGnUqmA1WrdpCjKIxjjlwDglVn2H+5wOp3/7vF4Xp+TNAljvAchxKp8/0CWS+Yd6UmdPcuyv0AIVWf7gdFoHFuyZIm/qKjIiBDKkWU5JYpikmEYK8MwRVqtltFoNDGCII5KkvTzgYGBhmPHjq3Yv39/ycTExNUY41PTGN93DAbDLQaDYV0ikfhgdHT0x7FY7JjBYFhZUFCw7RI51P+0bt26/LlKk9QoUndjY+MBl8vVAQA1U8q+1NDQUNHY2Nj/Zw4EuqGh4RGE0J1ZRgOlvLycM5vNCABYWZY5jPEpQRDaOI5rC4fD/nA4zHm9Xu6T/ifzJ2VoKG5vbz++ePHihtLS0mOiKBaoGB4hCMImRVGE0dHRjnA4zFksFpEkSSKZTOZeIr0U6nS65wDg9jkFhvr6+qsQQvUqRW9nRoffIoSemNoAGONvAMDDf85I2Lhx4wKNRvNtRVFUy61W6ysURb0wODjoHx0dndboM3+q0t3dHVm1atXT0Wj0b1Kp1GcSjJIkoUgkoi0oKNiq1+tLASAHIaSMjIx4XS6Xxu12z/qMV4TQbQ0NDfsaGxtfmzNgIAgiWzj1bQAAURR/Q9P0EyqV3VtTU/Ojjo6O9BVs75Op6FSL12i12usURVGlA7IsP/nKK688mjF26VwGfy4my/N8q9FojAqCkK8oymcociwWwzabbVlhYeF6WZbjyWTy1Pj4eAfLsjOupIzfg1Rs63mXy9XodruDcwEMJELobpXKpdLptAcAoKWl5ZTT6WxBCG2cAgarxWLZPdsO2mz6Ahs3biypqKjQMwzDHj9+nG9ra2ufrH9FUe5TsQHAGPd4vd4fnCviVltbS/l8PiLzO0UFcH/q/KPRqJ9lWUmr1Q6lUqkFanTpzJkzLweDwSZRFGF8fNwXj8e7BwcHlRnW0ymE0NsA8C01ugQAzwHAbZc9GBwOx5cRQkUqRZ7W1tbJyw3/DQA2qjT6N680MOzZs4c8ePCgbdeuXd8vKSm5hiCIwmQyOVxYWPhKfX19JBAIaARBKDSZTMsQQiuyUIRnsgCBWbx4cZlWqy3W6XRWRVHITZs2Bex2+2g4HE4kk0nU0tLSrwIKmeM4rri4mNBqtROpVCoBAJ/JCVEUtYLjuMcEQUjH4/FY5j4znoALhUL/1WQybUcILVQpvtXhcOzzer3/cVmDgSCI+7IUfSoslk6nX6Vp+imEED2l0RscDsdSr9fbeaWAoaamBiuKstlut28BAGMsFguyLGtfv379w+3t7Vq73R4rKipaPDExca3f71e7RRQAfq1yX3rp0qUl+fn5G+x2u9NoNK6nabpAURQqFAoFx8fHm+PxeEdhYeGHr7/+unsKILDP5+OWLFnCEQShIUnymCzLagnSurKysutJkqwKh8P+YDD4zvj4uB8A+JnUWXt7e8Llct2HMT44DV3yzCRd+kKh1Y0bN1oB4HqV3p6Px+OvTv4uMwHr/2UB1INX0sjw+OOPKxaLpUaWZa2iKGP9/f1PfPTRR78CAGXFihUP19TUPJqbm7stEonkZuHP+91ud3yqmnJycnaVl5c/u3Dhwv/OsuyXw+HwUHt7++tdXV1NsiwnKysrd69cufJho9F46/bt25fU1NSwk3p1nPFDOIIgtAzDKBhjRWVEQjRNf9tgMFxXWVn50PLly/9ndXX1rEyRcLvdbozxz7OMlNZsZZcFGCiKujMzvWKq/M7n80VVKvRillt9rba2NudKAkRpaWkewzAFgiCkh4eHwWAwLBRFUeQ4bvDUqVONJ06ceCsej+uyXP7BVL9g9+7d9956662PL1iwoA5jjLu7u99rbm5+rbe31xMMBh85fPjw1959993vhUKhkdra2jvLy8vvW7x48WoAoKb4qX6EEE0QhAFj/KHawxmGWcEwjJEgCIphmNri4uK7ZktvkUjkhxjjviyAuMXlct18WdIkhJDq9AtFUX49TXRpLOMUTb6PUa/X3w4Av7pSwMBxXDtC6BqdTrewvLx8q9lsLhcEIRoOh9/v6el5mCAIC0VR38qiv08txkkmkwVLly69XpIkbSQS8bnd7qebmpoOAkBqUjtq1q5dO+b1esM7duz4aWlp6c1ms9mSm5vbGYvFPqEWWBTFQyRJrgGAPFmWDxEEsW7q8wVB4Pr6+n7Esmx+UVHRdzUaTd3OnTsX7N+//8xM6629vT3hcDj2EgTxvhpdwhg/73A4PF6vd/yyGRkcDsc6+GwiDQBgyOv1vpNlGJQyjrQasK4oqnTo0KF32trafkZRFLNq1arbi4qKykiS9CcSifdaW1sjGo3GnuVSIZlMfjxZNVardZvRaFwEAMlAINAaDodbMkD4JNQqAkDq8OHDY8ePH2/s7+//XTQa9dtstq1Wq3Ux/OdkPDmZTLZhjKmcnJxVeXl5e7LQ1hySJM3JZDKEMQZZlhMcx9lnS3der9eTiSCp2YmFIIgZoUufe2TI5jgrivLSNOE9EEXxRYqi/lqlkmucTudaj8dz+EoAQyqVGk4kEq81NjZ28zxfznFcTBCEsc7OzsNn1aSYSZJUa+yIz+f7U49oMpkMDofjDlEUWVEUB5qbm3/f0dERBvV8Ax4bG4sEAoH34/G4duHChVdXVFTU6PX6o+3t7QkAkGKxmJ9lWYwxJhBC2XIW2quuuuqHmfcxDQwM/EwUxVldQx0Ohx82m807AKBSRUd7nE7nHo/Hs++SjwwZfn9bFpD863TXNjc3d2TjqgBwxYwOra2tfHt7+/jHH3/c1tPT8+r4+PibnZ2dTZleHAiCUJ2mTJKkMqknB4vFUmQ0GvNomtYNDw/3dHR0dMD0ibd0KBQ6FgqFxkmSzMnLy2N1Ot0nWTPc3NzsxxhzoihOpNPpt7Mx4FQqNRyJRLr6+/t/Gg6HXz5x4sTJ2dRfe3t7Qpbl+6aZmv5zh8NhueRgYFn2piyzK9vcbveJ87hFNkf6NpfLZbxC8IABACorK/UrVqy4xel0/uONN974j2VlZXWlpaUmjLFq1lmj0Xxq2rVerzfF43G/Tqej+/r6Tm7fvv18pr1HJUnCoigKFouFTqVSOZPfSVEUThTF6HRTxTmOa0wkEr9IJpP/4vf7TwKAMNsKPA+69Pzl4DNkW7fw6/O5OJ1Ov6KmXIRQjqIod18po0NVVVUuwzAbCgoK1lut1o3V1dU37d69+7lrrrnmW4IgZIskMZPBQFFUcmRkpJeiKEZRFFIUReZccY2JiQm6srJyqSAIvM1mKwyFQumpESWSJFmMsQmy7LLHMMwbAwMDb/X19XF5eXk6uDQr3yAej/8QAE5lAcTNDQ0Nt1wyMGzcuLESAJxqjh+cZya5tbU1hDF+I0sFH7hSwFBeXr7abrfvWbRo0de0Wq2QSCQGGYYpLCoq+n5FRcWDWWgmcjgchk+ML5lMjgYCgVEAYOx2+8K8vLyyKeHSzzCtVCpVU1paenU0Gh3leT6H53luMhhEUTykKIoGAHKz+Y1jY2MLTSbT7dXV1TcsXLhwq9lsrq6traVmW4c+ny+pKMrebHQJIfTzTL5r9sFA0/S9WUJe+y9wJ4kXs1Su2uVyua4EMNTW1trsdvu2eDwePHDgwM86Ozs9iURiSKPRsBRFZds9hDKZTH8CA8/zkfHx8U5BEMKFhYWLSktLb6ipqVmUpafWVFdXV3zlK1/5C41GYxZFsePgwYNvB4PByQk8OZlMtimKQsiynJft3SsqKh6trq7+h4ULF75gNpufMRgMjmQyWXAp9NjY2NgIAM9msZcCmqYvCl260GgSgTG+W21iGQCYnU7nQxfp2Q8CgHuug0Gj0fhlWdZijNMMw+hIkkwmEomwwWBICYLwFgB8Zg2DLMsoNze3BAD6ASDd29ubDgQCH7lcrjabzbZKFEXD4sWL/YqiiF1dXcNwdpqEAgCotrbWYrfb1xoMhiWpVGpsfHy8KxqNvjvF4ZZisZhfr9cT04wwcuqstPI8319QULCnqKjo+yRJDkGWWQSzQJceZll2B0KoSqX4JpfLdZvb7X5l1sDgcrmuBYCSLAjdBgAXZVUUxnhXXV1dYVtb29hcBkMikTiVSCRaCwoK1mzevPlvAUBLEIQ+HA739/f3/0av138GDKIokhRF1QNAyyfq4DiOO3To0C/q6uruKCgo2LZy5crv5efnFzU0NExwHMdOTEzwGo1GX1paWr9o0aI6jUajcBx3bGJi4p3u7u7YVPUmEgkOY8wRBJGvto4CIQQEQeBUKnUyFou9mZubW6vT6argbF7pkoDB5/MlnU7nXoyxJwszebauru79L2Izmgs00r1ZRoWLKgghmmGY+wDgf8xlMDz11FMjW7dufREh5Od53ihJEptIJM4cPXr0/1AUdVyvV90KCQmCcC0A/K/JPfXQ0NC7Pp/viNVqfXjt2rV3G43G/zI6OtptMBi4JUuWEEajcSFJkgWRSCRw+vTpA0eOHPnD4cOHvWrN2NXVxVVUVHAY4wVZ9A8kSeoxxorZbF6j1WqLk8nkx4IgXNL9Wj0ej9flcj0DAH+lRpcYhnkeAG6acTBk1qPO5p429wPA38M0Cby5IO+9995bkUjkjNlsrjYYDIIgCB8NDg4OAgBfXFzcqzbs8zxfMcUnwB0dHfGOjo7k1q1bHx0aGvpg+fLlN9lstsU6nW4BxpiLRCJHh4aG3g8EAkcSicTJw4cPj8M0+QhFUfwY46vVygRB+Fin01VardZbBEEIyWelJxqNtl5qfcZisUdYlr1OTW8Iod1Op/N2j8fz8oyCQafTfXXq9OsZHh3KHQ7Hdq/X++Ycdx2SPp+vDQCOVlVVWSRJYu12Ozs8PCxjjF9BCD2mQq8+ScihKQatvPfee6Gampo3dDrdgWPHjrEDAwOWgoKCBQihdDQaHeB5fqi/vz8E0yfmsCRJ/YqiqO6YIUnS3/b19ZXabLb7aZrO4Xm+I51O+0KhUK/KO806XXK5XPdm6BKhYjfP1tXVHfw8dOlCaNJ9WajT+xjjji9o+HvV9jolSfKbADDXwYAAgLJYLNU2m20TRVGiwWCIkiQZHxoa2qfT6T4DhnQ6ra2vr7+hqanpVRXDwx0dHeGziWhAAHDq1KlTzRfwLkiv1xvS6fQKgiDU2tPf1ta2v6CgwKLX6/dPTExIw8PDHADE4DLZ58rtdjc1NDQ8gxD6rkpxPsMw/wQAu2cEDPX19bXTrMj6hsfj6f0ilXM6nQYAuEulYbZv3LixrKWlZXAOh1fzaZreXF9f/6ROp7PLsiymUqlwKBQ6qijKb6LR6BDGuFglEvUdAPj3LDQRT/mvavSZ9iUnfYbq6moDy7JfIgiiIcu1/xcApGAwOBIMBonzeNalCk48mqFLi1RscldDQ8MdMwIGkiT3ZhkVPviiQMjw1xdIkrxLpVIERVHfAIBH5yoYrFYrMhgMWzHGTG9v72s8z0s5OTllNpttsyAIWkEQuFQqVaxy6fr6+vp7m5qa/uUcBk9m2vFTBq/X6w25ubklNE3XkSS5DmNcoiiKAWNskCTJmEm6qbXFbyZ/vFz1mqFLe6ejSxcaIDrnj10uF4Mxzoayly5Gxbxeb6PT6ezNEkPeW1tb+7jP55uTxzBVVVVxGONanudTBEGc7u3tPWCxWBrsdvt6q9V6tcFgiPX09EhqxkmS5JObNm1qbm5u7srWy5vNZkNOTk6JTqdbRxBEHQCUyLJsAACDcjZuqiiKIgEAQ5IkK0kSqSiKNkvndsTr9bbPFd263e4mp9P5NAA8pAKGC96v9ZxgwBjvQggZVb4XU6nUqxepXhjOZqT/TqVSNr1evwsAfjsXwfDss88KP/jBD8KCIBTpdLrlVVVVKZPJ9OV0Oh3r7+//ZWdnZ7PJZFqt1+v/m0rdcyiKetPlcn2dZVnMMEwdSZLrEEIlGGODLMsGjLGiKArOBDc0PM+PS5KUVBQllgFCAiEUzyybLJNlOdtMTwkA5txUmHQ6/ShN09er0aWLDgaEULYF/384dOjQxEWs1L9qtdofg8rZ1JkzHeYkGAAA+vr63mAYRrFarWsxxuUajYYZGBh4KRKJvN3b2+sFgP1Op3MFQuhGlcvLCIL4I8MwEYqi0pIkCbIsp2VZFmRZHgEAjBDSaLXaSkVRsCzLfTzPv5tIJHzRaDSQSCTiIyMjifXr1/9Uq9WuQdkTRU/MxbUkra2tKYfDcS9BEI1qdOlChDgHRSrHGG/JApKXLnKlhjDGf8zyLJfL5VoyV8Fw/Pjx13p6ev5ueHj4Q4ZhSEVRTqdSqaORSGQIMusbeJ5/EAAmsvB4IhgMmqLRqD6ZTJ7geb6J5/lfhcPh7w0ODt595MiRO5PJ5Eme54clSWo5fvz4qz6fr623t/dkZWWl1ul0/pJhmHuzAQFj3OJ2u38yV/WbOY3o6ZkeGe7JkvqODA0NXfQdtDHGv0II7chS/CAAfHcuNlZ3d/cYAIwjhPa89dZbVCwWE+Hsss0/+UFtbW1jTqfzfoTQb7O0C0omk7kY41pZlo/F4/GjR48ePZKhN/oVK1ZEASCHJMlqQRDSLperAWN8EwDcnWXThk90HpNl+Wswx48HyNCl66YeW3UhMt3cCsLlcvUBQJmKAv+3x+O5fwbCkBTLskNqp9VgjMPpdLp4ysZkF0Vm+Uy3T8KVqqHKhoaGLQihfefpAA5hjE8qijKh0WhWZfwCRVEUUm1HdBWd+mVZvrmpqWnWTgPNcqbbKbfbXfVF7505LMc7HV36XGe6uVyuLWpAyNzwpZlQVCZi9FIWqmSiafo2mPuiwDQx+8bGxoOiKK7DGHedx72KEUKbSZK8GWNcqShKLsY473yAAACp4eHhp/1+/zG4QqSxsbEFAJ666D4Dxjib4zzY2NjonakKSZL0wjTFfxZnOrS0tJzieX49zED2HWOM0+n0CUVR4haL5es6nW6BWtBiDtOlxzDGJy8aGOrr600AcGOWa/4NZjAb2dzc3AEAbVlGh7UOh2P1nwMg2traOLfbfb0syy5RFD+4CDrHGGMuFov9PhAI/EwUxQmSJC1arXYRnF1qekVIa2trCmN8r9pugZ8LDAih1ZlD8LKBYUYFY5x1dCAIwjUDjxxTeQfO7/enLnHbkoFAIM9qtTKFhYUSy7JAEMSFNrIvFov9UqPR9FIUFeE47ijG2A8AkiiKowRBlMAlWOw/03QJIfRkFtse+zwO9LxcekEbNmx4rKio6C5BEMZCodDRnJyc1Uajcc3AwMDTGo0mRNO0HQCu02q1C1KpVGs6nR4kSZLIy8vbPj4+fmB0dHRvKpWqXLp06QNarfYuWZaldDodoCjKkkgk/phMJvd1dXW9Pq/qi3za57xcdNFbrdYdsizrMMbJoaGh35lMJsFsNtdotVo0Ojp6LCcn5wWaplmDwbALY6yjKKqGJEkDQohMJpOHRFEkFEXxB4PBlymKiuTm5t5CUZQ9kUh8yPP8sTNnzjTPq3keDHNBaJIkYxhjAmOss1qtRpZll4qiKOv1em0gEBiIx+PhqqqqJovFsgkhZNFoNFqMMR4YGHg+EAj8NhQKpQAgbjKZfPF4PMGybDsABPV6fY/P5zszr+JJnHReBZe1iEajsV1RlDUsy66maXo9wzClPM+fDAaDfzh9+rQbzu6g10NR1Igsyz05OTmjiqL8MZFIvCFJkj+T4INIJCLFYrFRv9/fMTg42D84OMjNq3d+ZJhLIo2MjHQRBPE3RUVF3zebzQ5RFNtFUWwZHx8/DP+ZwU4uX7781X379s0fMj8vV7QQZrPZsH79+uqdO3cumFfHvMzLvMy4/H+EfWHDUMae5gAAAABJRU5ErkJggg==;fontSize=18;" parent="rzaHR70I7FCayc-PlcB1-1" vertex="1">
                    <mxGeometry x="-1294.89" y="2541" width="95.78" height="28" as="geometry"/>
                </mxCell>
                <mxCell id="mJAFEzPXSweO0XMItBbJ-9" value="" style="group;fontSize=18;" parent="rzaHR70I7FCayc-PlcB1-1" vertex="1" connectable="0">
                    <mxGeometry x="-384" y="2738.76" width="95" height="90.23999999999978" as="geometry"/>
                </mxCell>
                <mxCell id="TjCG3OS7FGGDMDlYz-F_-59" value="redis-cluster" style="text;html=1;align=center;verticalAlign=middle;resizable=0;points=[];autosize=1;fontColor=#1A1A1A;fontSize=18;" parent="mJAFEzPXSweO0XMItBbJ-9" vertex="1">
                    <mxGeometry x="-13" y="60.23999999999978" width="108" height="27" as="geometry"/>
                </mxCell>
                <mxCell id="EEn0NjYUKLKzAkonE-Ft-27" value="" style="html=1;dashed=0;whitespace=wrap;fillColor=#2875E2;strokeColor=#ffffff;points=[[0.005,0.63,0],[0.1,0.2,0],[0.9,0.2,0],[0.5,0,0],[0.995,0.63,0],[0.72,0.99,0],[0.5,1,0],[0.28,0.99,0]];shape=mxgraph.kubernetes.icon;prIcon=pod;rounded=1;labelBackgroundColor=none;sketch=0;fontSize=18;fontColor=none;align=left;" parent="mJAFEzPXSweO0XMItBbJ-9" vertex="1">
                    <mxGeometry x="8" width="64" height="66" as="geometry"/>
                </mxCell>
                <mxCell id="yfqlNYxW6HDHiMGtuvuY-0" value="" style="aspect=fixed;html=1;points=[];align=center;image;fontSize=18;image=img/lib/mscae/Cache_Redis_Product.svg;" parent="mJAFEzPXSweO0XMItBbJ-9" vertex="1">
                    <mxGeometry x="43.70999999999998" y="38.47999999999956" width="28.29" height="23.76" as="geometry"/>
                </mxCell>
                <mxCell id="YaarMkEPMlBPovUnNpne-0" value="" style="group;fontSize=18;" parent="rzaHR70I7FCayc-PlcB1-1" vertex="1" connectable="0">
                    <mxGeometry x="-373.9999999999999" y="2958" width="81.00235294117647" height="91" as="geometry"/>
                </mxCell>
                <mxCell id="YaarMkEPMlBPovUnNpne-1" value="" style="html=1;dashed=0;whitespace=wrap;fillColor=#2875E2;strokeColor=#ffffff;points=[[0.005,0.63,0],[0.1,0.2,0],[0.9,0.2,0],[0.5,0,0],[0.995,0.63,0],[0.72,0.99,0],[0.5,1,0],[0.28,0.99,0]];shape=mxgraph.kubernetes.icon;prIcon=pod;rounded=1;labelBackgroundColor=none;sketch=0;fontSize=18;fontColor=none;align=left;" parent="YaarMkEPMlBPovUnNpne-0" vertex="1">
                    <mxGeometry width="64" height="66" as="geometry"/>
                </mxCell>
                <mxCell id="YaarMkEPMlBPovUnNpne-2" value="&lt;font style=&quot;font-size: 18px&quot;&gt;mongo-db&lt;/font&gt;" style="text;html=1;align=center;verticalAlign=middle;resizable=0;points=[];autosize=1;fontSize=18;fontColor=#1A1A1A;" parent="YaarMkEPMlBPovUnNpne-0" vertex="1">
                    <mxGeometry x="-14.497647058823532" y="64" width="93" height="27" as="geometry"/>
                </mxCell>
                <mxCell id="YaarMkEPMlBPovUnNpne-3" value="" style="shape=image;verticalLabelPosition=bottom;labelBackgroundColor=#ffffff;verticalAlign=top;aspect=fixed;imageAspect=0;image=data:image/png,iVBORw0KGgoAAAANSUhEUgAAAKAAAAFiCAYAAABxmNMmAAAAGXRFWHRTb2Z0d2FyZQBBZG9iZSBJbWFnZVJlYWR5ccllPAAAAyVpVFh0WE1MOmNvbS5hZG9iZS54bXAAAAAAADw/eHBhY2tldCBiZWdpbj0i77u/IiBpZD0iVzVNME1wQ2VoaUh6cmVTek5UY3prYzlkIj8+IDx4OnhtcG1ldGEgeG1sbnM6eD0iYWRvYmU6bnM6bWV0YS8iIHg6eG1wdGs9IkFkb2JlIFhNUCBDb3JlIDYuMC1jMDAyIDc5LjE2NDQ4OCwgMjAyMC8wNy8xMC0yMjowNjo1MyAgICAgICAgIj4gPHJkZjpSREYgeG1sbnM6cmRmPSJodHRwOi8vd3d3LnczLm9yZy8xOTk5LzAyLzIyLXJkZi1zeW50YXgtbnMjIj4gPHJkZjpEZXNjcmlwdGlvbiByZGY6YWJvdXQ9IiIgeG1sbnM6eG1wPSJodHRwOi8vbnMuYWRvYmUuY29tL3hhcC8xLjAvIiB4bWxuczp4bXBNTT0iaHR0cDovL25zLmFkb2JlLmNvbS94YXAvMS4wL21tLyIgeG1sbnM6c3RSZWY9Imh0dHA6Ly9ucy5hZG9iZS5jb20veGFwLzEuMC9zVHlwZS9SZXNvdXJjZVJlZiMiIHhtcDpDcmVhdG9yVG9vbD0iQWRvYmUgUGhvdG9zaG9wIDIyLjAgKE1hY2ludG9zaCkiIHhtcE1NOkluc3RhbmNlSUQ9InhtcC5paWQ6NkVCMjI5N0QwQzMyMTFFQjgwMDZERTIxQTc1QkJDODciIHhtcE1NOkRvY3VtZW50SUQ9InhtcC5kaWQ6NkVCMjI5N0UwQzMyMTFFQjgwMDZERTIxQTc1QkJDODciPiA8eG1wTU06RGVyaXZlZEZyb20gc3RSZWY6aW5zdGFuY2VJRD0ieG1wLmlpZDo2RUIyMjk3QjBDMzIxMUVCODAwNkRFMjFBNzVCQkM4NyIgc3RSZWY6ZG9jdW1lbnRJRD0ieG1wLmRpZDo2RUIyMjk3QzBDMzIxMUVCODAwNkRFMjFBNzVCQkM4NyIvPiA8L3JkZjpEZXNjcmlwdGlvbj4gPC9yZGY6UkRGPiA8L3g6eG1wbWV0YT4gPD94cGFja2V0IGVuZD0iciI/PpaF2uoAAC5USURBVHja7J0JmBzFlefzqKPvVkvqVreuRqIlJITMITRgcwpswwzywRiMwQbmsw1jj1kPIMb2jg3YMOznHYOP2dkdbg8wBq/NwhiwvWNz24a1LcSAQDdgQKJ1t9Snuqoyc+tlV5SioiIyI8/KI9731VfVdXfmr/7v/V9ERsrnXL1aEuE8lo+omfXtWklsCW+hiE3gLv6o7Dz15X97do7YEgLAhoR8ZGn1EZ/tv1BsCQFgw2LxKQv+ElKx2BICwNBjvDCxuK2z5WRIxWJrCADDV79jF07TxrTsxLyRa8XWEACGGi898EwHqF9J16SZ7+s6c/NLLx8vtooAMLRoO3rakXCdUVQpV8y1H3Fe76fFVhEAhhY97592Brpd0kpSy5KmK0VLRgAYSoDrBfcL9Z+pgmUTrGlaW/8X5l8uto4AMPAA1wv1H/pblcubcNyQpy/tuOo/H3p+pthCAsBAY97q7puQ+kFk1ambqprpm3/F3CvFFhIABha7Sls+hasfhG4Y5rVWdsRCBQWAgQWYjJMvOO5+XP0g8urhP4UKCgADMx4fvufMh2iPIQWcuq2bKigcsQDQ11i7aPu3IfWS6qe2qsUcpoAGwNgk9R593VHXiK0mAPQlhnJvXb3k5CO/TMJn1n3l+0D1amJSlqEv+OpDzy8SW08A6Nl0nPAXy/6RBh8KUwHVymbUpmCUD8nt87409zaxBQWArmOwuOlzNNPBG13LOla/N7HpPLElBYCO4qX7n81P9g7e+oELT/gXXvhgTNhMxRUlhEkKckGRZ67ovAneT2xVdqgDJy8WWwHB98AzHef+cNX/nT0w6xNOlG+4MGYCKMty9T64rbYrvcp0VWuTZj4ntq5QQMsA03DuvaueaM7kT3OadhVJrrvPdMRlQzLnjJ41YrqWANAyDo3tOXP1vR/aAvCh+yCN+vPmcvuRn5t9q5i6LwBkOt2ln+7/FYIOgQd1HW9kSLbADVcuWrEoZdrVVc/P2HaVwE0AWBPQ4wOnOzlSyAJ4CDoEIa8KarouKToGHhGmIfnAtJtEKhYAVmN/25t/Dz0+gI9MuwhEXhXM2WRXo6RJ2rjePvD5OT8Rw3QCQAnaLCs+eMw3cfjwcKqABZ4FEsrKmMvnBpbfuvR+cNsCvZQCCPDB0BoLvprajkMBYTy4OdvEl6rL9WC+KX/W8m8t/R/ClKQMQNjhhYGd9y1afsSaieFDWTvoeFUQWjaazr9EDPQLc32ZS186fsc9okmdEgBhRxcv6vmngQX9lxW0YhUEq/TrSAUVfjGDehD6gwDhMV856hYBYBrU76Yldw5P7vkigs9J6vWtH0jUgwBhflH22j25rbcLABNe84HysRTPTgXJlOy2VqRCOG7I3Sd1XZlmCJWkwwc136HSJLMeswORpzHtRSUzxYwJ4U55840CwBTBx5uK4WIHWFZxb2hLZWcM6bj31Bk3QmNcAJiAgB1JwuckBZMKaJdiDcnwXBPCaEnXSe3fTRuEiQMQxnaPPWPJ93iVjxdMKxWUKbNhHIWqTLnjck2YNggTBSDMQIaxXS9pl2UuXBkNJ4akWjvIJoTwQxIAxihgStUpF5/w6MiBsSx+qKQbtaOpnlVj2lc4K+549ge770wDhIkAECaTNp0pPzh2cNzV8Rs8bthqggK83kWJac3huN4OEMIPSwAY4YClMM6+8/R7ett7+ljK51ew6kBFDmAzwlzCkVJ763mZx5IMYawBhPHdD915+iNlC3AaCYdfaZinDtT9lj9CCUHdkzqXMNYAwooFqqycpvkAgN3YsHUNmJHkoLYktGgUpS+pcwljCyC0KvqPnrOmWJmJ4rkX50EFg1RA838raVI+oXMJYwkg1ETmbGatYKNq4brhQOvPylzCY287+tEkTeOKHYDI8Q4fGM36rT5e3XDQARNam2BC601L7hQANiDglw+Od0br9D4aLEGmYRw6Uv0UObzNCEoIcwmTMnkhVgDCBE4wHU5Uz680jMBjjQ3LmRAVcdwwJy8koVEdGwBhY89b2reGVveFmYZpdWFDojJaEvceYSwAhB6Yefwux4zmRrrhsAJ+I3CBHmH2VOOuOK9FGHkAoe1w6nXH/+DA0HDW7XsE6YbDAI28VB8v6pKaVQeO/u9H3R5XZxxpAGGk45i/W3IDjHTYDbM1yg2jgPOFuP0KdqBZW2N96lDPmDrjSAP4ZPPGC6bqvqKtmjXSDcPfdnMCWZB5/d3A60uTRal5ZtNlcZxHGFkAYdhp5Z8vf2iS80i2RrphPB0HARmXEBaLEqw/EzdTEkkA0WkRRgpjgcPkV0oH1TUCno1jp4TIlMRpzDiSAMJSZmUATvMyvSoMN9zwVgylHszkMlNjxjExJZEDEFouS0898nsFn1JvkG64ka0YlgrqBc00JXMu7/uaANBpy6X8q4WWy0TlmA4rMKKQhp2YkFCFsFwPwkhJHFbpjxSAC/5m/pqp1OsPRE7SsB6GUwhRCeHgplkfmP79qNeDkQEQUu+SlQtvCSL18iin2zowsoHVg1FeCi4SAJKpl1eZGpmGGzUv0E09+Fzf1q8IAC1i4ef7v1jSS6cZAaTBINNw5FWwUg92n9j1tageU9JwAGEgHVxvMeDUG0Qajqr6kUoIR9ctuLT37ihO52/4mZKO+XL/v0+UDvVLVaUyas44hFSMvO/wYxL1MfI1pEtlvR/Pe9X9imVFGitOSKVSyfJ5jQr4SrmWfF/Xsmm5zGj7r4QCVgLm+IHrNSLkQN3Wj6oS3WF1NF7ctqB1TdSG6hqy1cCVQTqYuXLazYUQU28QaThOAWWOsrJ0W5RScUNS8O68oc84p+mWnjkzV2vUOipeaRhS8Hg5BRfLBX8UUzD2q5PyrdFKxQ1RQHBks5fMWlNskPoFlYbjEOCKo5SKGwIg9PwmfVpCTaRh5/VgsTA5lYojMGEhdABhfBJ6fnbLadCMidemtNcZMryndohDNHc0nxCFCQuhAgi/ODiLeFRTr9s0HIeGNM0Vw7mMG31AU6gAwojHrO7uE5D6aRGotfxKw6ocv1VOoEENBzQ1cqw4tK0G6/h1Hdv+FSfqF6c0HNd6EM5lDMfeJB7Apdcs+lpnc2efFqMdGJuD1L3EuCFDPxYEIrEAwpw0aLsUKKsaJCkNx1YFc5kBEIhEAgj1xdHXHXWN2xEPkYYDhM+YOpBKmyxJLUuarmzEjJnAAfzRE88s6D2qe03JwSlN4+qGow4aeanJRON6e8+HOr+VOACXXL/4G3bGQ6Th8EBjvraoS13LOlaHfRxJoABCj6l79ozLvAIm0rB/oFm9p2lIVnTeFOYISaAAgvppMU29TmGTA+gDBgGanSGBEZLZF/d+JvYAQkHrRP3inobdrpLKgqwRqyzAZ8IISc+fTf9aWG2ZwABccFHf1Uj9NF33YePEOw1HBTKegLbM/CvmXhlbAFHtV9BKJnxRni3sN2xxAo31/aEtM31px1VhHFMcCBlHXbPor8naj0cFhRuOUMhyH/RvYwcg/GqgqQnqh4cfKijccIg/xIJmNqeDVkHfAez/wvzLc8Vcu1P1S1IaTkoUx0rtQaugrwDCwS5QO7CAE2k4bgQagaugrwAu/NwRn23Lt/axHk9qGkbvZ+jJAzdoFfQNQOietw40XUrWfqT6xT0dpy0NB62CvgHYd2HvB2fMmH6CnfLxqKBIw9EJUHVz5nRAKugbgM1zcn/NmvGCq15Sm9JxOy6EN2RFlnQtOBX0BUAYdpu/bM5HYGaw1Y5MW1M6aSoIHY5IAnjEeb2fdjLfT7jheKogdDj8HiP2DCC0XvLzspeUNH4Ak+yGk02i3Nd/+bzPRArA2Z/qu7A519xXocJ2Rwo3HONUXNSljmWtX/JzcSPPAHav7LqE96gw4YZjDmB5W+TyuYG5F8/5i0gACOZjWlvHWZAOedJXGtxw0gPmC844sfMKvw5m9wQgmI86leJMw8INx1cFYeHz//3Es+9vKIBQB2T61I95OShbuOF4Bizx1velOX/XUAD7Lug7ra2ldcDwkL6EG46Z+lXGurWyGZn5vq4z/VjYyDUBM5dP+6QFFalyw2lJxdAPBAjh2jyO+JJZlzQEQGhGNs/Nn+92tQPhhuOrfghCmLDafVzXZ7y2ZFwBCBMP0KRTcrcIN5xs9cNv+9GScQwg2O9cT8a+95ciN4zvpHTVgkUJWAgVwPt/9tQsKED9rHuS4IbhuOBIr5DvEjT8QqZiMCM9i2d8xMuiRo4B7L2o91zymA83aVi44WhChl9wRUe30TUCsaiXpM4TWz4aGoBNs3L8vb8UueG4gubEeJD3mX+XVdCLGeEGEGo/mJAI6devpdaEGw4PNJqa8dw2p2KVDElRFXPtGLjGQdQr5yWGvnCgAK5v10p4+iXTm3DD0VY0mprx3D8F7xRo6NoEpwKk+bqSZt0X9isFO0q/KXbDYdRnbpQMBwtBhMOHFA5XOvxv/H4EpNkT1Awp15X5kJsp+9x7HZrPfqbfMN2w3yMVNOX08hlu6jMeJUPpk5ZGzTOqV9QMPV/NKqazRdc4aHCN31/7XvAZSh9kyEAAhPqv5+M9JymTarvVRrdLw3bpLCg37KamCyIN24HmRNF4lAygA2iq1xhMcM1SNTLNoscRnLTnmiMjK7sucTpNi2uPQ/2X7VQ/UswUDJdUcKtfEtywE0XD4XJSp+GvYymZVe0G16Ta4Y+RqodDSkvNcH9+Wm4lrAnuO4DmkhvLOs9Wi5lAOq1huOEw0rC5FJtDx0lTMl51Y9VnuFJZqRxco+fWTevEICUBRp+BXq9kZPP5cOTc3CvmXug7gG1HTzsSpl7pHC7TTRoOww2HmYa9KhmpUjzqhkPCquFoylVT901qNe+Pw4kDjF6Hrs0fQwXCtvnNn3CShrkA7D6j8889nw2IMw0nwQ07rdNYCkYDgKVutOdYPYZfVyHOyDWvJR9Hn0mFv2SYt2GN6Ye3rF3uK4ByTjo5zB0YZzeMg+dGyXgfQ2pEwoRAw1W1miqJOs7OjFgpIN4HnPphoX2nmYLlG4A8ox9pd8Pk/492itWOtKrTrBSMVouRaZP2mbQ6zqqeQ68h3998XUUp4RqUD/37phkpu2Enadh2T8/6RO9xmqa1+WMP0+GGSQVkqRQCwkrBaMaArMUQHCRYuNKxFA5+LHCbnEpGvv/h8mEq3ZrPKRkSeXIAuK+1o4U7DdsCOGNB5yrk8IKOpLhhUp1oZgFPffhzaLUZCRNZi6G/WY6V9lwTyMzhBjWCCV1PpVcJg+8weKgUQM9DSjsFsiQViwXuNKzYNaDl6dIquWA/01K4YanOzbJHDmqBQcpHUzTScZKqhOBg1Wus90dqhX4otW2geqjQfdX9U9SrqZf8H2FormOg9WyeNGwJIDQVm3uaFvmqfilyw3idR6vVaG4Tr7VY7RZajWjXPkGQ4OCi70Z+R/x5tPdAUKLvSb5Gm+RvSlvu5Zkf71mM139hn+8iLm7Y3JCUGdFkCrOCjlQ5nskAZB1JS53omoSNBSX5fNp9uOkg/0fzospmU7r7gp7TPQGI6j+3OzatY8OoWCchctJXoykmLV3iaoa+Iv5YnTphMOFKxlIzdD8JGoIPXeNGCf0Ns6c8Aaj2Ksfz1H/CDde7YCuYSCBxhcN/L7iqITDw9EwaHrLuxKGhvR59Hu0z8doPv7aCjyw/uo7sONFuipbCMh8w/SqTVZeSaVe4YT7VRCqI2hx4miXTJgkQvmPJXh362qRS0ZQLfx8yRZO1HAkYrmb4a6zuo2yYPmjjOQYQZr/kJHmp1CT1et2xaXXDVRWsNGprU5hcAwmt3qIpGw4fmSLJv8lalHYfDTR6SVH/GO0+2vvALCpXKbj3ijmnBSpzCXTDU7Nh8J1BBw21P0h1s6rBaGpJKhcJhxVUpJKxrnmVkPYcaMd0DrSttDoBNnPvWo3/CjfM9154U5cGGk3daI6TVDCaopHA8dZqrMedwMtWVkPKt+dPaFvWebQjAIHYjv62pdKkuyOthRueGmUgXSpZpJOFP16XsWo5lsqRj7tRMh6F5E3D1b9LmtTz/mlnOAIwm1Xm5zqzs0LIWYl1w/iwFc0E4MCxFMYqlfJC5/b5POncKg3jz5HajLMcAYga0FYpSrhhyaYXaN2+sFMzq+fwKpXdezo1GXY1H9mkNmdJV9oxrNM7UPdqU3fuWL9rorS5Yadq4SbN8T7fabq2hBFNssWuyV4irR1jdlV4AQx1AmpCx4Z5aje7Fgav23TqeJ0ZCajjjMM/qkp/E7/mMUnTL+k5iwtA86yXvc1zkAFpdBqOmxt2ApRdWuMxH06hr/tXCQUzsAmmVZgQZLpR1+5Br7dT/3xXdoUtgDACUhaamTADxo+dkhY3zFO8OzEHvArHaxBo9RmuaDVQgXvHQDOfQx5SWnkcYK15vm5Q1Q9GfljDcjVPhxGQvKou9G0GdIrdsJfeGm8tV3dfyai7pikSrl7486ugofSKgELDijBdvwJd9Zp2PwFj5b36gC3bFNx1QfdiJ7924Ybpyu1nb40FKVmf0QAhYSPVi3qNnlcBrEZBSRit3ku3rwPr9mamVV3paz8sJW6Yp/B3kzpZ17T6jKVGlrBlZDpYNDXTCaWsUmT/WlYdWA9gmzq7MTkrvm64jICtC+ZpcdTUWzp759dAgExABUQaVFRACBVjKmPl9TTgqveTr6V8NqsfqJAOGIbg9EOGHLU0HFc3bKlqDMdJg0ViTcvEFJBmFOqAxeo7pnrp9XUgU9lYKZzWkqH0A2sABAccxBBc2txwTVuDULcaKIj2Br5zLRXGRYpFf+NuF/+7BjoaPHagKvTPITdP3+VzVzABlDVpZugOOAFu2H6KPlHUYzvayjwglXSihnZ1YDXt25gUliO2crv4/8NqzZSk0hImgH2fnr3UbYoSbtiiH2hT1Fu5xzrorOotK7fKUkwbBSUVk6Z8ZMqn1ovSVB0I8wOZAGanZRYGBU+S3bBd/ccq4m3bILQeXf2XsjQr3KaE0dejqiGtj8j5v6h5tQM3IjUAagVtPg0O4YbdwcncSU5aGW7aJzTodUaD2KqvpzswH7Q6UKm/VhV5oHlx+zwqgDwtGOGG6c9XZLluFVSrop2lFDwFvy0QNNWyAZKpXjY/DFSn1rSFKrCZ95HXsE+2jLbVAYhaMBqlBSPcsLXSKTK2KFB14UmL1ogk0eso4nle1Ie7ZcIJOTmsV91s8N3RBYHGgq/y3vhom4K3YNSM0sqCQ7hhZ4rpdHTB1SiFFWQOaz2WilXVzOrwcMoPjVb3oudNn9e5tA5AaMHwHoYZpTQcBTesUKaAuDICvGmW4/V2PwYmZDR47KCySLfk64GP8cJEvQLmcmpHI9TCaxqOghu2U0CWe7QavbDr69n25XTj8EU6/LelorHgoz0H+46WryOghDrZnG9KAjjjwllz6huswg27VUCaEjpyvrqD9IwrGa0+w2szrG/HhMeJ2tm9jlIDQisGndxQIXuAvCk0aW7Y6Xnm6l2wwuwD2tVuVBgVQkFpbQ0K0LaA0F5j0WOkPs6Tei0eA6+RzaizagBEPcA4puFGqCCehgG++nWinRkMfOitDjDWzqYBY/ccG4WyfT2vQrIem/of+/SC3lLXB6T+goUb9tcFYzNhyPrMsn7ivZ8HBLtajbcudKB6ZHR3tPZVAYQeIN6EjmMa9sMNe0nDVkV7naqR9RhNmaygsUuxPMBYKaHT19qpKe3fWt0+pwrgX51/tgbOJMgmdBzcsJc0bNkbozVpaenVDjy72gt/f14DwaOyTpWRQwHlnDy3CuC/PvqUCs6EpVrCDbuyxvQdyDFaYKtCVqnT7r14XKwbo+KgnQOcqVnlcAq+8cqPd+CjIMIN+5CGnaQ5JyrkFBonDpXn87z+YED9ZLk670CBY4Fvvvvfc9qk1tfo4j3ubthRXeQXUF7qPTc/AjffiTBb+MpgChwL/PUrzp82pkwINxxUCvaidjz1mlNweMwMb/rGb1euDc2ovU35XPAc5kII8Pcje7d0e0mhwg37sHOdQuQ2xTvp+7E+nzZpAW87qdh5keV6h69XJqaC92h45Z5YN+x1J3MU845SvAvIqKMvxGtrjnfBZ9ZQRnGqUJYBBc9RNiLtJoAnfOzYI7gyoUsVTIsbrlF7mylJjnpnbtoknGBXoSKXXZMYBxeRYGHvSYOxOhqEp+LyzcmhYt83PvuxdsXRRvVjxyTUDeuGUTsj2glsHIP4rlIwpT6r1mYlbOKsQp8qRvYy62b0MKaY4c/BVa962zxGWpfKT21RnJxeXbhhWqaVq9c1pzx1U2s56ScyPoccdbFc0w+DkaZapNqhx8j7aKtksRrzphZh/4PpgvWc8WfcahaDNBxmLYjqP6YCuknDdkrIUDUyDaI0agkIufYfUQfSajvy4CbaezLBlw+nYzC/Ct9+j18aDtsNgwLWnL+NxwXbjZboBnNNP9vrEgGlxJ4ka/lelDX/yOOBaZ/NAh8wwNNxZMavkuCGXTeOdfrRZVYKRl1NQTfY9ZlufUAS1Txk2FDhTtfuu9U4YLlWLV0BKNywSxhZ7Q28LrM4fJJ1P6v1UbfUh4VTJWtBsu6rO5DKpu1Cvn/1MawGhO6Lwr/fhRvma7xLdXVaTQuCUnORay1zp1mKQeAChOZULb4Xta4j3bCNIak+l1RA3AUbjR1wS8TYMC1qRgMoNROz70bbofj7OlFADsW0NBFWRsZuAUur5AAuOKlpOBK1IPrKmsEcPWCt2Ud1mIzXOYXNakUuq3rR9+rESR9QuGEXPzJyfNSij2bZc6M5U7xfV3KvhHgdaKVqsuJdN9CFqYBJS8NhKiDjpM2OXSO150YqlYMakPs4ZL/U3mJda08KKNywldAp9c7XoWO16rnxONQw4OIBjXqOFMOnGlC4YfqPrO4HV2m68qyOwFPUW6kkyx03BDTWuU1kBwoo3LBPKVm1h8bSeTJWIOW99jt1Oj3jJ3oPXxVQuGEL4DKqbbOYCaNFXy3otGm3m3jObWcHKAsUdyMhwg1Tf2QZWaUqGm9aZaZgH2GjAWR3smryPR2d9lWu6ITsEEDhhp1+XxcmwAfQrM6oZHdaMPI9rMCz+nwqqBbQ1QGoFOQ/JD0Nx+18w16NAK9K2UHFe23CJvODB7HuZ6/8SXG/34Ub9vtH5qR/RsLi1iw4+W41aZW4dt2+slY24YajoGYsgHhSIfledu/PrN9IdSOvvQAIUuh5owo3zPxaTkBzchpXu3RKA87KbFRbJ4Z3sHji7U3bDyrohnDD3tKwuSPNPYmNdxp8NRZXUc9Rh9HUj2YM7K7DimtOPaugoBvCDQfRGGQrnlNjwPVxioUSy1KkQi4LQfnrjptf+Za7Hj3QkW0bTEMaDrUONNiAOVEy3j5boxWN2wxOanDy6sF/uPdnI0qlhzWilfQx4Ya9p2GaApK1ll06ZaVO3uZutPpH9Rc1p0qFseKgVtSnAJQMebJM5bDM+I+EG/bmeElls1MxloJFGjqDcaFuk6kHYGFUc0+suOzMybGdEzsyzYrhx/cQbrhWBfFWRhxSpF+gsSLTokrF7+8dhnkI1TWiS6Pae41MoUlyw7EPwx/Q2FnBkAqfah2B21UFLOfjQSsQhBvm+RHpyQAtcAcsS0jwqjJgFIztPps/4YZTDprlPqgIXnUvDD28Z0ujU2hi3XCKQWOqYFHeXANgSTJ22oEg3HDy67OwYt9Pd+2oAbC8a4ekQ9LONKXhUN1wgtXMsfrJslQoaMM1AB538el7oTkoy7KH/S7csADN3gHLGXnQUKW9NQBCHNw2+sdss2oINywULUgHDEJX3uz1ACJnItywt1+4AI0dSk6WYNADWn91AOrjxtoopNA4umE9qU3pABQQH/SoAXD3T3Zu5wFBuGHKL1tWBF2ckZEym6gASjllh59OOE1uWCggf0wcnNxKBfDS1asODL0xvFZV1NSlYT/csAi+FgyeaWu2OsxOgPysNslG2tJwZPuBCWvB6JKxzcy01BRcjtKY9scgOhBpc8MiiM5AxYDAvFPoOTMB3PXgzrX+7Pd0umERdOcLEEILBnrNNeatbgMrxlvaqP6GcMMi/IaQlmHrtviKS1cND789utGrEUmrGxZhHeSsK+pP3ihI/w83IlFOw37DK9xwcHWgmlcHJzXtTVsAd9614ze8IBgRG2cSbjiiKVidGgO+7GNn77IFsCAZG/1uSAs3nO5QslMGhFwQlbq1wSb70ZCOaxoWbjiYoLX42AtUUurAtKRhoYL+1n4ohl+dWMcN4J7nDv4yDDiEG04ecPilCqEqbxvdcOANLgBh5Xx4MtkPFG7YOg0Xi4XUgoYDVwdZTpGgtQctPi4AoVCEJ2sj+gtkHehHGg4jYQs3HBxkhsNTQJgz1Ublp6lwWr1w38YDz/vRD3QSwg1HW83cxu4XDzznGMA9D+9+XlXV0bSm4aS54TBAo9cz9PrPFsD3XXz61skDhT+SR8qlJQ3HVQUbBhoNsIzMrP9sAYQY2TD+ODpSLm1p2EktGPYKCX7VZ0EHnITn0K7Cz5iAus3dbNUxUumGYX3oIBiMA2RWKUhRFWr/jxvACxafuL6wr/gybxr2kiLj7Ia9KmCsQWOpnypLxcnSOmDINYDQkhl9Z+L/pDUNB3HccNJAY6pfjj7+6whA0w07HBVJWhp20xNMDWhM+auwc9/OH1maFJ73OmrF8S+XRrRn0pqGnapgqkCzab9MlEqveAZQuGHOnmBRjJ5Uwcop0v7XDz7Far84BvDd+979uZOmdBrdsAgsAyvmUi/P2oLK+4bQlN776tCzvGPDaXXDIio/2Lw6OPjTnU/6BiBEYXfpQTE2HIFfUwzS755Xhh7Dj//1BcDtD+34hZOp+mlyw2KGtPP06xhAKCgn3y0+mNY0bKWCqrnVhfzB75A3/ToGEOJPP9/5o7SmYSsVFApY+SE28adfVwCyeoLCDYswRz8ysm3z2ROAEPvWHryL7Amm3Q3D/ejEg2kCDr/A2G+poK2bKGp/CBRAMCNwvIiXFfUT74YTDBpr3WuYerV/4/BjaP3nwAAEM3Jw6+gPeUdGxNhwskBjlidZRdr94K4HHbVs3H7Xt29/5z5yZCTtbjhO8/T8XskfVj448PbI4zBgEQqAx3/mzB3jmw7d6fcqWnFxw2kFjRWQfid2FO5wDK6XD3XSkhFpOGTIQhRjc9Or8rbBhwd/EyqA0JIZen34CVwF05qGzRnRRgNAi0BA7w88gd3MF98BhNj964M3htmYjkoaDkwBY3hKr0yzOgiewFXt6PXDnTSmk5SGPbdjEnLuODAfMPIBnqAhAJoq+OLQd/GWTFrSMB5FvRTJ+izoMHt/L47e4RpgP77EOaVl/+FkeM6rCkbSDWv61MtSdIJCUL/h7WOPQxZsKIBw1BOpgm7SsD/sGA2BN41zEdy2XnwHkKaCaUzDqYJPlSWtpK+D/R4JAM3TfP1OudnrgUuxTsMpCjjmd+jVke9YHfMbKoAQTa3dz5J9wbSkYV1LD4xI/bY/+N6jnkH2+8vhfUGRhpMXRmXFg32vHPxfTma9hAYgOKLCYOkBL2PEcUzDRslIHGi0Cxx5AOr33kM7/82XVB7El99085Z/yLVmRtLohpMCGitg2M0v9QsMQJiSs2ft0LdzLRlDpOHoQuZ01yD1+/ChZff59d0Cm977zl3b74RZ04qsuNxo8UrDhhFd0PwKUD8/nG8oAMJRUbv/sP/bmWbFSEUahvpITgZoLPUzFOnpD04sfdjXdk6QXxqk2mxO+3CkThrTcCNAs1I/6PP6qX6BAwhf9o173rvOSgWTkIZhLqDb6fh+1WdBBhrzhT6v7+8d9JdHbRnWCEnU0rARIMNRhswOwHf/5/Y1gbx3GP/Ahpu3rIE1Zbym4kbsL540DPchjuMMGjP17tZvc3qwUaQABEOy68X917pJxXFIw5qZgvVYg8Y0H1l528bvbf12YOoa1j8yK7P4xyxDEvc0rBc0KYmRaVEk6GTwrvMSaQDNVPzVzV/It2VHkpSGk7xSArRd/Gw6NxxAc5XVFw7c4HTKVpTTcFKnZIH6bfnqlm/63XZpKIAQb9799r/QUnFc0zAoYNKmYqk52TQeR1982m+C/qzQAYRBbOgNeknFUUrD1VWxkmI6ykTIeSVQ49FQACGgN+g0FUc5DRtacuwvrO+864X9VwdpPBoOIMTp+wb+mUzFcU3DMAYsJ8CMQOod2jJ8x+zmJT8PDfhG/bNQ3HpxxZFIw2Vg85lceSvKZh8wtm5Xn+pjZlozg9vv3XFzqIrbyH8cXPF7T+65knudwYil4fJuk2C62czStJjXfUrZ9WYkGCxwu8JBLAGEgAY1PlYctzScVTLxT70wz6+cemFfhF5zRmEDwFixm8mrUUjDihzvRaHN+jUrb9tx3+A3GmJ6orARwHEVfytfYXccSdTSMHxGpqyA/a19sav5qgDkw3W9kQQQAuaaodZMXNIwKHb3gY5Y1nzm98/KkrZXvy1M1xtZACGgNQP1oJNUHIU0HFf1M2Rj3Wv/uPnrjfw+kQLQbM3A3MGSsc1qpa3IpOGYOl6IfFd28K0Hdn7er8MrEwEgxKWrVx3YdveOT/LUg41Ow/CcfrUvdhBCw3nwhb3Xe1lWLbEAggrChtn+613X8E5gbXQajhOE5mjHtpE7+rJL7onC94ns+BFsoMmtxe+yIGx0Gp5aGD4ew2943adLxrp37t7xt1H5bpHeglAgw3hxJqBzkXhNw4qs1tRWUR2Ow+u+Tddv/VSj677YAAgb6rWvbr5IK2rb7Jb/bUQazqmHR0HgLJFRVkCYYPre83uvCOrgokQCCAENUpYpaWQahvfMqlmpL99j/t0tdUV2G2aaVGnP+gPfbGS/L7YAQlyw+MT17/5y18VuD3APKg2jcWAEYRSVD5mOXuOob0XxO8YCQHDG8Osd+v3ItdZrzYRslIanRw44/KJklMiZjlgCiKKrsOD7e34/dCcOYVSa0mGOB5OgoQtuOMyWS6u67fW/3/zRKJmOWAMIcda+JVfBcJ2fzjgqy3fwQGbntNHjTTPyg1A7hz2/L/EAQjpef+PG/1IqlJ6mQRhWGi7pWk0D2m0z2g4yXNHQbav70ORScLxRGOlIHIBme+bSVcPrr9t4WWG0sA4gbEQazpUdcN3GVNm9QKdqhoDCUyu6bXUftFv2vDz0+Sg63sQACAGpBZqqZfoG/UjHTtIw3KYB2KNOZ8LmRMFwoEjQrJ4DygftlqgMsyUaQAhoqm6+/d3zAEI55DScU3O1jpijFYOrFQkR7TGaCtL+NndkZuqItqi2WxIJIATUOYeeNS7Jcs6e8SMNg1pCD5CEjuaEeRWO9hiZoll/Q7vFKEn3dxcWfSFu+y8RK+vAbOqxn5c+6nUKl5M03JJt4jYZLIVjPcfKgNQpX7nulHT5/vU3bLoyjvsuMUs7rdR7fwujJdWzNAX8eV37W+vuAyfMUjyrFEoCSVNJ2m14ntKqPL3i5Tmfi3KvLxUAotGSXc/svwRBGIYbJuvAWZnpTFVjpVBWjWenfGqb8vQrazacH/QKVgJABwHHtvJA6DUNO+37sVTOqsazUz6AD1pScd5fiVxdEUGouITQqQPG4/SOEyxrQSsny1P34coXd/gSCyAPhG7TMCgkzAOktV1aWztsoWKlYZ66T82p0ti+iceTAl+iAcQhzDp0x1ZpGMBtytAd8NjYsDQwfaBaB7Kgs0u/NOUD+KDVcvrbi/4yKfAlHkAEIbRoAELFh2M4AM05IzMsn8OaGWOVflkqOTWbOSMdeHPkDnC7cTYcqQQQAvqE0KKBERP8PMZBueGTW46d6s/ZmAyWwSChhdULYBZQ0uBLDYAQ0KKBYbvyjh7kOZk2Kw3DkXBWDhjSMNSCKzuWcTlgVlMaApRvbOfE1/M7+65LInypAhAChu1evXbDGZMjk+vcnNF9yoCwHTAyIWSbhkf5SEDznTlzVsv00YX/Lcn7JFUAQsAEBpglXJwsPg0QOk3Dzdkm5sQDpH4QYEZ6czNdfUc4fHLwhX2r4zSrRQDoIGAqF7QyJvcV7rfqFZJpGE7J1ZpttlRAgBDFRd3nOvpeZoO5SVkHpUJc5vMJAF0GtDLAVcIxJlKeb0ararEcG4IPT8OzeuZJJ3Ut5/o+0GaRJfn+DddvPScOM5n9CnXg5MVpZVDanTf0Vm3GE0M7dx1sW9h8ilE08nWqhB0QDwp4srJcas/UT0QoFidr4IMolO9b2NovbR15SxrVxpnfA47b3bfp4DdPffvI65QV80fTtA9Sq4B4wLqE5kyaFmWEXIEBpWG4bs40cadfFG2tndJnj/gksx6Eg4f2vTp8MUwkTarTFQDaBJpJs+G2PzEdMqhfR76NOQRHpl8E3+jYQSqEMIkU1XuNWBxcABjRNg3UYBN7D91PqwvtRkDIQPAhGL+87AqzJoSUawxLt63/r5tWpaneEzUgR/Qu7x8/7u3OJ17d9Y7euahthVQCFA1zNfyTlGOo9V8ulzcvpPrlcrUpu62twzj5iFOkGbumf2fD1j1fmX3sgsm0b2+hgIyUDDUZ1IUwcgLpty3XYpl+yfoP1A8uZAyP7Nl87dXX3yC2sgDQNqAufPlvX1sJa1YfOTGH+hxU+9HqP5R+UbS0dEifuOZvLonr9HmRghsQfe87YuT9hwaUE+cec66V+yVTMLRg8BQM6Xftuv/8znvyxANiqwoFdBS3//NDD1vBx6N+ENdde/0/ia0pFNBRLB9RM8rK/oPzx0r9rd0zjscfozWfkfrhCgjq98r6jd/Z0208IraoUEDHhgSuS+Pjz+Cw0cDD1Y9UwBvuuvXHYmsKAF3HTXc98jTNfNi5X1C/HTveey7t/T4BoMeAGTRaSX3WTf23d//BP4gtKAD0XAu+8dunfo2Asxp6I+Oe3/z4l2ILCgA914IP79v2AqmAZPqlud+Nj76+VWxBAaDn2PTYxtfwv+0UEOq/kja5WdelvWLrCQA9B5yzBOpA1tQrBCEeu3bu2ylGPgSAvsWbv3vmVR71EwZEABhQyGtZj+DqB+lXbCsBoO9x62+feo12P6l+o6PDMkw+GN748mtiqwkAfYuJLSPv0pSPrP2QAv507+Z3xVYTAPoWcEZ3vCGN1I90v6CApnN++PUhsdUEgL4F9APf+N3TB/Cp9qQCAnxIAZWcMi62mgDQ3zCMzSz1EwbEWWTEJnDhg2X1dZrzJaOlpXmTLkkiBQsF9DecGAtD0/NiiwkAfY0tj21knoGSTL+6YYyILSYA9C1gVoym6eNNzflNfBIoi2E4AaC/LhhNLmD1/kQIAAONvzr/bA0mGZD3o96fCAFg4CoIvUBS/XAFhGE4EQLAwCLb0jYk1E8A2LBo6T9qD6v+E+onAAw8Dm5Ye5BlOsbHh8UGEgAGG7Ksvstyv0IBBYAiBIDJDtZwnFA/AWAo8eZjmzSxFbyHmA3jMtTFbaNW7rejowvWlBlQs0p7+VoMxwkF9C9gPHhyy8iolfsdHh4yf9xiNowA0PdgnU6BooCSrCpC/QSA/kd+cXsbj/kQCigADCTGNx7czXoMqV9X1wxFVZUWsbUEgL6HSK0CwMiEVe+PTNUiBID+p2PM/aL0i0LbMioAtAjRB3QZYC54Rj0WfnSJKraWUEDfA6bl/8e/3n751q2bnkPKR6ofxA+vu1OMmAgA/Q9Y8+/xif0P/ODJR1adcsqH5/3kB7dc9dJLL/4OuV+4iK1kH+I8IR4DnUdkS+nQS79/c+N9N3zx6/e2Dr+99UCp2LFw4eL+X/zqsX3rB996UmwpRjfhnKtXi63gM5BopGR1c9cCvWySfzEx9LrYMvT4/wIMANFt+tZRmK22AAAAAElFTkSuQmCC;fontSize=18;" parent="YaarMkEPMlBPovUnNpne-0" vertex="1">
                    <mxGeometry x="44" y="34.09999999999991" width="14.42" height="31.9" as="geometry"/>
                </mxCell>
                <mxCell id="YaarMkEPMlBPovUnNpne-21" value="" style="html=1;dashed=0;whitespace=wrap;fillColor=#2875E2;strokeColor=#ffffff;points=[[0.005,0.63,0],[0.1,0.2,0],[0.9,0.2,0],[0.5,0,0],[0.995,0.63,0],[0.72,0.99,0],[0.5,1,0],[0.28,0.99,0]];shape=mxgraph.kubernetes.icon;prIcon=pod;rounded=1;labelBackgroundColor=none;sketch=0;fontSize=18;fontColor=none;align=left;" parent="rzaHR70I7FCayc-PlcB1-1" vertex="1">
                    <mxGeometry x="-1152" y="3099" width="64" height="66" as="geometry"/>
                </mxCell>
                <mxCell id="YaarMkEPMlBPovUnNpne-22" value="&lt;font style=&quot;font-size: 18px;&quot;&gt;face-recognition-from-an-image&lt;br style=&quot;font-size: 18px;&quot;&gt;&lt;/font&gt;" style="text;html=1;align=center;verticalAlign=middle;resizable=0;points=[];autosize=1;fontSize=18;fontColor=#1A1A1A;" parent="rzaHR70I7FCayc-PlcB1-1" vertex="1">
                    <mxGeometry x="-1226.9976470588235" y="3174" width="261" height="27" as="geometry"/>
                </mxCell>
                <mxCell id="_kIRvT0oOeDnuoKrOwGo-16" value="" style="html=1;dashed=0;whitespace=wrap;fillColor=#2875E2;strokeColor=#ffffff;points=[[0.005,0.63,0],[0.1,0.2,0],[0.9,0.2,0],[0.5,0,0],[0.995,0.63,0],[0.72,0.99,0],[0.5,1,0],[0.28,0.99,0]];shape=mxgraph.kubernetes.icon;prIcon=pod;rounded=1;labelBackgroundColor=none;sketch=0;fontSize=18;fontColor=none;align=left;" parent="rzaHR70I7FCayc-PlcB1-1" vertex="1">
                    <mxGeometry x="-1152" y="3219" width="64" height="66" as="geometry"/>
                </mxCell>
                <mxCell id="_kIRvT0oOeDnuoKrOwGo-17" value="&lt;font style=&quot;font-size: 18px;&quot;&gt;get-responce-of-face-api-kube&lt;br style=&quot;font-size: 18px;&quot;&gt;&lt;/font&gt;" style="text;html=1;align=center;verticalAlign=middle;resizable=0;points=[];autosize=1;fontSize=18;fontColor=#1A1A1A;" parent="rzaHR70I7FCayc-PlcB1-1" vertex="1">
                    <mxGeometry x="-1226.9976470588235" y="3288" width="252" height="27" as="geometry"/>
                </mxCell>
                <mxCell id="_kIRvT0oOeDnuoKrOwGo-19" value="" style="html=1;dashed=0;whitespace=wrap;fillColor=#2875E2;strokeColor=#ffffff;points=[[0.005,0.63,0],[0.1,0.2,0],[0.9,0.2,0],[0.5,0,0],[0.995,0.63,0],[0.72,0.99,0],[0.5,1,0],[0.28,0.99,0]];shape=mxgraph.kubernetes.icon;prIcon=pod;rounded=1;labelBackgroundColor=none;sketch=0;fontSize=18;fontColor=none;align=left;" parent="rzaHR70I7FCayc-PlcB1-1" vertex="1">
                    <mxGeometry x="-853" y="3219" width="64" height="66" as="geometry"/>
                </mxCell>
                <mxCell id="_kIRvT0oOeDnuoKrOwGo-20" value="&lt;font style=&quot;font-size: 18px;&quot;&gt;register-an-image-to-face-api-kube&lt;br style=&quot;font-size: 18px;&quot;&gt;&lt;/font&gt;" style="text;html=1;align=center;verticalAlign=middle;resizable=0;points=[];autosize=1;fontSize=18;fontColor=#1A1A1A;" parent="rzaHR70I7FCayc-PlcB1-1" vertex="1">
                    <mxGeometry x="-944.9576470588236" y="3288" width="288" height="27" as="geometry"/>
                </mxCell>
                <mxCell id="_kIRvT0oOeDnuoKrOwGo-22" value="" style="html=1;dashed=0;whitespace=wrap;fillColor=#2875E2;strokeColor=#ffffff;points=[[0.005,0.63,0],[0.1,0.2,0],[0.9,0.2,0],[0.5,0,0],[0.995,0.63,0],[0.72,0.99,0],[0.5,1,0],[0.28,0.99,0]];shape=mxgraph.kubernetes.icon;prIcon=pod;rounded=1;labelBackgroundColor=none;sketch=0;fontSize=18;fontColor=none;align=left;" parent="rzaHR70I7FCayc-PlcB1-1" vertex="1">
                    <mxGeometry x="-853" y="3103.25" width="64" height="66" as="geometry"/>
                </mxCell>
                <mxCell id="_kIRvT0oOeDnuoKrOwGo-23" value="&lt;font style=&quot;font-size: 18px;&quot;&gt;register-guest-to-face-master-kube&lt;br style=&quot;font-size: 18px;&quot;&gt;&lt;/font&gt;" style="text;html=1;align=center;verticalAlign=middle;resizable=0;points=[];autosize=1;fontSize=18;fontColor=#1A1A1A;" parent="rzaHR70I7FCayc-PlcB1-1" vertex="1">
                    <mxGeometry x="-937.9976470588235" y="3174" width="288" height="27" as="geometry"/>
                </mxCell>
                <mxCell id="HXpWAYzO8qS_qp0edKaX-1" value="" style="html=1;dashed=0;whitespace=wrap;fillColor=#2875E2;strokeColor=#ffffff;points=[[0.005,0.63,0],[0.1,0.2,0],[0.9,0.2,0],[0.5,0,0],[0.995,0.63,0],[0.72,0.99,0],[0.5,1,0],[0.28,0.99,0]];shape=mxgraph.kubernetes.icon;prIcon=pod;rounded=1;labelBackgroundColor=none;sketch=0;fontSize=18;fontColor=none;align=left;" parent="rzaHR70I7FCayc-PlcB1-1" vertex="1">
                    <mxGeometry x="-375.50000000000006" y="3195" width="64" height="66" as="geometry"/>
                </mxCell>
                <mxCell id="HXpWAYzO8qS_qp0edKaX-2" value="&lt;font style=&quot;font-size: 18px&quot;&gt;rabbitmq-for-kubernetes&lt;/font&gt;" style="text;html=1;align=center;verticalAlign=middle;resizable=0;points=[];autosize=1;fontSize=18;fontColor=#1A1A1A;" parent="rzaHR70I7FCayc-PlcB1-1" vertex="1">
                    <mxGeometry x="-438.49764705882353" y="3274.7" width="204" height="27" as="geometry"/>
                </mxCell>
                <mxCell id="HXpWAYzO8qS_qp0edKaX-3" value="&lt;div style=&quot;font-size: 18px&quot;&gt;&lt;div style=&quot;font-size: 18px&quot;&gt;各種マイクロサービスの疎通を行うための&lt;br&gt;メッセージキューを管理する。&lt;/div&gt;&lt;div style=&quot;font-size: 18px&quot;&gt;メッセージキューは受け取るコンテナ毎に用意する。&lt;/div&gt;&lt;div style=&quot;font-size: 18px&quot;&gt;&lt;br&gt;&lt;/div&gt;&lt;div style=&quot;font-size: 18px&quot;&gt;&lt;div&gt;- face-recognition-from-an-image-queue&lt;/div&gt;&lt;div&gt;- get-responce-of-face-api-kube-queue&lt;/div&gt;&lt;div&gt;- register-an-image-to-face-api-kube-queue&lt;/div&gt;&lt;div&gt;- register-guest-to-face-master-kube-queue&lt;/div&gt;&lt;div&gt;&amp;nbsp; etc ...&lt;/div&gt;&lt;/div&gt;&lt;/div&gt;&lt;div style=&quot;font-size: 18px&quot;&gt;&lt;/div&gt;" style="shape=callout;whiteSpace=wrap;html=1;perimeter=calloutPerimeter;position2=0.77;direction=south;base=29;size=18;position=0.62;align=left;verticalAlign=top;fontSize=18;spacingTop=0;spacingLeft=6;spacingRight=6;" parent="rzaHR70I7FCayc-PlcB1-1" vertex="1">
                    <mxGeometry x="-294" y="3057" width="468" height="210" as="geometry"/>
                </mxCell>
                <mxCell id="O4T9YlxyuEKv6EiDyExf-4" value="&lt;font style=&quot;font-size: 18px&quot;&gt;Micro Service&lt;/font&gt;" style="text;html=1;strokeColor=none;fillColor=none;align=center;verticalAlign=middle;whiteSpace=wrap;rounded=0;dashed=1;opacity=80;fontSize=24;" parent="rzaHR70I7FCayc-PlcB1-1" vertex="1">
                    <mxGeometry x="-1268.27" y="3045" width="207" height="39" as="geometry"/>
                </mxCell>
                <mxCell id="O4T9YlxyuEKv6EiDyExf-5" value="" style="endArrow=classic;html=1;fontSize=24;opacity=50;strokeWidth=2;fillColor=#0050ef;strokeColor=#001DBC;" parent="rzaHR70I7FCayc-PlcB1-1" edge="1">
                    <mxGeometry width="50" height="50" relative="1" as="geometry">
                        <mxPoint x="-1123" y="2670" as="sourcePoint"/>
                        <mxPoint x="-1125" y="3021" as="targetPoint"/>
                    </mxGeometry>
                </mxCell>
                <mxCell id="O4T9YlxyuEKv6EiDyExf-8" value="子のマイクロサービスを&lt;br&gt;立ち上げる" style="text;html=1;align=left;verticalAlign=middle;resizable=0;points=[];autosize=1;strokeColor=none;fillColor=none;fontSize=18;" parent="rzaHR70I7FCayc-PlcB1-1" vertex="1">
                    <mxGeometry x="-1110" y="2730" width="207" height="48" as="geometry"/>
                </mxCell>
                <mxCell id="O4T9YlxyuEKv6EiDyExf-11" value="" style="html=1;dashed=0;whitespace=wrap;fillColor=#2875E2;strokeColor=#ffffff;points=[[0.005,0.63,0],[0.1,0.2,0],[0.9,0.2,0],[0.5,0,0],[0.995,0.63,0],[0.72,0.99,0],[0.5,1,0],[0.28,0.99,0]];shape=mxgraph.kubernetes.icon;prIcon=pod;rounded=1;labelBackgroundColor=none;sketch=0;fontSize=18;fontColor=none;align=left;" parent="rzaHR70I7FCayc-PlcB1-1" vertex="1">
                    <mxGeometry x="-720" y="2561.3" width="64" height="66" as="geometry"/>
                </mxCell>
                <mxCell id="O4T9YlxyuEKv6EiDyExf-21" style="edgeStyle=orthogonalEdgeStyle;rounded=1;orthogonalLoop=1;jettySize=auto;html=1;entryX=0.5;entryY=0;entryDx=0;entryDy=0;entryPerimeter=0;fontSize=18;strokeWidth=2;opacity=50;fillColor=#0050ef;strokeColor=#001DBC;" parent="rzaHR70I7FCayc-PlcB1-1" target="EEn0NjYUKLKzAkonE-Ft-27" edge="1">
                    <mxGeometry relative="1" as="geometry">
                        <mxPoint x="-630" y="2604" as="sourcePoint"/>
                    </mxGeometry>
                </mxCell>
                <mxCell id="O4T9YlxyuEKv6EiDyExf-16" value="Status Kanban" style="text;html=1;align=center;verticalAlign=middle;resizable=0;points=[];autosize=1;strokeColor=none;fillColor=none;fontSize=18;" parent="rzaHR70I7FCayc-PlcB1-1" vertex="1">
                    <mxGeometry x="-747" y="2631" width="129" height="27" as="geometry"/>
                </mxCell>
                <mxCell id="O4T9YlxyuEKv6EiDyExf-17" value="マイクロサービスの&lt;br&gt;起動を伝える" style="text;html=1;align=left;verticalAlign=middle;resizable=0;points=[];autosize=1;strokeColor=none;fillColor=none;fontSize=18;" parent="rzaHR70I7FCayc-PlcB1-1" vertex="1">
                    <mxGeometry x="-996" y="2898" width="171" height="48" as="geometry"/>
                </mxCell>
                <mxCell id="O4T9YlxyuEKv6EiDyExf-19" value="" style="html=1;dashed=0;whitespace=wrap;fillColor=#2875E2;strokeColor=#ffffff;points=[[0.005,0.63,0],[0.1,0.2,0],[0.9,0.2,0],[0.5,0,0],[0.995,0.63,0],[0.72,0.99,0],[0.5,1,0],[0.28,0.99,0]];shape=mxgraph.kubernetes.icon;prIcon=pod;rounded=1;labelBackgroundColor=none;sketch=0;fontSize=18;fontColor=none;align=left;" parent="rzaHR70I7FCayc-PlcB1-1" vertex="1">
                    <mxGeometry x="-732" y="2733" width="64" height="66" as="geometry"/>
                </mxCell>
                <mxCell id="O4T9YlxyuEKv6EiDyExf-20" value="Kanban Replicator" style="text;html=1;align=center;verticalAlign=middle;resizable=0;points=[];autosize=1;strokeColor=none;fillColor=none;fontSize=18;" parent="rzaHR70I7FCayc-PlcB1-1" vertex="1">
                    <mxGeometry x="-768" y="2805" width="159" height="27" as="geometry"/>
                </mxCell>
                <mxCell id="O4T9YlxyuEKv6EiDyExf-22" value="情報を書き込む" style="text;html=1;align=center;verticalAlign=middle;resizable=0;points=[];autosize=1;strokeColor=none;fillColor=none;fontSize=18;" parent="rzaHR70I7FCayc-PlcB1-1" vertex="1">
                    <mxGeometry x="-570" y="2607" width="138" height="27" as="geometry"/>
                </mxCell>
                <mxCell id="O4T9YlxyuEKv6EiDyExf-23" style="edgeStyle=orthogonalEdgeStyle;rounded=0;orthogonalLoop=1;jettySize=auto;html=1;fontSize=18;strokeWidth=2;opacity=50;fillColor=#0050ef;strokeColor=#001DBC;" parent="rzaHR70I7FCayc-PlcB1-1" source="EEn0NjYUKLKzAkonE-Ft-27" edge="1">
                    <mxGeometry relative="1" as="geometry">
                        <mxPoint x="-654" y="2771.76" as="targetPoint"/>
                    </mxGeometry>
                </mxCell>
                <mxCell id="O4T9YlxyuEKv6EiDyExf-27" value="Mongo DBにログを保存" style="text;html=1;align=center;verticalAlign=middle;resizable=0;points=[];autosize=1;strokeColor=none;fillColor=none;fontSize=18;" parent="rzaHR70I7FCayc-PlcB1-1" vertex="1">
                    <mxGeometry x="-650" y="2955" width="204" height="27" as="geometry"/>
                </mxCell>
                <mxCell id="O4T9YlxyuEKv6EiDyExf-28" value="" style="endArrow=classic;html=1;fontSize=18;strokeWidth=2;opacity=50;rounded=1;fillColor=#0050ef;strokeColor=#001DBC;" parent="rzaHR70I7FCayc-PlcB1-1" edge="1">
                    <mxGeometry width="50" height="50" relative="1" as="geometry">
                        <mxPoint x="-696" y="2838" as="sourcePoint"/>
                        <mxPoint x="-396" y="2994" as="targetPoint"/>
                        <Array as="points">
                            <mxPoint x="-696" y="2994"/>
                        </Array>
                    </mxGeometry>
                </mxCell>
                <mxCell id="O4T9YlxyuEKv6EiDyExf-32" value="インメモリデータベース&lt;br&gt;各種データのキャッシュを保存" style="shape=callout;whiteSpace=wrap;html=1;perimeter=calloutPerimeter;fontSize=18;strokeWidth=1;fillColor=none;opacity=80;direction=west;align=left;position2=0.75;base=25;size=14;position=0.7;" parent="rzaHR70I7FCayc-PlcB1-1" vertex="1">
                    <mxGeometry x="-408" y="2836" width="264" height="68" as="geometry"/>
                </mxCell>
                <mxCell id="O4T9YlxyuEKv6EiDyExf-33" value="&lt;font style=&quot;font-size: 30px&quot;&gt;•&lt;br&gt;•&lt;br&gt;•&lt;/font&gt;" style="text;html=1;align=center;verticalAlign=middle;resizable=0;points=[];autosize=1;strokeColor=none;fillColor=none;fontSize=18;" parent="rzaHR70I7FCayc-PlcB1-1" vertex="1">
                    <mxGeometry x="-965.96" y="3327" width="21" height="84" as="geometry"/>
                </mxCell>
                <mxCell id="O4T9YlxyuEKv6EiDyExf-34" value="" style="endArrow=classic;html=1;fontSize=18;strokeWidth=2;opacity=50;fillColor=#0050ef;strokeColor=#001DBC;" parent="rzaHR70I7FCayc-PlcB1-1" edge="1">
                    <mxGeometry width="50" height="50" relative="1" as="geometry">
                        <mxPoint x="-825" y="3021" as="sourcePoint"/>
                        <mxPoint x="-744" y="2598" as="targetPoint"/>
                        <Array as="points">
                            <mxPoint x="-825" y="2598"/>
                        </Array>
                    </mxGeometry>
                </mxCell>
                <mxCell id="O4T9YlxyuEKv6EiDyExf-35" value="" style="endArrow=classic;html=1;fontSize=18;strokeWidth=2;opacity=50;fillColor=#0050ef;strokeColor=#001DBC;" parent="rzaHR70I7FCayc-PlcB1-1" edge="1">
                    <mxGeometry width="50" height="50" relative="1" as="geometry">
                        <mxPoint x="-621" y="3228" as="sourcePoint"/>
                        <mxPoint x="-393" y="3228" as="targetPoint"/>
                    </mxGeometry>
                </mxCell>
                <mxCell id="kcRQfIb6KLuYzMda1y29-0" value="" style="shape=image;imageAspect=0;aspect=fixed;verticalLabelPosition=bottom;verticalAlign=top;dashed=1;fontSize=18;strokeColor=#6A00FF;strokeWidth=2;fillColor=none;image=data:image/png,iVBORw0KGgoAAAANSUhEUgAAAgAAAAIACAYAAAD0eNT6AAAABHNCSVQICAgIfAhkiAAAAAlwSFlzAAALEwAACxMBAJqcGAAAIABJREFUeJzsnXmYHFXV/7/nVlUvSWayJ5AQSIRABMIWDEvAyCZr1slIBBEQiIAiioiiKKjg7uvy8/V1V8QFjAEFUXF9EQUFURTwlV0FssxM9mVmurvq/P6oqp7unqrqqq6tl/t5nnm6+9atW7emu+4595xzzyVIJJKmpn8putRsdkrJEJMJxiRSaBKYJhB4gkE0HszdIOom5nEAjWPCWIDzBMozkCPmHAMZItIY0AAoABQCCAAYYAA6AJ2AIjMXCSgw0RABQwweBGiQGLsB3sVEu8C8A0Q7BPN2Bm0D8TbWeQtDbFGFsbk0PDww9W7sTPP/JpFIvKG0OyCRdDIDvfmZAGYCmMnADEHYG8DeDJ5OjOkMmi6AqSDkCADRyENbfiWqepBHykdfr94Dz05lPPoYA2DrAFeVWZ8ZQwbQT+BNTNhEoE0ANhiMDQSsB/AygJenrB18uU6XJBJJTEgFQCKJEe6F0q9nXiGI5pBQZgM8mwn7AdgXwL4EzBKmDAfB+rMEeqXAt4V5pQKAyvKa69Z7sGuVA3aS/JXHXT5XnscVn21FoPwKU2HginqG+fIigP8A+A8x/g3Qv9jQ/2UwvzBVKTxPa6HXuRWJRNIgUgGQSCKAe6FsRuYgFspcYfBcJswlpv1BOICA/USNgBewhDm5CHo4z+TLb7s0OD6+cT/RjooCAzuLow5XWg4qFQaufTWVgSoFwTCP/xuMZ5n4OWI8Ywh6hgz9mckoPCUVA4kkPFIBkEgCsqV34njG4MEMPhgQrwTxPAIdJIADbEEurFm8sIS8qBH0wGiBj67MyEV8P5kBH2GDgZJRlrDlJgQBqjBfA1HHdOBUbWdhlEJgV7E/G7ZiUP7MlZaDZxn8FJj+CRj/R6B/EPL/mLR26/aAnZdIOhqpAEgkHvAaaANbxxxG0OcD4lCADxWEQwk0U1QIezdB7yjkPZ86l4MGA0UD0A3fMjdxCIAiAM1LkfDoPMNROXBTDGylwFQS+GWD8QRATwDGEwzl8SkT9/ydvoJidDcokbQXUgGQSCrYuHrsdM3gI8DGEQw6QgCHE+GVRICAJewFyiZ8USPoq2byjk+XQ6HBQFEHdI5euId9wuPoj0KAprgoCQ4XtIss5aBSMSgrBAAMw1QKDLsO4/8M4G8EfgwkHisKemyv23dviviOJJKWRSoAko6mf3V+BnQcLYCjGLxAAEcR0QxBIzP7yj9HYT/qKXJ4rJiBQgNCvtWf0KD3qhCQUZyXMNQ2VmExqFUKqv/YUhR4vQH8hUCPGsBfoODPU28fXN/gnUkkLU+rDy8SSSC2Lhs/Qc8NLQTTQgJeRYyjhaAZtbP7skkfAYU9ARjWTT97PeEXxdOX9hMchYXAz/9JFUBWcajrrRTY1gDDwUpgGLyeCX9m4BEQP6wM5R6e+OPt2yK4I4mkJUh7+JBIYmfr6jFHss7HMnAsEY4h4CBBgFIj8Kv894KAcVpNS7WPC5vC3mtWH/QJa/cnMqjC4PV/VchUCpy+l0p2FcEGV8URVCoEum0hAJ5ixp8I+CMp9MeJt+/5a8DeSiQtRbsPN5IOZOB8dFMpswhMi8B0PAHHCYGcQgRBBKXWpE8A1QvOqzez9/skhXniXM9N6zF2kc5hrAJ+z3X7DlwtBdXn8s7CKIVAt9wFOjMMA0MMPATiB0H8B1YLf5jyXewIfD8SSRMjFQBJW7D53NwsGDiBCScCOEEB5psz/GqBX2XS7854tOgxu/fz1AR5svzEEAQl6ic7kmBAB3N9lNd3+p5crQQV7Kh2GVQpBIapEOjA4wB+T4wHIPD7yXcMvRig9xJJUyIVAEnLsu3c7P4lA4uJ8GqAXq0Q5ggQlFqhX0/gEwAwMNSgwA+sEAR47Fr9CQ2kOLDj24bbdlMIcpZC4Ha+pRBUBhLqDOgGwwBDZ7wA8O+Y8TtV4P4Jdww/56O3EknT0erDi6TD2NqbnaMDJxHhNcR4jRA0q9K0r1Qs0SNNAHnVuSE3k35YYR9E0Ef19DWZByD6dgIoBkGO+3EZDJbARaNsHdCNWlcBv8iE/2XG/yrAbyeuHX6h3t1IJM2CVAAkTc/G1WOnZ3T9FCacAsbJisBshcyZvkCN0Pea5ZcMK5kOV5e74VvYe1Rs5Alr16eyEYXB8xz2126deIAyCplJjFThHt6wo1ClDJivlpvAwL9A+A0xfl1QlF/LnAOSZqddhxpJi8O9yGxF5jQGncqgU1WBQyvN+76Ffu0sv1GBH7Wwb4clgDZJLAX0XdeHUuDnmA/rQK0yUOkmKBl4gsC/IvCvJqLwS1qLglevJZI0aJYhRCIBAPSvzh9NOr8WxK9VQIvtmb4voW//modLQInrC/0wAj/qQMAw57QSkVsB6tUJoRBUKQMEZFXX+m7KgBlAyPeD6Res0C+m3j745zp3IpEkRrsPN5IWYOeKsdOGFf0MEJ9OwBkqiUlloV8ZyBdW6Dcq8GOP+m+AZntym8oK4FWnQYUgoDJQFTxoKQMlNrYw8HMw3ZfVlZ933bW7z8ddSCSx0WzDiKSD2NyTOx6CzwRwpkK0QBGiLPRtwU+E6l3yAGehH3SWH0bgxzX7D3Neq9CoohDHqoDKwnpWAKfyesqAlWugShFgQDcM6MyPAvgZDPrZ5HVDD9bpuUQSC+0+3EiajC29GA/kzjbAZxNwlkpigiIIaoWJXxBGL9krC/0Kn35DQj+gwG/G2X8cbYUhqtUAQdsKqxS4KQQNKwNWzIBTXdsqANNFUBqxCmxj4KcCdC8wdO+ktZBbGksSo1mGEEmbM9CbOZggljD4HAV0giIIao2Z39XEXzTM3fIMBBP6brP8SCL/I6oX1XmhLxSlFPcgTguAn3qBFAIP64CXMiBg7naoOa8msF0EtkWgZLAZLwD+PYF+wjDumbK28I86dyKRhEYqAJJY6X9d9iToWCqIligC+6uWmV+1Z/sCLiZ+KzFPiSvK4FDPqSzALD9pc3/DT1zESw2jwE80fqRtNlC3UYUgiHXAq0z1SDy0s2BuTgTTqGUqAwZ0A88ZzPdAwd1TfzD82zp3IJE0jFQAJJHDa6Bt3ppfBjaWCaJlClGXKgiq8Jjt27/Egm7O+N1M/H6Ffujlfg0eD1rPqXK7PpVuM+yGzm2wXtjlgZUFQZQBgmkRyDi7CCqtAiXDsgow7zSYfwwSP548cfDH9BUUPXookQSmXYcaSQps6+2eVMLwCoBWKMDZtplf9Yrkr53txyH041IGAtVLSciHvU5CnoGGlIMolIIwywMrC4IoAx5WgcoVBKUq9wDuBfguFdm7JqzdscWj1xKJb6QCIAnNwIr8PhD6SghaqYAWq4owg/ps/36tmd/+1Xn59uMS+rEH/JHj21C06lMalfLArh8au2YkQt+t3KcyUBsrUFvHcg+U4wQYKOmGmVPA4DthKHdOuWvwJY87kUjq0qpDi6QJ2HZudv+iTj2CuEchWqgIU/C7+vdrI/mdcFUEfAjWOIS+5/EIhH2nP4GRBAV6NBKHS8BXuUsAodu5bisIauIESiPLCB82mNZpCq+TmxFJGqXThx9JA2xfmZlbJNELwatUoiNVS/Arlo/f1cw/aO22F+VsP0plwPN4CGEfx1PWbE9uHK6CoG36UQoiDQp0KQ9jFVAIyLu7B8w8ArZ7wECJ+a8w6IcaG2vH31l4xqWXEokjzTaMSJqYbb3ZA0oGvQ6Ce1WiI9TKGb+b4NcNc8bvx8yfhtCvJ/ATifCPuI1mJgpFoaGVAg0oBEkpA27ugaxiatUucQKlakXgMRi0VhX8gwlrh5916aFEUkW7DzeSCNiyMrefLnCuAJ+rCDqqSvALgLz8+7WDm5/ZfpxCPyqBL03+8ZBYnoCACkHkyoBPqwDBNU6ALfdApSKgG/wXA3SHYuCOSXcO/duldxIJADkcSTzYuHrsdFUvriam1YqgY/0J/oplfJVEOdtPQ+hLs79/ms4dUK9OjMpAVFYBexmhNjpOwEUR+CMT315StNvltsQSN1plSJEkyMvnYEwulz0PRK8XwMmqIqDVE/z2+v1a6gn+RIV+TAJfmv6Dk5orwE8dh8qJKAM+FAHANZ9ApSJQtFYNGMBvwPz9oaHh7838Cfa49FbSoXTasCOpw+ZV+V6GcZ5CtNxezqcK0xWZuOBPUujHbfoPe24nEUY5iCI3QNXxGJSBBBQBvdIioBvQmX9EEN+b/MPBtS69lHQgckiSAAD6e7KnAHS+ILxBU0jTKjL3VQX3VZr6CxEI/lgsAJSuwI/zqWr2JzYO83+YtiNVCEIqA35XAlR+8KMIZFxcA9aqgZIBFA1GUeeiwfgOwN+dum741y49l3QQzT6cSGJmS6823zDEBULgDYoQe2v2znwEiJwysjY5SHBfVLP9NIR+Wr7+TnsSo1IUYo0N8DoesTIQ1CrgN1hwWIcxpJeTCRUNhm4YGwwD3xHCuG3S2uLjLr2WdACdNuxILHa8ftyUYqn0RgZfoApxhEbmjF+lmgQ+9i+kZJjm/rQEf1xCP0lfv3za/BFWOYgyNiBKZSApRSCjmH67yuN2fIBtEWBGyTAeI9Btmqp+u/v7uwYcrixpc+SQ1IFs7sm9jgkXKoSzNMUlst/+ZRiGmac/jOCP1N9fx6cf5Sy/1Zb6UUIX5jjt/F7Xjfm8MNYBt5iByOICaj/7UARyiqXNjxyvXTFQ1A3ojJ8S49bJ64Z+4NJbSZsiFYAOYqAnfwyILxKEC1VB+bKf3y3Ab7Bk7kpSSRjB3/BsP6TQb1l/f5s8nnEqDKnHBXiV+1AGGrEKBFEEBAF5ddSxykDBosEoGTxoMG4F07emrBv8k0OvJG1Im4wwEi929I6bOozSRYJxsarQK1UiaJbgF04BfsMlM2Vv5WCSluD3+oU2eixInSjOcW1LPn4AolUQ4lIIvOrUPZayIkAwg3qyoxUBY4epCBQNoMSMks7/ZxC+mYX6re61u/odeiVpI+QI1OYM9OZXgPliRdASTViCn0zhP8rP75TEJ27BH+VsP2qhH1mAn3zMGiIqxSDKmIB6dcJaBeJWBJySCVnWAJ2tGF9zC+J7QPTNKWsH73LokaRNkCNTm9K/MjOPBF1CwCWaIiY6mvu9/PxRCv6ws/2khH7oIL8WeJzqdTEl934gwioGScQEeB1r1CoQpSLgEh9Q6RYo6sZWBr7OBn996p2Ff7rcjaSFaYERSxKUgVXZiwFcoipikVbP3F/r53cU3i6z8rQEfzMI/aSFfas9qUkrEo0qBYkGCDqVx6kIsHddl/iASrdAkRkl3fgDgK9P+eHwNx16J2lhWm1YkXjQ3ztmAbFxKREuyyhCsdP3Opr7C7qp6tsPfqKC38PMH2a2H5ffH4hf4Hfakxi3ghCnQhBm6aCngGef9YJ+9lAECOYgUZtRsNIawEBBN3RmfJVJfG3q2j2POvRO0oJ02rDTlvCNEANPZi8TwBpFEUdlrGQ+quJk7mczyK8yiZ9fc38Ugj/q2X5swX4xPBryafNHHMpBIwpBnMqAX6tAWEXAr1tAwAwSFFR1jHcWUNLNJYMFg6Hrxl8M4CtTDhn+Kn0QDqlAJa2EHJJanP6e/NFEvEYIukwTBM9Z/3DJfJJt4hL8cZv54xD6UQp8+VTFQ5SKQVCFIPbgQKfygAGDUSgCqsNqgRprQNFgGAZ/lZm+MnXd4J9d7kDSAsihqoXZvCp7KQiXK0IsyIgRX/+oWX/JSt9r6+ujBLbPAL+oBH87CX35BKVLFEpBMysDYRUBz2Mu7QqYKwVU5yDBomFZAwzjUTC+NPmHw19z6LmkBZDDVwuyuUc7hEm5ggRdnhFk+voVc3nfqFm/V5CfXz9/Mwv+IL9gKfDbn6QVgqjjAdzKY1MEvNwCDkGCO60NhnQrNsBgnQ3+ErH+P5PXFZ906LmkiZHDWYvRtyq3WoCvVBVxoh3h7+jrr13TH4W5v1Effxp+/3LdkD/xZnxCmrFPQHMuIQzbpySUgTCKQL0YgbBuAYJj7gA7NqBipcADBuiL0344dLvzzUiakWYdSiQ19K/Oz0DRuJIIV2YUMTEjqHrWX/lNDlmZ/GyqhHgcfv4Agj+J2X4YoZ/2E5H29eMmbSUhzPX9KgOxrRKoLfNQBBq1DrBLmwoBObX6WIU1oGAwCrqxlRlfhCa+OPX2wfUOvZY0Ge0+3LQF/T3ZUwC8RVXECk0QMq6z/pqtemM39ycg+OMW+mk8AfKpcyYN5aDRa0ahDKStCAR1CxActxy2rQEFe18B3bgLwH9PXTf8a4ceS5oIORQ1Of092bcIQW9VBc2zA/3Ku/a5zfobMfcnLfijmO03u9CXT1c0JKUYxKkMROkeiFMR8OMWcLAG2LsM2gGCJYP/aRj8hanrhv/bobeSJqFthii+cPwE7Nk+nHY/omIXtAOGoVwuQFdogiijmCt0RFYx03jaGAYwbEX4Owp08i/oo/TxxxXpDzQm+JP4pbfN09TkJKEQNHKNOK0CUSkCtWV1FQN2LhcAshXphAFgSIcxrJs5A3SgaDAb4P/JQv/SOBSfdehJ6zJmfJZu3b4t7W6ERa1fpVXYPkRrMZR2L6Jgc0/mTIPEVSrRmRlByKim0j1q1l8omaG4gD9zf9SR/UkK/mYT+lLYp4fT/z5qpaDyGn7brvyNeikDdjWnKm7HnMrdyphGCl3ruLRRe4ztcYSryw0AgzqgGUDGEiM5BSKrQNtZgCBAlIgKBq4cYmVOgen/TV5X+JnDHbckfOH2tKNZIkHUr9Ii7GmPIXmgN/tWCPG5jKAzcwohq5oz/2rhz6bJv8hmmV1efk8u5RWf4XKs9jjIHNj8nOOmEHgpBXVdARRM+BP8tRsUQnxtS8IT5/fTSLt+freNPBt+nj2yru/m+nM7x+lYvTGlaI1FFQoHdWXK+YRyCiEj6EwI8bmB3uxbXe629WgTedNGFoDWZktvbl/d4KsJ4uqMIKVs8u+umfVXLu8LM+tvxNyf1Iw/6Gw/rkexLR7xDqWRGXwc7fqxCsRlEbDHBNuUX++cRq0BOgN7SiPLBQlAdwYKA7SjACEIBZ3mFgz+bH9Pdo4i6HOT1g79x+FuJQnTPhaAFqavJ3eizvwZVYhrcoKUrBVoO0r4D5XMUFsg2KzfS9sfddxhxl/3HB/l9Y4Bjc/2o0LO8tuTuL7XqK0CUVoERtWpqFjvnLrjiMNYA5hj01Cpqh3RnYEmzHCBnCBFFeIanfkzfT25E51vVJIkUgFImf5VufMF+DMZIVbaJn9NAFQp/JmBwaKpaTvO+smh3OW952DhIvj9WgKSEPxRD+RS4Hceaf+G4lIE6tWjmor1zvF87zLu6NZYxRUuAVsJKLsExEoB/kz/qtz5DnciSRDpAkgJXgNtYHPuGkG4RhNiWkaxlvhZ5rMyTib/qtl6RaP1Zvmun33M+IOU+TkGBJ/tR4UU9hKbyt9CFK6CstLup65VOSrXgJ8yW3jXcws4BQk6vieAuLrcgJmCvDKDYHcGyo4CSAGICASxoMj8X/09uX2mTB76L/oKig53KYkZaQFIga3nZmcPbM59WhH0sawQ03IqIaNYJv9K4e9m8o9s1m/NRHyZEH2U+TpG8D3jj3KmJmf6knqk9Xur90wEfdb8WO3Iuq59IEprgP1a6xLozkB0Z5BRgJxKyAoxTRH0sYHNuU9vPTc72+n2JPEiFYCEGViRP7ak41OqoKuyworyr03sQzyS2MfxYUP1wxbECuBmPXBrK8is34/g94MU+pK0iUMZ8FU3hCJQr76rYkB1jru8rxX4TpMS3RrLqMIl0JWBarkEsoKgCrqqpONTAyvyx7rcnSQmpAKQIP0r88tZMT6lCdGTrVziV+nv1w1gd43wLz9s5PLgYXR5kFm/nxmDWz2vciBdwS+RREGrKAJ+FXZHxcCnNcBtwuE1RulsjWkj1kzqHlkqmFUImhA9rBif6l+ZX+5wB5KYkApAQvT3ZteQwCcyQizKKYSsvZFPpcm/oANDuvm+SsjXmNgqj3u9rzi1/KGeoHdTBppd8MvZviRuovqNpaEI+FHyw1gDRrVRMdbYr0O6OcbZdGegkLVCwAwOXEQCn+jvza5xuCtJDMggwJjhxVD7p+SuI+C6rELjHdf3E8ygGTeTfyOCv6rMp+B3Pd9nORBM6EeBFPiSNLB/d2ECByt/u/Xa8QoYdOuLU3ltmeNnqg4S9JM3wPE9YVTOgKIBGAzkVbO8OwPBgLajACKC0DF32KBP9PXkpkwdGPoE3Y+KIAJJ1EgLQIxsXD12+sCU7MdVQbfkhBjvuL7fSfjXmtNQUV7vfdX5Dm241a8l6Iwf8Cf85Wxf0k4kbRVoZPmgn7I4rQGV5xOspYKlqrLqfAFivCroloEp2Y9vXD12ukPvJREhFYCY6F+ZmacU9Y8pQlxTFexXtb7fAPYUTY24ylxWY0Irl9d5X/XZMh3W1vX67FbmdJ2qY1Rf+Cc5SEokaZDUb9xPHgE/7dYbD8i6VqUi4HadekpArUvAYHPs45q4gIrgQEWIa5Si/rH+lZl5TrcpCY9UAGJgoCd/DAv6qCroopxibuZTDvazKenmZhqjzGs1D1ut9uz0ftTnBmb9XoLfbayRgl8iGU0zKAJBnucw1gA/45PbuMQwx8DSSFyAHRyYsZIGqYIuYkEfHejJH+NwN5KQSAUgYgZ6s6eB8NGMEMvt9f0qYSTYj2Du4jdsVJ/oZi5DnfdVn0PM+msJK/jd2g2CFPySViYqRaBunQYVAa96UVsDyqc6TE6GDXNMtMttJcDKF5ARYjkIHx3ozZ7mcCeSEEgFIEIGevIrwfQRTeCkrJXZryrSn2D6vooR+/vtN1HO+t1Iws8vBb+knUjqeYjKLVD3c4NKQOX5tROdYk1cgLVCwIwLIGgCJ4HpIwM9+ZUOdyJpEKkARER/b+4CEG7RBB2dVQgZASiVmf1s4V8b7Ge/8dSaMfphrfrcJLN+KfglEneSeD6SsgZUKgFudWvfu51vv9YGB3ZnoHRnkCkrAXQ0CLf09+YucL5BSVCkAhAB/auyb4ZBt2QE5uVUK6f/+JpIfz/Bfp4PjNNn62H3VdfhGl71yuVS8EskkdIMioCfNuvN8IO6BEaNbw7jnx0cWFEmxpsrBEx3AObBoFv6V2Xf7HxzkiBIBSAkfb2Zqwl0c1bBrGyl8LdhO9q14iQ3MxjqvK/6nNCs3wsp+CWSxklKEQhyblhrgFtbngpBzVjGsMbMkUHTVgKyKiGrYBaBbu7rzVztcAeSAEgFIASbVuWuU6DcnFXEFHvmXxXpz4Zp0nIT/lVlNe89H7wmmfU3ihT8EskIUSgCnscTsAZUKgFu45bnmOegBAyWRpYJAuVthXMqIauIKQqUmzetyl3ncAcSn0gFoEH6VuVuUIg+nBE0LqtUrPG3KRnmEpdKvIS/24NS9dl6kIMK/1pcFQKfgr/RwUoKfonEnbifLbfnO4g1wO0zWe3XswZ4KgQ0+rxB3RxL7Wp2rgAFyAgapxB9uG9V7gaH3kt8IFMBB4R7ofQZ2fcLog9kBdEo4U8w810XK5b51Zu5+xLoAQV/kDIg/hm/RCLxh/28NJJm2M+5RO4phZ3SCQdNJczWSU7ncs37UWWE8s6BdnlBN/ubUcxmuzNQdxTskzLDBj60qSerThPDH6a1qJl1SbyQFoAA8BpofUb2JlWIG3Nuwn9YN/fBtnES4H7MYm7netZzaN+rDIjX3C9n/BJJ44S1CHgeD2ANCOsS8KxX077buQXDHFvtQxWWgJwgUoW4sc/I3sRroI2+KYkbUgHwCa+B1rcle5MqxA1ZxUrwM0r4l8yZ/6gfc43wh4/35foRmfydiNvcL5FIwhO3W8DvNRtyCTj0o957t3GzaJhjbI0SkFHMZYKqEDf0bZFKQBCkAuCDsvAn8d6stZXvKOE/5JDgp1aTraf9VtVx0NDdlASn4251ADnrl0hajWayBnjVGXW8ooLrJMfhfDfLaZHNsdbBEpBVCCqJ90olwD8yBqAO3Aulb3P2AyqJ92YFISsABQB1ZUZ8WHsqEvyU/VoVP1xHX1dNWWW5/aP39LPVnAeHMic/IFEd/6BDW35o9DyJRBKcRp8zz/PIOTbA7bzaMq/PXDEgudVjh7LKc+2yIgNGqbylMHVloOwoICusurp4b9/mrMG9wzfJmABvpAWgDn1G9v0qWWZ/K7Uv1c3u52K2d9N6qz6nbPJvBDnjl0iSJU5rgN/zgroEnCwBlZ89rQI1loCarIFkpQ62swaqJG7oM7Lvd74ZiY20AHjQtzJ3gyD6QMYS/qPM/oMl5+x+niYteDwoIYW/FPwSSXoQAUIDSADZccCEGUD3dHBuPGj3ZmDHJmD7eqA4aM60jaL7jNvX9azXqK119nhR2zc/lkavz7ZlNOwKAfuYYSkBtiWgYnUAg8C6+EDfylxp2p1DN7vcaccjFQAXNq3MXUeg92cVoqyX8LdpRPhXva+RpkEUAbcyp3b9nlcPKfwlnQ4pwLjJwNxXg49aCUyZAxo/HRAqoGQAVQOEaj4qzADrQKlg/hkl8PZNQN8zoIduA176G7B7c1XiG//9QONLBqNYLujkoqz9XHXMardevXpKAOCpBABEQwbev2llrjD9zqFPeNxpx9I2wzj3Ik9rMRhFW30rM1cLKDdnNRrXtsJfCn6JJDhqFpi0HzBnIfhVq0EHnhhJswwAT94HevRO4PmHgG0vm37uhhpqtANuxyKKCxh1jOvXc40P4OoyQWUlAAB4RwElw9xpeLjIuwzoN0y7s/A55xsJTpTyJk2kBaAGa2OfGzIqEhD+Mfn745j1S8Ev6WTyE8CHLwOOfyMw++gqd3UUEAAccjpwyOlgvQh6+n7wI2tBj90FlIYDNoTG3AKNuAT8JA5ytQzQiDB3mv1Xvg9hCWAV44ZL4ob+VdmhqT8c/rLLXXYkbTOsR6GRbVqZu0AQ3ZJVMMvag3r0Uj+9SYR/kiZM7WTbAAAgAElEQVT/tvmVSCQB0fLA/LPASz4Amjw78cvzvx8F/eQW4OnfBncPNGINqHeOX2tAoBUCFQVhLQEKAblqS0DRAIZ1xrCOFw3m902/c+g255vwT7tYANpmaA/7hQz05FcCfIsmaF5OhSX8raWkBDMLValCBfUS9H5M/ZEKf3Ip9zrHJ23zC5FIAiBU4KCTwUtuBO0zP92+MIOfeQB0903Afx5FIMkei0vApVJoJcB+X8c14FpmfVDJTAxQVgKKKBpWqhaD/wnQ+6asG7wTIWgXBUAuAwQwsCJ7msHG9ZqgeVnV/P0EEv6EeIS/k53RSfjXs0c2OuuXwl/SiXTvDb7qHuCKH6Yv/AGACHTgq4FrfwO+5DtA114BzkX0Vr9ymx6xS07XrjfWld/XGSudxtvK/pS4Jm2wZuoEKqAJmmewcf3Aiuxpo2+s8+h4BWCgJ3+MIej6jEJHZ1VAI0CMrxD+BaO+8Ee99z6Ef72HxbGMnOt5nuMDKfglHQkBB50EfvfvQfsvSrszjtDhS8DX/AqYeXjAExu5mJ/jdZSA2jKvca6RMXPUa4USUBhJyy7Ga9AsJSCj0NGGoOsHevLHOPS2o+hoBaB/ZWaeAeM9GuGkrEKm8M8r5kGCmXu6vKufT+E/6gce4Ifs9tmxrI7wb0Tzl7N+SadCArz4cuDS74G6pqbdG09o8r7ANb8ADlsS8EREPyY0ogTUfvarBNQbd2v7Y4/fthKQV0wlwBzrTzJgvKd/ZWaeQ287ho5VADYuGTudSbxbJVqeVc2APyFgppIimMF+BQ/hX4nbsSiE/6gHkKr744Sc9Usk/hEa+NzPgVZ+DMiOTbs3/tDywKXfBb/2XQApwc6NwyVQO1A5KQ5hlYDKY3XHYetDwRjJ1JoREMKM78qqBJVoOZN498YlY6c7tNYRdKQCwIuhUqZ0nUq4qJziVwDo0swfisHAkJ1C2kX4e1kDgOiEv1OBFP4SSTRkxoKvWAc6/sLRwqYFoHPeD37jVwE1F/DERi7m51gda0AcSoDruGx9GNJHMrZ2aVBEZcpgXESZ0nW8uDOXxHekAtA/JXedSnRNxtrWt0r4A80r/H2Z4wIgTf6STkbJgC++FXTQa9LuSTgWrAKv/hxAAYfzRl0CddtrUiXA/mgrAQqQUQgq0TX9U3LXoQPpOAWgf2V2DTGuy9TO/G32lFC1I5/1toyXCQqIV/i7EfWDLJG0OySAnk+CDnlt2j0JDQGgha8Hn3RV4w0EvmC99hJQAmrreCkBDHNst6mwBGQUAjGu61+ZXeN8gfaloxSAjSvzy0F0bVal8RkBqApAXRUR/4MNCH+3H2iSwj8oUvhLOp1Xvxk44eK0exEptPzDwCvPaPDkiM9JQgnwOzZXKgGVOwh2aVAVyx2g0ngQXbtxZX650+20Kx2jAAysyB+rkHGtpmBuRrHW+lcJfx0wrA/tKvylyV8iAQ46Bbz0g+F24mtS+I3/E3yJoE0cLoFmUwIMmGN9pRJApjtAUzBXIePagRX5Y51upx3pCAVgw7LsbEMY16pEi7KCRq/1t4NE3ARuuwh/iaTTmTgLfOHXQFrO3aTcwtDYyeA3fRsYF2IpY7spAbV9sYO8rTrlHAGCoBItMoRx7YZl2dkOLbQdba8A8BpoikrXqEQ9Vcv9APMHYC8TqRW4tT+kxIQ/je5LLVL4SyTBIQV4w5dA4yan3ZNYoalzwMs+HLKRCOuXlQCXsbLe57BKwKhjNLLM21YCqpcH9igqXcNrUBEc1p60vQLQtzl3jUK4KmNt7jNquV/JgKuGmorwd6jjdX49pPCXSEzmLgbmRrN9b9NzxNLGXQE2kSsBNZXSUgLsgpIxanmgZgUFKoSr+jbnrnG8lzairRWA/lW58wX4Gk04rPUHzHzRtVtVSuEvkbQfigac8a60e5EYlB0HPvv9CD0ItKMSYL8yTBlgl1WsDNAEQYCv6V+VO9/pVtqFtlUA+npyJ8Lgd2QUMS2rVET821/+YMk96M/Vf2S/T1j4k8exKOpLJO3OvNPAByxC49vjtR50yKlAFHsaRDn+JK0E1JZVvZIVFFgql9krA7IKkFHENBj8jr6eXNuajdpSAdjSm9sXzG9XBS3IEKACoHGa+ezb60F1AGz9Gmq3mWSvMhp93Ot93c/kXMft3Hp/QevLP/nX7n9KFvz6z1ljfwdpxiSAs94LiEw0/0dEVL9c7jKW1vvs+t6hPae6Va9kygI7/wubskIFkCFAFbQAzG/f0pvb1+E/3PK0pQJQLPHVKtHKjHAI+huus9wPNWVpz/yD0EFjm0TiFz7uQlB3h6Z7n3sCMO/k6NqLakxK0hJQd3y3LAEVWwjbQYEZc2XAymKJr3a8jxan7RSATcuzbxWgqx3T/BbtrX1dhL+n/18Kf4mk5SABLPlA2r1Il+MvQuANg7xoZSXAdbwnUzbYuwfWpAsWoKs3Lc++1eVOWpa2UgD6lmfOFERvy6qkjIr4Z1hb+5LzD9JPHEBtuRT+EklzM2k/QMuk3YtU4bknAGMnRdtosysBTvXrWgTIlBHWHLFyZUBWJUUQva1veeZMl6u0JG2jAGyFdgALcZWmWpn+BKqD/oZLI34fG99C30FgS+EvkTQ9fMKbQEF3ymszKN8dTTDgqIYjqh+HEuB334DaagxTVljHqEuDalkCNBVzWYir+lZm5jo33nq0jQJQ0pXLNYEzTZ8NIETFNzuom4EeTqZ/L9MQIIW/RNKyELDvUWl3oingA2MKZG8VJcCPq9e2AugwZYaFsGSKFVN2pmGItnEFtIUCsGlF9i2CcIUd9KcIAONU8wsddkjzW9cUZL93qOD1g5fCXyJpHvaaB9pPKgAAgAU9QH5CPG2nqQTUO9bw8kAeCQocp44kCRIEReCq/lL+zR49aRlaXgHY2JM9hUBv1QSRY6a/2jS/fn4EQP0fzqj6HseiFP4UsL5E0qHwnIVAdmza3WgKaOwkYJ/DYrwAgo9jnuU+lQBfY7NDW3XlAJmywzlTIAniyzf2ZE9xuXrL0NIKQP/S/AzBeIumYF5GOPn9dXOdp2/Nz35fx3Tk9d7ps1uZV3nYuhJJR0OgOAVeC8IHvSb+i0SqBHiUBR2X/a4MqKzDVJUpsBwPYG4lf5BgvKV/aX6Gy120BC2tABiKcaUiaEVGEDQFqHT7j2zvW4Ef/79Tfb/vHdtyUUC8rhu2rkTS6agZQJr/q9lrXjLXiUwJIIcyl89+x+fa8nqywN4+2EIQoCmARgRF0ApDMa50uUJL0LIKwIYVudVEuLKc7Mcy0/j2+7v+MBzM9VL4SySthZYHOjX5jxtRLwX0ohmVgKArA5ziAbo0Uwmw4gGIcOWGFbnVLnfQ9LSkArChRztEgK/MKDRREzV5/r38/vVMS0Ej/t3asQuk8JdI0iEzNlmB1wpMng1kxiR3vaSUALdj9ZQA367h6ngAe78AKx5gogBfuaFHO8SjV01LSyoApCtXaAqdaM/+q/z+hRq/v58vGXDWDoP6+SsPSuEvkaRHZkyywq4FoOwYQCS8xX1cSoDXefUmbY0EBTKZssX6TF1a2QqgKXQi6coV7h1sXlpOAdi4InupELhcqzT92wzZ6/0d8LIG+In4d2rL8bOH8A+CFP4SSeMoato9aD4UDdBSSIoU2XjoMU4HHbeDBgUCpmwZqokHsLcOFrh844rspT560VS01FPS35M/2mDj8qxCSqZ2yV/RqG/6r/cjCe33ryP8/T4IUvhLQkPmIEcEQABCAfLjzeA4NWv6xzN5UygIDdCyYC1vCgihAKUCqLAHKBWA0jCgF8z3OzYCQzvNOsO7zfdsAGxtpcaVW6+lSEYu/xuFqgHj9wJ2bkr+2gR/PwuvevZM3K5QW7fys5/3Xtd3fLVcAUXDlPxdGpSdRWQYMBRShnS+vL8n/9jUdYN/9nGnTUHLKAB8I0Tf33mNptACzWnJX6kmz38cfv96wt8LKfwlkUKmEFaz5l+uC5g2F8h1gfc5DJi2PzBuMjBmkin4x04EsmMj0U9tGAD2bAf2bDX/dm0GBreD1j8JbHzKVA76nzNfi0OAPmwpCAkg1/+PhhQg25Xi9RFeCaitEEYJIBr5PTpd000JKFkKgB0PsKMIjQGdaUFR5zV8I/5CHxy1Bq0paRkFYNPfs5epApdVLfmzR6whHTB8zr4b9fv7MTlF4feXSGoRqinkx00BJu0H3vdI0OT9gBmvBE+ZDYyZWPZ3Vz4WcUMAMGa8+YfZIwcW9JTfMgAMbgd29oGefxjYvQV48W/AwAvAtvWm4lAaMq0IUbJna7TttQNGCdi9Oe1e+MNNCfAS1E6f683+nZSAelYIg0yZk1NMPZzMpYEGEwzmyzb9PfsoMPzluvfYBLSEAtC/fMwCg/Q1tt9fIZimfwAoVJj+bfy4AOoFggSaKnkoH0FGY6koSABg7BRg/F7gmfOBKXNABxwHjJ9hmm9zXb5/ps0AAaYFIj/etFBUsmcrsH0TsPGf4H89Avr3X4HtG4BtL5luhzCUiuHOb0dKBWBHCub/SvxaAbzq1roC6rXrOPuvLPNQAtyUAp1N2ZMZcQVoAtCZoDOv6V8+5s9Tf7TnUZ93mhotoQAYZFyqCTqqIdN/EL9/Q3Wk8JeEgcw163NeBZ51JDD3RNC+RwC5cSAtn3bn4mXMRPNv73mgI5ebM9TiEHjHJuCvPwL95MONWwaMUrR9bQfYiN7S0ghxKQFBrxE2HqBkKQCjXQFHFdm4FIBUAMKyaUX2YiJcpjma/kvOS/6S9PtL4S8JAll++8n7gY/uBWa/Cph1OGjMBPkzECqQHQeaOg587PnATz8C6A0KrOHdwPAuIDsu2j62MLx7K6g4mHY3TOJQAtKIBxgqATm1yhWgM6Fk8GWbVmQfnn7X8Dd93mUqNLUC0L8yM48Zl2QUmFH/lab/YY8lfzax+v2l8Jf4RCjAuGnAzPngxWuA/RYA4ybLr94LNWcqS2jQlF/YbQYlSgVghK0vhnetREmzKAHlugHjAQBTBg3rQFYZWRUgAF2BUijhkv6VmYem3ln4p697TIGmVgB0gy7RVFqUETTa9O93yV8sfv+Ihm4pAdoYAmYcAkw/EDjm9cABi8zZbdrdahXGTDCXJJaGGju/OAhsXw9M3i/afrUyu5owADCIEuC3oaTiAWzlQx+pb7sCMkzQFSwqlnAJgHdFcYdx0LQKwMal+RVCGJdkyEr4Yx9gVEf9ewVquBHUP+RlEmqk7SD1JC0EAd3TwcdfZJr1Dz4lncQr7YLQGn9GSgXw84+AXnFcpF1qafqea94xx2+/3Oo5lXOD74OWGWRuGJRTAJiyShOAbhB0wZdsXJp/cK+7B+9y6XmqNKUCsL533FQqli7WyMz1X2X6LzpE/dfiNftvxO9f23hY07+cBrYRVhDf/seBl90ImnkoSDTlY9V6TNsf2NXf+Pkbn4quL20APf7ztLvgTtiJU5CgwEbiAeq6AkYnCNIEUDJoYkHwxet7x/1+xtowP+Z4aMqRSimWLlIElmQUy/QPjAhNv1H/zer3l8K/PdDywNT9gVe9DnzSFSA1K7/aCCHAdJs8/8fG23juQTMYUCYFAu/aAtr4f2l3w5uolYC44gHcXAGVCYJgrljLKASdeQmKpYsAfNLH3SVK0+0FsGFp/hgIXFyV67+7IvCvMuGPl9B3wul4FH5/OfJ3DmMmgY+7ELj6XuC9DwKnvR2kZtPuVVvCBywK10D/8+B/tUxW1lihR+4Ahnak3Y3oqGel9VMvqDyoPO70apApowCgW6vaKwACF29Ymj+mTuuJ03QWAEF8kUZ4pR31T7bpX2egVMf0bxPE9O96Xp3jjSAVhdZl7GTwme8G5p8Fmrxv2r3pDGYdAZACcL3lPm4w8NxDwEGLI+1Wq8EA6Kn70+6GP8LGRtWL1/ITu+XlCqhHiQGVAYVAXRqUHdaqAMYri8QXAfhTkNuJm6ayAPQtz71OCFyoCYJau+a/oCNR03/tSdL033koGjDlFeAr7wR/6AnQay6Xwj9Jxk0GZs4P1QQ9dFtEnWlhdmwCnv192r3wT9gxlbwOIpgM8LNrYNUrVW0bLAhQlfKOgRf2Lc+9zr1jydM0CsDL54ybYgAXqgJ5TbEC/2zTfyFm07/0+0sc4IWvB256DHTwqSDpR04cIgK/4thwjWx7CTy4E4ltQtSE0PN/MmMhWomolQCvMT4OV0BhxBWgkJkgSBXIG8CFL58zbkqd1hOjaRQARS29URU4K6MQ1FqZW/L58DZq+ndrIwq/vxT+LQv99S7wv/+adjc6m9lHhTufGfTNi5t29Vvs6AXgf78Uwo2SIpGMsT7jAZzqlIV6wDaAKplFAFQyAwJVgbMUtfRGn63ETlMoABuXafNBfIFmJfypCvwb0r3T/cZq+vdxPK5zJekztBP0kw+Diw0mo5GEZ//jgFx3uDae+i2w5T/R9KfF4Cd+EWolRerEOf7G6QpgMmUXUA4IVO2AQOILNi7Twvm2IqIpFABAXKAJOkITpqZUDvwrGWaqxaAmf5u0Tf+S1uep3wLPN1XcTkdBE/YG9poXrhG9CLrj2s5zA+gF0C8/2xkbI6XlCqitV/mqw1q2bso0lcqrAo4AxAU+W46V1BWAjcuyp5CCN2hUMfu3/4nFOhuBeM3+w5r+pd9fAgCGDvr+28HNsItaJ6JkwEf3OFv1gvDUb4EXHo6mTy0CP3YP8O9H0u5GeOKOB6jXlpcroF5btgyzAwIFoBGBFLxh47LsKT56EiupKwAgOl8j2rvhwL+4TP+OfY24nqQ12Pw88Jsvpt2LjoWOWAbkxodrRC8AP/qA+doB8J7toHs+3D5WjzjH3jhdAS4BgRrR3iA6v4HeRkqqCsCGFfleQXhDle/fxm/gnxNxmf4bvbaktWEG/frz4E1Pp92TzqR7GnDA8eHbef6P4L/9tDMCAh//GTDwfNq9iJbQ43ICrgAnKmRZZSyAILxhw4p8b4iWQ5OaAvDyORgDGOdpAprj7L/RwL+0Tf+S9mTHRuCBrwPSFZA8QgWOuwCgsMMVg269FNjZdCnZI4U3PQO64x1pdyM90nQFuAUEOlkBBDTAOM+UhemQmgKgKNnzVKLlmqhZ9mdYGf+CBP5J078kAeiBr4H7nk27Gx0JH3oGMCmCrX31AugLK4DCYPi2mpEdG0GfPQsotNi6f780oyvArZ3K1xKbss36aAYEElSi5YqSPa+B3kZCKgrAxiVjpxPR6zVhakJVy/7s2b8bXgqBNP1L4kQvgr53ddq96EhIKOCVN0fT2Mt/B755MWC04Np4D3hwO/CNS4Cdm9LuSrw0myvAzyS1xgogRqwAIKLXb1wydrp3x+MhHQuAUlytCJysCTLz/dvlugHoEQf+uRGl6V8K/87huT+A/+/XafeiI6HDlwAzDo2mscd/Cr73I9G01QTw8G4z6O/ZB9LuSjKEGZfDugLKZQFdATqZMs76qFhWAEXgZCjF1T56ETmJKwDrV+b2I9BqVWB00p9CCP9q0Nl/o21KOh767lVgvZh2NzoS7vloZG3Rrz4L/tu9kbWXKo/cAfzuq2n3ovmI0hUQpk0bW8ZVJAcyt7yn1etX5iLwcQUjcQWAdJyrCDq2PPu3Q/9LRuPL/uIK/PODVBI6j20vAfd8KO1edCR0wHHA7Ih2VdWLoFsvBT/2k2jaSwn+w62gO96JcNvotSBxugLqXa/RgECDRpIDWTLQtALQsaTjXN/9jwglyYttWpI9AISbMgrtnVXsrH/WjsTDerDfb6OBf7XC37V9P33wUUcSL3MWAtMOBDb/K9E1z7TxKeCIpcDYSYldUwJAKOAprzD3t4/Ch68XQH+7G7x9E+jQ08O3lyBcHATWXQ+695bWzPUfFX4ee6c67HCQnY67vK8qY+djTq+GYU77MwI0bH5vBgO6wZPfdaD6m089rW/xvpnoSNQCwIJfpwocZS/7o6x1+WIDSX/gs6yekI7axCNJDD71avA194HfdjcwdnKyF9+zFfzzTyZ7TQkAgOYuAhZG6DLVi6AHvgp8aTVQao1EQbxrAPSFHtD9X5ZLU/3QyDgfRUCgmxWgaAp+yorK3QKPYsGJbhecmALQd3ZmLoh67WV/ggBkLQNEZdIfX0I/5sA/P0glIT1yXcCbbwetuBkkVIAZvPzDzr+LGKGHvw9+8bFErykBAAav+jgwfu9om338XuBTp4I3v9jUxnTe+BTooyd0TsBfPdJ0BZTLPGSSkyyzZV5WMWMByN4oiHr7zs7M9dGLSEhMATBU9KqEI9Ta2X9tyl834pj9+71OI3Uk8TBtLvCu3wKHnV0uIiLQcW8A5r462b6wAfre29sn3WqrQAKU6wKv+T6gZKJt+8W/gj54OPDAN5rPGjC8G/zLz4E+diKw7eW0e9NcxDVuh7ECeLVZkSLYtgKoplv8CENFYtkBE4kB2LQ8uz+IRnz/AqCxtu/fGB3M5yfwz/W4j/dus38p/Jub+WeBL7sNNGW242F+xTGgB7+V7O5n2zeAJ8wAzTo8cQtEp0MTZoANA/RMxDNhNkBP3Ac8+Uugexp4+oGpPvYMgP74XeDbbwY9urYzdvdrhIZn7zUHorAC+HIFsJkIQBUga3WAwYQSY9K75qm/+tQ/9a0+ehKKRCwABnOPSjiy7PvPVMz+vZL+eBFG+EtaCy1vmvgvvwM0fi/XajRtf/DC5PfXoJ/cDN4T+7MqcYDOvBbY5/AYWmbgxb8AXz0f9JkzwS88krhbgAHwP34JuvkY4DtXAJueSrgHnYaLElDvfaMipSI5EGUqYgEIRxrMPQ22GojYFYCBFfl9BKhHrfT952zfP4IF/jkt+2sEOftvHbqmgS/9Nui0t1sFdb6Es98DdEfsG67Hjk3AfZ9O9poSE6EBV/0ImDgrnvYNHXj296DPnA764irwy08ApeF4rgUrWHxoN/jpB0CfOhX0P73Ahn9IN5NfQlkBIrhuUCuAbczJjcQCqIIgQD0DK/L7hOxVXWIXaRtWZN6mgj43RiNkBaAIAF2aqfkUEU4BiMr0P6peiDqS6Jh7IviKtaDs2ECn8fevBv3+GzF1yoVcN/DOXwEzXpnsdSUAAN78b9DHFwO7N8d8JQJyXeAjlgKHngGafTQwcWboVrnvWdBLTwCPrgOe/DlQHArf1U6l0WWB5fKQywLZ4XyvVw1ARgF2FqEbpld8T5FRAl+9912Fz9e7lTDEKtL+04tJmULmzpwqFudVK++xnfVvT8W61UZn//UUgVGfpe+/ZViwCvymbwb/tzODWQd99ERg/RNx9MydeaeAr/qR/KmkBD/zIOiLK4DCnuQuOnYSeO6rgSmzQTMOBibNMv/GTjJXq9Syeyuwewuw9WVg4F/gTU+bOSWe+wMwtDO5frc7oXIDuCgAtZ8d8wHYrwGUAAAYY1rFeUcRRQMYLAFDJeP+Qqawct+1iC0vQKxj1YZl2UtUga/lVUJOadLZvxT+zQUJ8OI3g1Z9PFRQHT//J9CnT0Oi2dGECn7Tt0BHLkvumpIRjBL4odtAd1wL6ClE8BOZqxLUHJDJA5mxgFqxSqE4ZO7SVxg03Qh6ER2XvS9J4lACErICDOnAYIlRMnDp3j8e/rqPO2mI2FYB8Bpou3erN2UEDsyqZEb+l3P++1j3L2f/nYdQwWe+B7T8g6Ej6mniPkDfs8D6JyPqnA/YAG16BnziJfInkwYkQLMOB6sZ0LMPppMdz9BN4T68C9izFdg1MPI3uM1UAPRCZ2fua2W85E1lWdBYAIZpIs8qoIJRThioM5RPLtbXfvBRxJLtKbYgwA0bM8uEwNmqYuX8t2+2qCPQrcSZ9EcK/+ZBzYJ7PgaceW1kTfIJb4p+nXg9Xn4c+M0Xk72mZAQSoFPfBn7dp4HsuLR7I0mTUAGBLisCArUTQHgYGMkOSLDyAhCEwNkbNmZiMynGpgAQYZmZ3ci8GXRZs/+gkf/wWeb6vw4hwaXwT4bMWPAbvgiccJGZ2S8iaO4i8Ksvi6w939f95WfAQ7sSv67EQqigY18PvvwOYNzUtHsjSZNQY7jLyX6tAE5lflYEdGnWJkHWfjmE1lIANizNnkREy1RRM/svGSnM/l3OkcK9ORg3Ffy2u0ELekBqNvLm6cRL4lsi5saOjaDvXGn5eCWpoGZBB74afP0DwOQ5afdG0sz4kQ9JWQHsnQJtK4AgENGyDUuzJ/lvyD/xWAAElmoCXZqwLmDP/otG8rP/RgW9VBDip2sa+Lr7QXMWAiKmcJTpc4EVN8fXvhtP/By8QSZuSRuaMBO4/vfAfq9KuyuStAglAxK2AhStGXKXBgHTCqAJdEFgqc9eByJyBWD90szBxLxEJWv2b1/BMMz8x36JavbfaB1JvEzaD3zjX0GT45+d82FnAlP3j/06VRQHQeuulzu1NQP5buCd9wFLbgK0XNq9kTQjccqWQFYAMmUlTNmpEKASgZiXrF+aOdh/Q/6IXAEgwhJV0P7lTX/srH+FioFQzv47m73mgW/4EyjfncjlSMuDz/8CQAlbAZ59APz075K9psQZRQPOeCf4Pb8Hph+Ydm8kSdMqVgCgLCspp4xsEiRofyIs8ddp/0SqAGzpxXgA59hpf8m2YYABPYRABpKb/UvhHy9T5oCv+UXg7H5hoX0OAxYkkl57BEMHffdtYJnGtWmgvQ4Cf+BR4KzrgRhiTiRNTBRjf9wWZoIpK2FuFERiJD0wgHMsGRsZkSoAhYJ2tiLoBNUyXZT/D0Fn/145/8PM/qVwT5euaeB3/go0dmLy186OBVZ/xkzZmySbXwA98A2Z7qWJIAA4+73gt98HHHBi2t2RNBOuciOkFSBIXgBgxAoAOxgQUASdUChoZyNCIlUADBJnq1ZnBcEM/rOXNzTD7D+JNiTOjJkIft8fQd3T0utDvht80pXJX/fH7wd2xZ2jXhIUmrMAuPoe8DvuA/ZbkLyLKCyKVv8Pz8cAACAASURBVBFkJfFFUnIirLyzZWaXZm4SZFkCDBKRKgCR/eI3LcsdT4ybsirlMvba/6xipv2t3b5azv47i/x48PUPgiYkvEufAzRzPvDIWmBwR3IXLRVAe7YBh52V3DUl/iABmjQLWHQReM4xoE3PADv6mjt4MzvO3CjrLXcC+x0F+vu9crfAIDScIpjcj/vaI4DqpA+uLWNAEaBhA2DAAKFUwqx3zdMe+NRTpRd93EVdIlMA3jlPWaMpeG1WIWgE0Hhr6d9wyLS/bkLfVRloUAGQCkI8aHnwO+8D7dUkgVeZPNjQQU/9NtnrbvwnMO9kYOKMZK8r8Q1NnQNedJEZL2IYwM6BZDcW8oIImLgP+PgLgDd8AXTylaYrbeahgJpP/vfcyjSzFaBS7lWkB8aQmR5YB3I6Y8Onn9Ij+cIjEXsbVoydRnrppzmNFuQVQFNg5v3XDWCQ6wv+Wj+Jk3D3mv1TxZtGZ/9SAYgeNQt+3adBJ1yYdk+q4OIg6KOvNoVykhx6BnDl2mSvKWmc7RvBTz8Aeuwe4OnfJbDVcC0ETJ4N3v8Y4LCzQfNeA4yZ4FiTf3Qj6Bf/lWz3WpkoNgoKu1Ogn02C8gQowtwlUAcGdWCoyI+yop619127+3zchSeRiL31S3NvVAXfOqZy179uzdzT0KgR6nL23xkIBVj+IfCpb2vKfy+/+DjoE4uTzdZHBH7zHaDDzkzumpJo2LUF/NT9oCfvA9b/A3j5ScAoResqIAEoKjBzPviA44HDl4BmHWYGsPqAv/NW0IO3RtefdqeeEtAMOwUKBvIqsGNkl8A9JUbJoAtn3D307Tp3UJeIEq/z6eXgP1v4A8GW/vlNlhBUmjSj9OkEXr2maYU/ANCs+cDBpwGP/zS5izKD1r0HfPDJsaQ9lsTIuEmgBSuABSvMsXlwJ9D/LOi5h03rwL8eMZVJvWS9umz1SwIQqqkgqxlgwgzg4NPAU+YABxwLjJkE6poCamA3TDr/82aw6d9/EvZuJcCIGT7q+kT+YzZ063fQrUHsKEJlMxiwBD4dQGgFIPT4vH6perQC5b58hiblFVMJQLcGDOtA0bpCo0v/glgC5Oy/eTj0DPDlt4OSTr8bEN61BfS+g8x92pO87tIPgM54V6LXlMRH1VDObG4H3P+8+b44BKiaKfSNEpDtAibsbUbwW89HpENQYQ/w2XNMhURSnySsAF5uAKd6tUGBGsw4gB1FlAzTDTBY4C069NNn3F36c5078CT0GhJB4rWKgkkqWY2NtYwKQZb+NZr2V9J87HsksOY7TS/8AYDGTgSf9o7kr3vff4GTXIUgiRWq/CMCaTnQjINBMw8BzV4A2ucw8/M+h4GmzjGPC6VqbhQZmTHgi78OTNwn6pYljeI4MQ1g8bZX0Y1VIWBaABQFkwSJ14btWigF4IleZJjxWoUwkvdfITP4r1Zz8pr919ZxK5Oz/+amey/wxV9rnQxrREAauwUO7wJ9+fUyQ6AkFmjqHPAbv5R80qtWpBEZQTUHfMkoH2VuspFhylSFyvsDKKYX4bVP9CLj0fu6hFIAJg9nThNEi1VBEJUyuABvQV8PKZhbj+xY8MVfA7VYnnUaPx18zvuQeEKV5x4C/v6zZK8p6RjooMXg1Z81XQ+S9Am7JLAw8tZMDEQQRIsnD2dOC9OtkKMenWpnKBKEiuC/ADObRhL/yNl/c0ECOO//AQctTrsnDUHHnQ/sf3yyF9WLoHs/AgzvTva6ko6BFvaCl97o39zcqaRlBQjyvdgytdvKDGgF3QN0qv9GRtOwArBxydjpBJyqCGvbX/teCvpIJT/Bf7XI32rrccZ1wKt6W/qr43M/aUZlJ8lLfwP/5a5krynpKOi0q4H5kWaPlTSKH7nnJSst2UqWC0ARBAJO3bhk7PRGu9S4BUAUThECh9qz/3I/wwb/OdbzOCBn/+nyylOBJe9LuxfhmXkosPC8xC9Ld94ALkgrgCQmiMDnfRYYOyntnjQ3UVgBgrRXrhc8GLDsBiBACBwKUTjF59VG0bCDyACdotm7/tnmf4MBA95L+RoJ/vNTLkmerqngcz/ZFl8JAeAVHwL9+QfJpn/dvRm49+PAig/Ffy1moDgIFIeBwe0jSWz0EnjPNmBnn3lMLwBKBsjkge5poFw3oKpmMBIJID/ePKbl4u+zJDTUPR18ybdAX1hpLkWUxAPBedmgU7lXWe2rjQFTxnZroO1FywoAlHQ6BcD3Gu1yYDYsyc4h4t/kNTE7rwCqnfp32ABKXN2ylwIQR+Y/OftPCALe9A3g6FVpdyQyuFQAHr4d9J23JHthRQO/7yEzgDIKf22pAOzZBmz+F7DhKfC29cCmZ0E7Npob3QxuBwa3jaxnZsNMXGPoo9sSqpmdjhSUR6UxE4CuKeb2zt3TQXvPM2eYMw8GJswExk0217lLmou17wZ++8W0e9HcBM0LkHRmQJWArJkauGSlBh4sGv9ippP3vmf4hTq9H0VjFgDCSULQbMU0QVSY/5sg+E+SDAvPBS9Y2VZfAakZYOFq4H+/Arz0t+QurBdB37safM3PG/p/sqEDzz8M+sudwEt/B7b3AUM7TEFfGg73HRml0bPGwm5g28sAah5BNQfkxgFjJgLT9gdmHgJeuBrYe15b/U5aEgaw/CZz9cl//pp2b9oHgrVLYMXEl+H9HjVlQTIDlhjIWm4AASgGIATN1g2cBCCwAtCYBWBp5tsZlS4YoxCyqjX7NxjYY6Aqu0XSs/9RdQIck/hnn/nga39lprNtgYQ/QeGnfgf6wgrTFJ4UQgEuvwM49PT6dfUCuO854OEfgP52jzmrH96V7L4GflGz5va1E2eCj1wGHH4OMP1AkCKXp6XC1peBj54I7OpPuyfNi5csTnt/AAYwRgCCwDuKGC4Be3RGocS37X134Y0ePXcksEjctDy7Pxv827wmZtk7/6FbA4aMkaUK9RSASjOnlwLgat6XwX+poeXA730QNH1u2j2Jl8+cBTzzQLLXnHEo8N4HHNdu84Z/Ai8/Cbr/y8ALj5hm+2bes94NEqZScORy8DGrQfvMB7qmpt2rjoIfvM1yc8lEVI6ETQ/stktg3TTBPncJVAjICaBih8DBovEiCTpp+o+Gn6vT+yoCq+FFA4szgmbZ5v8ybmv/myX4Twr/8BCBT3t7+wt/APzGL4E+dLQZNJcU658E/rwOWHiu+XloJ/ih74Ge/QPo8Z+aOeZbHTbM/+nD3wc9/H1g3FTwYWeBXnEMsGCl753vJI3CwPEXAI//HPjb3Wl3pjlxC+YLe36jwYC1VMjaCjfArIKBxQACKQCBxeLLSzPfyql0YZX5XzeAQU7X/C9n//Fz4GLgLT/smOhvvvP9oF99NtmLjpsKLP0A8Jc7gU3PAltfTPb6aTJpX2Cvg4CVt4BnvFI+sjHCRgn0kUXm1saS0TRzMCADyJtLACrdAEMlvnXm3YWL6vS8ikDP2EvLcrNUNu7Pq2JOXjUzEdF4DRisMf97LgOUvv+WRM2C3/Ez0CtelXZPksMoATceBQwEjq0JB4nWNO9HhZoBpswBn/tpYP+FIC2fdo/aEn7hUdAnXpN2N5qXNGMB3NwGlW6AvABvt3YILAGDJeOFEonF+/x4yPesIVAiIDL0E4SgOQrVJP8xanz/5RNcXiWtx+nXAJ0k/AFAqOCTroxmaV4QOln4A+Yyxo1PgT6/BHTDfPAfvg3s2JR2r9oOmrMAvPjNaXdDUkk9mWl/tmQuwZTFpkue5pChnxDkcsEyARKdWN75DwDGa+bMP6i/pOHxtMHgP0k49joIfPb1HflvppPWAPselXY3OhNmYMcmM2DtQwvB694nFYGoWXypDMJsBFc51OAoGfQ0hil7x2sgjOwQCKITgzTjWwEYOAPdxHSCQmSu/bc7XKiR/p43Qu4ffZn/G6ATpVaUqFnwqo+COnVDERLAyVckv0+ApJrdW0C/+jzw4WPBt78TnGRwZhtDe8+zNgxqv+W8oYlS9viWbx4XrT1kyV6yAvIVIhDTCQNnwPc+0L4VgIKaWaQIzG8683+HyqWk4FPeCjok1I6Trc/Cc4Gje9PuhQQAdg2A7v8K6H2Hgn/93+DiUNo9an1OuNDM4igJRtwyrQE3gCIwv6BmFvm9lG8FgIkWKVbufwEA3WpzmP9juZYEADBpX9CpV6Xdi6aAz7oOyHWl3Q2Jzc4+0A/fA/rICeCHbgO3wxLJlCAAfNHXpJXLiYZkTsJugG4VAmUFAEwUvQIA8PH2Bcj0NQDFJjf/S0JAwLIbzbzuEtDUVwCnSGWo6dj4FOi2t4A+uwT89O/S7k3rMnlfYPGatHvRfsTtBigyQGRuEWxN0AE+3m/3fCkALy3VjlQEHacQVZv/azP/1XZSmv9bl9kLwPPPSLsXTQUvuhCYODPtbkhqYQaeewj0373g77wVPLgj7R61HJQbBz77emD83ml3pbVI2w2g17oBCIqg415aqh3p5zK+FADB4lhByJWj/wnmQyfN/+2JUMFv+gYo7zuWpCOgiTPAp74t7W5I3CjsAf3hVtDHTwLWPykT3QaE8t3gFR8yA18lIzS7G4C5LCKtGL2cYHGsn9N9fdMMPtYO/hMEM/d/7T4p0vzfPixYAZo6J+1eNCV04puAg16TdjckXmx6GvjIiaDvXtWcGyQ1MbRgBTBnYdrdaC9iXw0AoFsry2eFTJkdtGuObF2GCUPQ/phXxEFjVEAVZGb/21MyoxDdTBUEAML5JgP9Q8i5p149l8pD46hZ8M1PgKQp0J1//wX45ClSuLQC+y0A3vxdYOI+GEmwLvGCn/sT6HPnJLsPRisQJDMg17xpJCtg+b3hnRpYEDBGtbICMvaUgEHdeCqH4rETf4xtHr2ubwHYo2cXCtBBCgFkBRsAGFn+55eGnjsX4S+JDX7N5VL412O/o8D2hj2S5ubfjwIfOQH88B2QA4k/aP9jgHmvSbsbrU3tBLahc31iLwe0ZLS5Uo8O2qNn65py6ioAJHihsCIMBQBkxeid/xw77NK0NP83LxNmgE6TPm4/0KKLAUVLuxsSP+waAH3rMvBPP552T1oG7vmI/H1HSSi55yBLa+vqDGSFuRxQWLl6BIdXAMD8qnL0PwHIKkDR8O5w3AJcmv9jgQ87B+iennY3mh5+6e/A994mXQCtBBuge24GvvEmc5MniSc0fS5wyGvT7kZzkabcqSdriwaQVcysgNZqADDX3bzFUwHoX5qfAYGjLZPCyIFaC4BbJ6NYBigFejKM3xu86haE2wi7/eE/rwN9fhmw/sm0uyIJDAOP/AD4+Englx5PuzNND6/8ECBkiuCGiULu+Y19q5DJAqYbAAJH9y/Nz/C6jKcCMAz9aAU0w44uLPv/uZ6Q8GH+dysP4zuRNAgBx55nbbsq/+9u8G/+x9yYZmd/2l2RhOE/fwV96jTguYfS7klTQ9MPAuafmXY32gCHWLbA1vM6xnqu2BfAtgKAZgxDP9rrNM9Wifko2/9PAJCvMP/X7XAd4jhPyq7GyI4FL7lB/vs84HXvA627HhjelXZXJFEwvAv4/HLw4z9PuyfNzTnvBxSZIrhMHPInqvOKBpBXzHwAdhwAs+dWpt5qBWGBAoKwr6UKoFCzJMH+g8ur/Gv6Pz77vSAZ8OMK/+DdoF9+HtBLqX9X8i/Cv+HdoC+fB370Lkhc2OcQ4JDT0/+uOvkPLq+1xwsGoJrOegFAMbMDLYAHrgrAxiVjpxPjqFH+f3Y7w4V62o3jcbn8LzFy44Cjlqfdi6aFv3U56Df/jeA/fMn/Z++84+Wqqv79rDNzb3ohIQkkpJGEZmjSpReRomCBV17FVwVFFH8KKCpgRX3RV8ROERCQIhDp1SQklBBqEnoLqaT3dtvMnLN+f5yZe+fezL3Tzpx9ZmY/n89kJmfO7P29U85ae+21164KUgnkH+egL08xrSS6nPgdu1FQqfQ0pV2SbeyBrEtUJg9AlI+u+lS/bjO7u3UAXC+1X8zx5/8l6Pn/UlcP2PB/4OiJFyNDx5iWEUn0nxcgL9xuWoal0rhJ5Jbz0OfvMK0kmkw4DHY7yrSK6FCOHSoqD64rhecBtK8GcGSk66X2K6FF3c8BnMz6/5hsv/zPGt3qZtDOyP529J+TOy9CZt9qWoUlLNwkctsF6KxbTCuJJHraT20UIIp0tcVJD2L+tH277UZLcACE/RxJz/8L0C8OKa+7c3u+Lwob/g8L/cjHYefdTMuIHPrvy+CZG03LsISNl0LuvNDmBORAxn3UL6tsKZ4gqgIWaltTHvSL+xEAwBEBoTgHQM+jAdF9/Q2Asnrqxv7naa7MsEcBWGehePoMgtN+bFpF5NBHrkSm/xk751+neCnk5q+hbz9pWknk0DOvzJoLrnOCsldBLwfMstFOuiwwovvqeeTM8s7Z2srlDfvERPbscf2/6SUPlvIYuz8M7rFGRN2hM69HHvuNaRkW06TakL9/Ef3A1gnIRsYdCP13NC0j+pi0jbnqAYjsuXJ5wz65XprTAfAc9m43/pmDKcPlfy3B4cTQT//CfmQAqL+a5uUpyL2XgeeaFmSJAq3bkH+cC21NppVECj3+26YlWPLZ4LStFjqcAM9h71wvyekAiDK5kwPQJxZS+V87/x8KA0bAznuYVhERBJ69Gbn1fEi1mRZjiRIblsL1X7ROYRZy8FkQ72VaRvURZB5AvqZcbS8I1G7Hlcm5Ts2dAyBMdhCczPa/DQ6kAlj+191xO/8fKnrSxUivfqZlRIPWrf6cvzX+lly8PR3910Xp/9i8EHYYCft+0rSKaBDVPICUQoOTngYQHASVAh2ADWcyyJF0BCBbRN71/wVg5//N09gPDvycaRURQCHZCjefB6vnmxZjiTAy62b0mZtQeyECEXSv42wyYD5M2rqMrW5fCQCOMHnDmQzqeup2DkBzS3wvBxnlOOmCAtkNBinSYoZ9T0EGDDOtIhLo9L/Caw+blmGJOqrIlB8iq94zrSQSyIFnwI7jTcuwZNPVJqvvropk6gHIqOaW+F5dX7adAyAie2VG/+1tJjs8ipydmlr/bx2R4nBi6H6nmVYRCXTle8gTvzMtw1ItJFvhpq/apECAXv1gz+NNq4gGJdmrCtYDaC8IpO3/zUQBRCS/A4CSXv4nflu9HHDzFgAoDmu4zTB8AjL5RNMqjKNNG5Fr/stezC3F8eHr6JRLbSYAoKf+CBr7mpZROwRtE10PeqU3BhLBEUDZs+tpubIJ9vATAEEcoFcsmAJApS4ftM5CYOg+p/ree50j0/4EaxealmGpQuS5W5A3p5qWYZ5BI+w0QD5KtW0FJcgXUBCoVwxJbwuc3tBvu6VfnVrRM4mJw+6d1v9DMAWALGaJNyIHfMa0CuPonPtg+p9Ny7BUK+rBP85F1y2hnlcFCMAX/mCTAaNEjoJAmcPpAf3ueiax7Jd0cgBWtjXuLshEx+lSBKhr47mOB/E9sPP/lWOH0TByuymgukLfn4XceSGkEqalWKqZ5o3IP86t+1UBOvaj4MRNyzBP2HYrn82Vzg+ddCKgIBNXtjXunn1q5wiAMimTNNCRAJhnA6BCj/dIff+QQmH/06Cht2kV5lAPmX0bNG0wrcRSCyx6CZn3oGkVRpF4I3zkE6ZlVCllJAIWejyZVREwfa/KpOxTOrlvqkzyR/6CKH6EK6WlRbqE3K/LPt7dOfnasBSHE0f3/VRdu1n67lPIi3fZ75MlGNSD+38Ge59Uv5XxxEEPPxt57RHTSszT03Wl63M9/V/znFPMfdp2i/o23UFJdXEAumYSTOpUAKiX030J4G6byEE9W54osONYmHCwaRXG0GQr8vhVtqSrJVhWf4A+9GvTKswyfGL9OkCVpCCbmcf2uurb8KyCQNCDAyCqExz88r8iQKNjEwBrAD3gs/X90c17CN5/1rQKSw0iM69DV71vWoYxZOc9YC9bEyAydE0EbHTa7bmDIKoTsk9vdwD0TGI4TPSTBTKN5SnOYxMAqwCBXQ+p28i3blmNPPqbYEpZWyxdSTQjUy41rcIoOnZ/0xLME9VEwLQNF/xEQBwmZq8EaHcAljU37uogYzPZ/wLgFbgDYL7jPWKteWVR5LqzkLsvAS9lWkz4TP0T1PEIzRICb01FF881rcIYss/J9Z1gXDIhJAJ62m7P0/UAxi5rbtw183S7A+CIjM+c2L60M+/8f5EUVOCgwOctheOmYMa1cPWp0LTRtJrQ0HWLkRfvMS3DUuuoIvf8wLQKc+wyGYaONa0iuhRj6wKvCJguCZw1sHdE2is4tTsAnnrjMtsHtmtI5SsBWEYFQEv4zH8OfnkovPzvmp8SUPX8xL8tq0xLsdQDi16GxXNMqzCDE/eTAS3BEkRFwFTWUkDx8/s89cZt92oRxmXWCrZHAALeAiAQrENRHhuXwy3n+clLprVUks2r4YV/mVZhqRc8F+6u3yiAfuK7EGs0LcMsUbRNaRueiQA4/uNxmac73AeVsZ1G/73sCoCaJZWAe36ITP+raSUVQQF58ApItZmWYqknls6DBS+YVmGGXfaBxj6mVVhg+5UAvZz2w44IqLTP12THD8ZklguIAA3O9o1l/z+QFQB5VhlYKofnwr8vg8f+z7SS4Ekl4LVHTauw1BupBDxWp1tM9+4PO+1mWkX1INs9KL2N7mxx5v8NHUsB09H9MZlTshwAHdOp/r9TpDBrxKsP9eDBX8KUy0wrCZbHfw/Nm0yrsNQj78xA5882rSJ0BNCjv441BCFQ7FvsZC0FFABtdwDiAEtP7TNKHHd0+yoA6H4JYKnU2wqAfjvAkNHQZxD0GYQOnwB9B0HvgRBvgJZt0LYFNixH1i/1w9WbV8H6pYRbr1b93fG8FHy+BqIBnovMe8B3biyWsHGT8PydMOljppWEz067+0NMW3Nje4opex90CfyspYACiCOjl57aZ9SYR1uWp/cCSI5ycETSWYKAXQFQLE4cho6Bg85A9zoBRu6J9BkA4oA4Pb8V6oEqmmiFTStg4YvI3AfgvWcg2RLOD2rmtejQscgJF1S+rwqiL92DLH/btAxLHSMv/gs9+fvIsHGmpYTLqD0h1mBzb4KkIMfAoceM/cxKAAERwUHFJTkKyDgAzqj2DMHMi4KuARAEUXMoGvrAkF3QI74C+54KIyZ2RFCKQfzyi9K7H+w0CXaahH7sbNi6Fpa8isy8zl9mVMmd7FSRB36O7jgO2e/UyvVTSdq2IXMfxO74YzFKqg0WvQT15gA09oVhu8LKd0wrMUfQo/cgyNQCINvGO6MgPQXgiIwUUX/0n2sJYNQMr2nijbDroegX/gA7716Rt0cABgyDyR9HJ38cmjfDf67yC9tsXF6BHoFkC3LrN9A+d8KkwxCnoTL9VAhdNR95/THTMiwW5MEr0IPORKR+Lp4C6OQTkXp2AKJCtiPidRxr3xdAZCSk4/iq3s7tNQAyDYQ1j1Ntv49JR8B3HoDvPYZUyPh3RQDpOwj5zC/hJ8+jH/9/fm5BJWjehNx4DnhVOIc+x879WyLChmWwar5pFeEzdEz+cyw+Ydk+7YgAZKIAqt7OkJnIF9k5p6MaxhLAamH4BPTbU+DiR2H3o8zp6DcEOeNK9GcvwpHn+nNuQbNlFfK3/0KraPtcdVPIjL+ZlmGx+Hgp5K6LTasInwmHmFZQhYSwFDD7kF/tr8MBEHSEpIsAidBeOKBoEbWIE0NPvAh++Rqy98ngxPK/JgRkh13g7D+hlz8HO44LvoN3ZsKsW4Jvt1Ise8tfh22xRIUVb0Oi2bSKcNlxHOwwyrSK2qdYm9vL6dgPQARBR0AmAqAyQjTdpgIxx78P6kY3j/Oda/rWayB69l+Rz/2yyHc7PGTUXuiPZsJeJwb7t3se8shv0A0fhvwXFY8Cct+P/WkL098Ze7O3zG3LWnTm36knpM8gGD7J/HsfxRtFPJ/v3GJvaZsugCig0uEAiOqIjHfgf4qURi1FAoZPRC9+GDn8S6aV5EUGDINv342e+N2sjRwCYNNK5J4fURXz6sveMK3AYumMKix8ybSKcBFBB+9sWkXtUqZtzkT5RdMRgLWnMQCRYYIUkQBYwBRB0M5AmM7FhEPh8meQcQeE2GmZxBqQM36N/vfv/ZoEQTHvIfTdp4NrrxLMnw0tW02rsFi2Q5a/BS2bTcsIlwmHmlZgFiO2L49N7pQIKCAybO1pDIintNeOItpb6DgB16MjDpFLSTkjwozQfE6GIfY+Cb49xV+bX4XIMeehO4xGrv9CMHPiqsiUS+HHz0Um/6Er8sxNkGo1LcNi2Z41H8CiV2Cv400rCY/dj4Q+A6Bli2klVUgQ0dYcttX1yLbxIvROaa8dnUTKHdoeFsjYvOwiQLUU1s/HuAPR8++oWuOfQfY9Gf3vq4Mz2MveQN9+Mpi2KsG6RaYVWCzdonVWmVL6DYFe/UzLsGTb7kwxIIf2ZMBEyh3qxGOxIV3PDcQJKVagaYaOhQsfRBp6m1YSCHLkV9GTLwmuvXt/grrJwNoLjFXzYbktPGKJLvLiv9BkHUWoGvtAY3/TKqqDsGxglk3PdBmPxYY4qt6QTpsAQc85AIHUAIgYIuiXr4W+g00rCRQ5/Sdw4BnBNLbyXfjg+WDaChB9/XFotaFGS4T58HWknr6jvfqBTQQMj0JscpdiQAKoekMcRAcXVQSo1hDHD5fvcbRpJRVBz/qdvzNhuXgp5N4fl99O0Kx4y7QCi6VnVNEl80yrCJfeNgJgjIKLAelgRz1ncKY+cCCdlUPoToagx30TOea8mvVvGDgcvWSavw1xuSx/G16LUK39tiZk4cumVVgs+Xn1EdMKQkUH72RaQjSJgL3M2Hv1nMGOiA7abgogSKJsWfvtABEu8hMEAsjIPeGUH5TfWLIFnr+j/HaCYvMqmwBoqQrkjf+YlhAqsuvBVZ9MbZwK2M5sWy+igxxFAhgaFtp7lL4Qgp55JRLvZVpIOJzwxJ6xAgAAIABJREFULRgyuvx2lr0BzZvKbycAdMNSW/7XUh00bYzqwufKMGRMZJcNR5oQbaQiAx2BgZ3C/1GYCgij7RETYe9PVKDhiBLvBZ+9grLfzDUL0LkPBiKpbNYvM63AYikMLwXrl5pWER59B1dmo7JqIYr2MOt16aWAAx1V7V9Om/k6iiTioGf/2S+hW0fo/p+CkXuU39DK98pvIwDk/WdNS7BYCsNNRnIVTaXQERNqblWVUQK0qZmmVLW/g9A/UwRYekwEiLpVL4I9jkFMbulrCGnog551VfntzLoFjcJoZsELphVYLIWhisy537SK8Gjsa4sBGaMbW52V7O+XA6a/g0o/yFoFEORmMlEk3gtOu9y0CmPIxI/BnseW10jLZti0MhhBJaKJJmjaaFSDxVIU9ZSwKk4wy48twSGSfQcq/eIq9Olk8h3ADVlYmOwwCsZ+1LQKc8Qb0f1PQ96ZWVYzMuc+mHBIQKJKYOv6+ttkxVLdrF0MN58Hbc2gtXyRFaSxL6xdaFqIJZss2y6ACn3iqPZBJffexLXI6H0h3mhahVkmfwJ6DYDWMnbQe2Ma/Ndvg9NULBtWgOfV9nfVUlu0boPZEVpGa6ks3V2buh7v6f/5Hhdzv91N+zgovTvN/WdPAUQxk7EcYg1wwrcNdBwtZMguMGa/8hrZvMro3gAy598FbFttsVgsEScsO9uRAOA/VHo7Ar0rrSEy9O6PBpEFX+04MXRimXt2uwmzc/DrIpCEaLFYLFVG1tYBvR2Q+omH73W8XZqSRg4608/ULZVkG/J2eXkEZVEjuzZaLBaLGaTRUaE+qjWIoAd8pj4iHYWw41joP6T016sHrxmsb15O/oLFYrHUOSo0OAINnYxiIVsBVyNO3GzWetTo3d9fEVEOaxYEo6VIFGDdYiN9WywWS2QpYEvgzGkCDY5C8QWbq9ERcOLQJ7xtD6qCXmVu2el5wegohYjsR2CxWCzGKcEmK8QcujoAtZpYLdR3beoc6O5HUp43V6tfFovFYqkxtr9cxxzpagE83d4mVOOIvyt9Btn1/12QnfcEp4wPN5XwcwHCRj3warmQisVisZRBLhvuaddDkdqft7JM/FhN+DFBovEGyvLuEi3Q2hSYnoJJJawDYLFYLGXiaFTiuJW2zr3txhTbMWzX8vbsTrZCm4Fs/FTSOgAWi6U6ichIVEG3r/wfDXcgcLTPINMSosegncqbFkm2+uVNw8ZLmZl6sFgslmple9vuOgJuyTY/Ip5MQQze2bSC6NHz/s/5UfVH42GjassAWywWS4mXb/Vf6joK5gq6h4gsf8u0hOiRbAE3VfrrGxqhr4GllbGG8qYuLBaLpc5RSDqi9eEAYHDjmqgiq94v731p6F1+LYFSiMfrKn/VYrFYgkaUpAOa0MhkAlaQtYtr/28sluZNlPXJN/SBPgMCk1MwsUYbAbBYLJYS8HcCBtCEo9BaVkvVwop3/OQxSwcbl5eXTNfQ26+wGDbiWAfAYrFYyrDBCq0OUoYDUE2oa6cBurLw5fKS6UyF4SWzobXFYrFYSkJojaPSopoeCDqk4wNlNdrx+uzH+UinJVYM14Vt62GHXSrYSZWxbnF5n7WJ0X+GfkNh8xpz/VssFktPdHdtzXVce3g+13Nd73t6rsu9eulxn0qLA7S0v76aQvrF4qZgyaumVUQHLwVb1pXXxsDhwWgpEoHydzK0WCyWOqOLjW9xQJu0qibzS0Q95M1pplVEh43LYdPK0l8vAh85Pjg9xdLbQPKhxWKx1AC+zdcmR4Rt/oE64JX70aaNplVEAn353vKq+MV7ofudGpygYrH5HBaLxVI07TP0wjZHVbZprvmEWqR1K7JuqWkV5lEPeWMqZX3g8QZjUwAAutNEY31bLBZLVZLJA1BQlW2OwJZy8/6qhlQCffEu0yrMs3UdrHyvvDYa+/nLAE2x98lUVy1qi8ViMU/G3gtsiSu6JXMhrQcnQN5+0rQE4+icB5AtZWbQf+R4xGQ1vkE7+XkINZ25aqkpnBj02yGdhm1aTIURgZbN5ZUatwRO50UDuiUuIps7KgPVAWsXwwfPw8TDTCsxQ+s2ZMGLZTejB59pdvw9eAQ09oG2JpMqLJbC2Wk39IpXtjucWS2dawV11GJc2ZqyNWcfyyD/eywsfClEdZZCyFT+FZHNjqfepkBtf9QdibYmmHG9aRXG0BXvwiv3lddIYx9k3AGB6CkV6T3AaA6CxVI0w8aT2X8z+0aX+67HooTkeNz1mIBvZVo2hyWrPgjQtirgqbfJEZVNGY9gu/YracxNOgpzHkDffdqgADNoWxPy7x9DKlFeQwd8GvoPCUZUGehuh5uWYLEUhgi63ymmVYRHWxO0bjWtojoI0c5m7LwqiMomR3E21E0SYAY3iUz7i2kV4bNkHnwwu+xmdM/jAhATAGP3N63AYimMWAPsfrRpFeGxdlF6szFL1Gh3AnA2OIi7IeMRtO8KWMb+MFXD60+g7z5jWkV4qCK3fgs8t7x2Bg5H9jkpGE3lsuM40woslsKIxWH4rqZVhIYkW/zy65Zo4HWM/NvtvLgbHE3F1ufdDrgWwwOqyN0/SP9ptfgHdkaf+YefAFkuEw+NRPgfQHYcY3cFtFQHvfpHck6/Uuj6D+3uqybpwaS1OwKp2HqnX5+2dQqt+acBSjCSUberH74Bd11CNNNtAqStCXni6vJH/7E4fOzsYDQFQf9h0HewaRUWS34m1Vm+ynvPlH+9sZRoQ7t/UUf4n9Z+fdrWOcMeYquia/NGAbLbjbphLwJ59tbyi+JEnZu+Fszof9RkMFn+tysDdgSbCGipAvSQs0xLCBXZvMq0hPqiQNvcPvpH1w57iK3pSi6yun1uoFTjXq0rBtqa4A+nQ43uEaB3/xDmPlR+Q+LAqZeU306QiKBj9jWtwmLJi0w61LSEcGnZYlqBWSJoDzvbeFkN4KSfWe1pCHsCakSzCzd8CL87GU201EZFpPTfoLP+iUz7WzBt7jQJ3f9TwbQVIDLhUD/D2mKJKiMmQZ+BplWER1tTeTuN1jMVtpH++n8F1dUAcf9gRwSgFsP8BfHhG8gN56Lfuj2dEVDFeQEi6LP/RG7/TmAOjR7xZSSKCXeTDoOd9/DzOSyWCKJHfRWJN5qWER6pBCRa6s+GZNPT3971OS3yuZ6O9XSfFQHQ7AiAoCs75gaKJMgP2fQXZu6DyDVfRL2IRioKZdNK5MFfQSqgLXOH7AIHnRFMW0ET7wXDJ5hWYbF0i+w0ybSEcEk0QVuLaRXRxKC9zLbxgq6EzBQAzsq6KwbUHXMfQq75QlXuN6+AvvIA/PoY2Lg8mEZF0GPPQ4aMCqa9SnDUV+w0gCWa7LAzGC6bHTa64BVo2mBahiUHHXbeyXIAVFd42uEhtJ9Zr8x7BH77CbTaKlnN/Dty7Rdhw7Lg2tzzWDjuG8G1VwF0r+Ogbx3NsVqqBp1wKAwaYVpGuCx6pTZyqWqF9EeRGf17vqFfARkHwPOWb1clKIAOAzvPBAteRK44HF2zwLSSgtA7vofc+b1gG+3VD/7r10jv/sG2GzDixGC0XQ1giR6yy2TTEkJHVr1vWkL1EJKt3L7ar7ccMg5AQ8NyT/38w1A3BIo6axcjvz4GfeV+00q6J9EMfzsLmXEdBJy7oMd/A0bvE2iblUJPvsjfg9xiiQr9h0Y+ehY0mmiu/boq1UKOjYA8wFOUhoYOB2DMoy3LVfXDTqP/nrIR64ltG5DrvgTX/w+smm9aTQeJZvSpm+DSvWHuw8G3P3pv+Nwvg2+3Ukz6GDhx0yoslg523h367WBaRbis+xBWf2BaRX3Tje3uiALoh2MebcmKAACILPXQPMWAsjyEsMP8Jh0QVXjpXrjicPSf30ZNrnF1k+jL98OvjkZu+w5sqkDFrb6D0C/9Ofh2K4k4fr6CxRIFnBic9RvTKsJndYQGSaYI2+Z1ssm5X5Sx6x4KIkszx52sE5Z6Wqb2Wo8StDUhT9+M/PQgePhKdMva0LrWZCv6wfPws0OQv38Zlr9dmY5iDei5NyITDq6qSggSb0RPu9S0DIvFp/9QtM6y/wFYZutxVJQybGwmAVCVdgegPWYq6BJVoWwnIK8Kzx+t9aQy6panaSM88CvkP3+GI/4H3e1wmHgoMnB4oN2o58L852Hlu8hTN/pGv8IbbOjnf4vsd0pF+6gUMnZff2+A958zLcVS5+inLkNU6y4vRd6cblpCdMlnWCtYBTDL+CPokszxeNYJi9uXAma/qpDvbzUY7UrQsgWm/RWZ9lcYNBx2Pwrd7XDko6f7W+aWsja9ZSu6ZC7MeRBZPBcWzQmthLIe8zXk+CpOWor3Qg//IjJ/tl2GZDFHrAEOPK3ujL+2NiFL5pmWUR8UOT2QsetpG78483RW1pSz2EPbvQSV+rTpJbN5Dbz0b+Slf8ND/wtDx8LgndBe/aD3AOg7CCYcjOw4HhwH2prQVfNh8Vxo2wat25Ct62DjCmT9Ur+cZpjseSx87hfh9lkB5KAz4PE/RCth01JfHHwGMrDO1v4DrFtalQXUap1M8p+n/ioAcBZnnmt3AJyYLlLPPyGQwVM9Rw+2rPVvdPnTnJhfuhZAPSSVCG103yMfOQ497xak72DTSsqnVz90z2MQ6wBYTODE0IM/V3OXtIJYt9BG3oohxER61Q7b7sR0UeZ4+2T8Ln0TCz3VJTlzAOxnGgye66/bTzRDsjUaxn+/U9Hzb0f6DzWtJDhOu6y+dl+zRIeJhyJ1uhpFZt9hHYCokKsGgIKnumSXvomFmePtDoBMwUX4wNOOaYDc6wlL+IBrYSlgLXLA6ejXbkL6DjKtJFgGDodxHzWtwlJvODH06K9BQ2/TSkJHARa8aFqGeYzauhyjd80K//sZgB/IFNozyTul46snCzLVAHvsv6daANZIVweH/Tf6lWuRPgNMKwkcAfRrN9ZdEpbFMKP2Qg7+rGkVZlg1H5qqbO+UaqMne9uD3W1PAMS38dnPdSqdpsp8zwXPAc24Bh7Bz9HXwlLAaqWhF3r65XDK95AKLyk0iQze2U9sfGuGaSmWekAc9JOXInVajVKm/w0SraZlmKc7Q5xvsNx1OlhzPO7pWK779E3VrxLvub6Nz+6mkxUWYX66VnDxmwLZkX/0Gbwz+p0pyCnf8/0rJ2ZaUUXRr1wLDb1My7DUAzvvDgd8yrQKcyx82bSC+qEIW9t1BYBIDw6ACvOzswVDwzoPlUUc2P+T6K/nIR853rSa0JChu6BH/I9pGZaaR9BTv4f0FNWsZVZ9AGsWm1ZRXYRo87JtuvbkAIwdkHjPRT9oLwiUK+RQVM8lvMYSPEd/Ff1/d9fkfH9eTrsUBuxoWoWllhmzDxz0OdMqjKGv3AfNdv6/IpRpdzORfE/BRT8YOyDRaavGzlMAU3DxeC9TECinANNG3XT/VYgO2rluUypk0Aj0uG/0nHNisZRKQy/0zF8h8UbTSsyxZkH+c+oB07apG1vtZTYB8ngvewUAdHEAABDedZXOewLkKgxQ7EoA029OHSNzHqjvt//4b/ilmS2WgNHDv4h85DjTMsyxbQMy71HTKmqLYm1qruX5WSWAPQXXT6x/t2sT2zkAKrzjZSoCdtNvIOQrglPXFitgVr0H7882rcIY0m8I+oXf+yWYLZagGDgMOe0y0yqMoivf9TdHs3RPPltWoYJw2cv/PM+37V3P2e6KGFd922svHFBCj5bokUoh7z9rWoU5ROCQM/ydAi2WoPjkD2DwzqZVmGXeI6YV1BdF2thsWx5X3W4P+e0cgDY39baqLncz1QDLpRL1jq2jUSQKz90BLVtNCzGGAPqZn0LvfqalWGqBMfugR37ZtArjyLP/NC0hGlTCfgW0B4Bvy3V5m5vK7wBMmM5mV3kze2fAIAVZDLFpFWxaYVqFUWTSx9Bjz7NTAZbyaOiNXvAvpFd9O5O6cTk0bzYtw5JNlxUAmQRAV3lzwnS2+7ByXglFeLNTImDXZIDMwQLKEHYnzhIybU3orNtMqzCOfOpHMPEw0zIsVYx++ifIsHGmZRhHbruwYvPXdUuxtrSrLc4cy17+p75Nz9VMd0OhNzOVg0pOBCzkRTYRMFTkrSf9XQjrmd790W/eBkNGmVZiqUY++inkpO+aVmEcTbTA/PpNLC6YIBIAS7CDnRIA/dcX4QAob3ie7znYRMAaYvUH/qYddY4MHI7+15V2syBLcewwEr78N/u9AeSxq234P2xKSAB00/sAoLyR65ycDsDa9cnXPdV3XFV/+UC5Rt0mAkaDtmb0mVtNqzCPCHLAaejR55hWYqkW4o3o12+EAUNNK4kGrz8ecr34CBPBBMDMBkCuKp7qO2vXJ1/PdV5OB+DAOSQ9ldeypwHaRdnPvKqRF+5GNyw3LcM8sQbk7D/AnkebVmKpAvT0S5E97HcFgLeehKU57YnFJFn2OTv876m8duAckrle0u3elYL3qqtyVva+AB2RL/EPSvpJoeO+q6B8x9TreevfXG1YSqdpHSx4AYbUb+3ydpwY+rkrkCuPAzfn78Nigd0OR079gWkV0UAVfe1RxLO/l7zknf/vclJJFQDpMkLvUv9fFUFf7U5Ct+uhRPRVt30NYSGqLNWCTP2zaQnRYdcD0S/9sea3RraUyLDx6AV3oTbc7bN1LTL7TtMqLNvR+fuZWf/vrwAowQFIJt1XPdUVrpawPXA5vxWbB1B5Fs1F1y0xrSISCCBHnYN+/rd2wyBLZwbsCN97FBmwI2IT/wDQ+c/b5L9sImgXM9v/+kn8uiKZdIt3ACbMYLWqzHUV3OyVCqXmAVhjHR28FHLbd+1HkoV8/AL0zF+blmGJCr37oxc9BMPHm1YSKeT+X5iWUPuUal+zXud6mei9zJ0wg9XdvazbHIA0c1xPP+l5gueAeF1WwHSd/y90vr7TeQW8yOYBBM/iubBtPfS3Wc0Z5KQL0ebNyCO/tRnO9Uy8Ef32Pci4/U0riRS6djGy4j07mMumu/eikPn87GtMdxV3u5vvz3WvWdX/PHD9NfxzutVODxEAH5mbCSWUfD0sqCBQiW2X+9p6Zus6ePwPplVEDvnsz+Cw/zYtw2IKJwbnXIfsdaxpJZFDplxuK/9lU2m7VWL7mfl//5OSuT2d27MD4MZecb3u8gDyqLNGPdqoIq8+Bm1NppVEj8/8FOp5j/d6JRZHT7vUOoC5WDUf3phqWkX1UlF72HFC9vy/6+kK3NgrPb2yRwdg7PSWFZ7ySiYPoMtqg+Kxhj1arHgXnfOgaRXRY8ex6Nl/hF0PMq3EEhaxOHra5cipl5hWEkn08auhdZtpGbVPmbZV6Zj/95RXxk5v6XEHuPxpz8LLfjWhjnoAnYQG4gwU0Ih1HiqAIo//ATzXtJDIITtNQr96HYze27QUS6VxYnD2H5HTfgTxRtNqoseqD5CX7zOtonooyFblWf9fTBMZ499l/T/Cy/mayOsAiKcvuQopzbMvQE8Ogc0DiC7L3kTffNK0ikgiu+yFnn8rTD7BtBRLpYg1wDnXwzHnmlYSTVTR6X+Fli2mlUQLE/P/BQy6vbStdtW33fm6yesAeAn3JdfT99q3B+4kwuYB1AJy5/fs290NMnJP9Bu3oKdcbDeBqTUaesM3boHDv2haSWTR9UuQWbebllHdVHr+PysCkNkAyPX0PS/hlu8AjH+aTSq86Kr6qwGKEpdbryVirFmAvPaEaRWRRfoPRc78NXrGFdYJqBUa+8AFd8JBnzWtJNo89nubKBwWZdpTJVP9T1HhxfFPsynfywsqfSbKC5mygp2iAF1FFDsN0NWbyPcGFDIFYSkeVbj7R7bcaR7klO+jX7zalg2udgYMRS+fCfuebFpJpNFNq5Dn7zItI3qUY4e6Rs6LtZXd2NhOo3/1bXYeJUCBDoDnyAuu0tqxtjCf2sKfrthrLcWxZgHYFQF5kePPR796LfTqa1qKpRTGH4D+ah4yZl/TSqLPw1fazP9yCWn5H2Qt/1NaPUeCcwDGP5Gc5ynPp7xceQAlYA179HBTyEO/hkSzaSWRR474Enz5rzYSUE2IoEd9Ff3pLGTgMNNqIo9uWom8cLdpGfVDucv/0hGAtI1+fvwTyXmFvLzg3U/UY7ariuuliwJ1EVAyQS4HtI5FeSx7C515g30bC0Dfn22rolULsQb0i79HvnqNrSheIPLQlXbTn1yUbX8CWP7X5fVKevTvpef/PWYX2kThDgDec52WAwaVB1DKOZbKoIo89L/Itg2mlUSbpa/5W6LanInoM3QX9ML7kOO/aVpJ9bB+Gbx8r2kVtUdQy/9y2N7s5X+K91yhkgp2AJIx97mUp29kHAC7HLBGad6C3n+Ffdt74oFf2qmSqOPE4MDPoFe+gdg6DsUx5cdgBwHlE/Lyv5RCytM3kjE3eAdgtyfYgsosV5VUuu+yjIR289hOAxhHZt2KrFloWkYk0fdm2ZroUWeHUejXboQL7kQaeptWU1XokrkwzyYD56RS4f8ybFbGDqfSy/9QmbXbExRctalgBwDAcXg25flzDZ2mAfLdd1WcD2vEzZJohbsvsx9DDuSOiyGVNC3DkgsnBh/9FPziBeSws0yrqTp020bk1u/6v39LsAQd/s+699S3ySnPt9HFyIoXc7KjsVkeqUUpT8a7HsQEP6lGAUf9IimKf7C7P7in57o7J9OmJTxeexx5eybYbVF9VNFZtyMfvmkd1CgyeCf0nOuQvT8OUtS4xpLh1UdgYY+bx9U3xUQA8g1+8z3ONYhuP9axHl+zjL+nusjR+CwofIBS1C9ll6mtH3rKMylV3HTnOaP3hb5R3Z1XSHKVnQaoLKkE3HYRamuAA6DrlyJ3fs8m/kWNPgPg9MvQn89G9vmENf4lok2bkNsuNC0jupRrb7q7bhQ6FZDDtmq6WRdI+Rv2PbPL1NYPC1DTTtG/FkWecTvWGxbygs73+c6zRIdV7yNP3WRahXnUQ6b+xRZFiRKNfdAjzkZ/NQf9zE+QwTubVlTVyJ3fgzab2BoKhdrCAmxiZu2/n/0vzxQrpWgHwHGcp1OqH7Z3mhFZ6SXRxToI1qEoH1V44Ffoxh63lK591i6Ep262o/+IoIecAZfPRL52AzJ0tJ0dLBN96V543hb96Zao2Z7s8H/aAUipfug4ztPFNlW0AzD2ibYFnsdTuacBtDDvJYxpAEswtDUjt30XrdeiN24S7r7MLvszjTiw17Ho5TOQb94GY20p30BQD3n8avBc00qqk9DD/9r+sFP43+OpsU+0LShATSdKmzATecpOA9QRcx+FadeaVmEEnXU7zHnEtIz6pXd/2Pdk9M+L4QePIZMOM62odlBFH7kKFs01raR+qFD4H5GnSpFT1CqADKLOTNdzF6c8Gec6EEsvAMCjVJeiMIpdDWBXDwSEIo9dhR52FjJgqGkxoaHNm5Anr8N6pgYYNg4mn4Ce9Rvo1c/+jCuAbluPPPp/pmVEmyoI/7ueLhaNzSyluZLM9bhpbYs8ZUYqXRTIs9MAtc+mVcjN3/RXB9QBCsjsu2Dp6+F2PHAYfOL/wW4fC7ffqLDbx9CzroTfvA5f/gtijX/wqPrf7z+dCa1NptVULwbD/+2V//zs/xnjprUtKkDNdpQUAQBQkSdTyjkZB6B9X7TuRt3Z9QF6+kUHPWq3UYDgePUx9J2nkL1PNK2k8mxdDw/+OvRu9Zhzkc/+DNwULHwZff85fwXClrW1mYQoDgwbi556CTJqT9j1IMTuslhRVMTf7OeDgnaMrV+C/rmVG/7POt7hAPi2uFRJJZvGBccxItYQn94v5kzuF4deMXAyrTmk5wS69CDd3Pf4OIfEXKp7+kusAxAcw8ejP5qGDBllWkllufmb8PQt4fY5bDz8/Dnot0Pn424S3bAcuftSePcZaGuCZFu42oKksQ/0H4Ie+T9wwreRvgMhVvJYxFIk+uEbyK+Oscv+8lHs2v+cxzT38zkL/PT0nLaH/z2FNheaUtDkem+6ydQJE2awuge13VLyr27CDFYv/rhMT4lOdlXw0nkA7ba2kBF/9nPdPtbcToDFDGsWIf84H77/sGklFUPfehJ54Z5wO3Uc9JPfR7oaf4BYAzJsHHz7X/71YNnbyHO3wYKXYOMK/xblqZnGvjB0F9hhJEw4BD3+fGTwTtYvN0HrNj/0b41/5SnG+Od8/fbnZML//vy/gifTSzX+UIYDAIDjTU+pc2FSoSHIaYB82GRAs7w5HWb+HT32vJp7W7WtCXn0qvAvkBMORY76at7TBGCXveDzV/oH3CS8/zwsfAmWzINlb8P6pX6EwMTSLicG8QYYMQkdfwAyZm+Y9DEYu1/nv8FihtsvhnVLTKuIPmEn/xUR/ncVkunwP443vZxuy3IAtg10p/Xf7DydcjnaddK5AO0GXkElPENtjXy43HUpjN4XJh5iWkmwvPOMH2YPk1gD+uU/IaVEumINsOdR/g2gdStsWgXNm9HVC2D1B8jahbB4LjRvgebNfk2DcvIJRPwSvH0Hw45j0BGTYMguMHw8MmIS9OoHw8YijX1L78MSODr7TuS5203LqH7KMfYlORYdifXto38XXOXpbYPcaWWoKc8BmDyFxKITdGrS4eiUCg2ePwDY7jKWyzjniwYEPQ1gHYRgaWv2pwJ++SLEGk2rCQRVzy+J6oVc9OigzyC7TA6mrd4DYKcBAMiuB3YcTyVAPbR5C2xZA8kWSLRAW0v6cbMf9Wjd6kcVGnpBYz9o7AUN/aCxt39r6At9BiBDR0O80Z+esEl7kUdXvo/cfEFtJpIGTRBvUXfh/1z9FJhPoPiXppRCUhX1dOrkKZQ191d25o0DU1PK95IeQxolqyZAIYa9HHpyKizhsOJduOl8+PqNtbEJy3/+AmtKWk1TOo190C9eVfmvbdx30mRQbxg0vNK9WaJEKoH8/RxI2m1+y6bQ5L+g2s46nln7n/SdgA0OTC23y7Kv2mO0HAGAAAAgAElEQVSnp15RT59IeX5pYI/sJYsh1wTIh3V+g+eFu9FZd6BVfnHRFe8g918Rfr+fvAQZMCz0fi31g955CSyaY1pGdRD06L+7totZ+582ox7p0r+eop4+MXZ6quy9mwMZtonIf1Jpz6RT9LSU0Eeu80p93lJ5PA+5/ULYVHIiaiSQf/0w/MS/0ZORky8Ot09LXaHP3W539KwkQdmwQtb+e+2jf0TkP4UJ7JlAHICkJp9wlTnJdF1ir1AD3x2VTLKwTkPwtDUjvzoabd1qWklJ6KuPwdtPhdupOPDJS/y5doulEmxZjdxzud3op1AqaTvKtIWZ5L+0jZ2T1OQTZahpJxAHYOI01nguj6dc9aMAbjoKklm0mJkXyNznunX3XPbxTM1he4vebdNq5JfHQstmqopEM/LI7yCVDPf92v0I9JD/CumPtNQdrVvhNyfBpjXmrw31dMu2UYXYtO6e8zraUvVtatKDlKt4Lo9PnMaanJ97kQSWuSWOPp5SNmWiAHmn7LXLfanken2hfVuCZdlbcP25aFv11BfX156A+SGXRI3F4UtX23xVS0XQZCv8/nRY/q5pKdVDKTYjKNuVp50uyX+bxNHHy+y5ncAcgHFTU7M91cdSXnqDINJ/V+afQv5YLeSxtd6R5tXHkHt+jFZB2FG3bUBu/W74/Z70XRj1kdD7tVQeBdRNoak2tGUL2rQJbd7sP25r8o+nEqjnVmYcoh5yzZf84lCWcAm08p+2m02PdN1/T/FUHxs3NTU7GMEBLAPMRlUeTXp8IanQ6IHjFLgksLvnC+44x+vztVlun5bcqMKT18O+J8E+nzCtplsUkNsvgq3rwu24/xDkcz8Pt09L8KTa0A0rYd0iWDgH1i1GNq9CFs31iy1pOiNaNX2dkXStdPEfx+Iw8VB05B4wcncYMRGGjkZ2GOkv2SxxWa3e/G1k7iNB/qW1TxRH/+njqunkv3QEQFUeLbPnTgTqAHgkH01pw6ykp0ekHCFG+kJbqrHt1nFQuz9AlFFF/vx59LJpyK4HmVaTmxXvwcsPhNunCPrVvyF245vqI9kKS99A356JLHkV1i5CVr5f3sqRN6Yhb2QVcuvV198QauhodL+TkX1O8vdPKOD7ogD3XI48c2vpeiylU8jSv6La60gL8FfYKSlllkcyUAcgcCu65IT4D+Mx+U2/uNA3BvFYhwPcabegnnYEDGuXwEKet5RO30HopVORMfuYVrI9/3cqvDUj3D4nHIz+8DGkV79w+7WUhAKy4GX01ceQeQ/DqgXhFtPptwMMGwf7nwK7HY7ufgQSa8itdd5jyB8/F562WiGo0X8pu/7lOqbpttIOQMqFZheaUkrK1R+NnZ76bR7FRRH4UETjzsNJ1/t6UmVCSrMqA3b7AqwRrlWaNyO//zT6w8eRkbubVtOOvnAP8k7I9f4be6NnXmGNfxWg2zYgT/wRee0/sPI9xNTWy00b/dvieR07Qp54ARxzjr8HRIZlbyM3nGtGo6V0Ckj+88v+QtLTBcSdwLdgrYjpXfzxhj80OlzYv0HoHYO4U2AUoKCRf/bjAqIAhfyF1gGpLDtNRC95BNlxrGklsHU9XHEUrFkYbr+Tj4dL7NxspNmyFu67Ap67w98nIYqIwICh6JFfRk79PrQ1wa+PhXUfmlZWfRQSnu96Trmj/+zH+Ub/HrS6sC2pJDz+OG5a8qICFBdFRUzfohNjxzrqPNivQQb0i0FjDJx07ktOByD7sZ0GqE3G7Y9efD8yaIRRGfroVcg9Pwm30z4D0N+9gwwYGm6/lsJYs9BPXJ3xd0hUUUnr3v2hsY/vuFiKx2T4v7vn0g6Ap5BwocmFpqRu9cQ7ffxUd2YexUVTkR1cxk91Z3qqDyZzLQnUCC4JtCsLK8/iecg1Z6MGL1a6aSXyn7+E3/HHvwXW+EeP5s3obRfBzw6DJ/5cXcYfoHWbNf6lEtQ1P8ilf1mj/8zSv6S/9O/BShh/qJADACDiPJj0IOGB6xVgqwtxCgqhEks2LMHw7izkH+ejmwMpYlU0MvWvEHbfO03yN/wJt1dLHvSFe+DS/ZHp10HzFtNyLFHDxNK/zNPq28xEuva/iPNgmT13S8UcgHUbEg+6yqNJzVUYqEBsFKD2mPcYcvel6LYNoXaraxfBtGtD7RNAT7nIJv5FCG1rghu+jlx/DmxaaVqOxQRRGf1v116X0b8qrvLoug2J6nMADpxDUuD+pJsjCtDdNICNAtQHz92J3Pyt0CIBmmhBbvxG+IldexwJH/vvcPu0dIu+OQ25eDeYdbvdIMfSPWGN/ruG/+ky+ndB4P4D55Ass/duqZgDAOBI8n5XeTqTC5ApbFAUNgpQm7zyIHL9V8LJCXjpXpgfcmnUWBz99I+Rht7h9mvZnrYm9PaLkd9/BkKOPFkiRlRH/3TYx8zcv6s87Ujy/tJF5qeiDsCYqWzw0PuS6bmM9ihAIcmANgpQ+7w1E7nqU+jG5ZXrw00ij14FbqpyfeRAD/s8sseRofZp2R7dtgH+8Blk2rV21G/JT9i2KDv5Lz36z9hLD71vzFQq6rFW1AEAaIg13JdyeSlRaBSglKUZUHgUoNT2LZVhyWvIL49BV39Qkeb18T/Cyvcr0na39O4Hn/6xLVdtGF3/IfLzw+GdZ01LsUSBoK79pZb97eH57NF/wlNSLi81xBruK1BRyVTcARj9RMsyT/Te9hUBOTyf9v93JV9OQKWMuXUCwmX9MuQXR6GLXw223bYmP8s77B0kT7/cr9pmMYaueNc3/msXm5ZiiQKVsgX5bFOBo3/wbWMm898TvXf0Ey3LipVbLBV3AABisdi9KU/nJT2/upGned7XYt70UnIBrIGPHk0bkf89Hn336WDaS7bCbRfBxhXBtFcoQ0ejJ14Qbp+Wziyeh/zqGLtG3lI4pYz+i5nvzzP699S3jb6N1HmxWOzeAhWVRSgOwNgn2hao8u+Ep34uQJBRgHzYKED10Nbs7x0w/Vo0VV79dV23BJ67MyBhBeLE0C//GYk3htuvpR1d8Q785iRo2mxaCjgx6DcYhoyCvoPslJApTNmOIkf/fpRcUeXfY59oW1Bi70UR2r6kcZwpKdc7MyGyX4NADL88cLc/CaXnEr3Zz3d6rNv/0HK1la99ixnaWpHbvo9uXImefinS2KfoJlQ95Lqvghty0tfuRyD7nhRun5Z2dMMy5FfHh1/Yp+9A2O9kdKfd/C19nTgyfDwM3BEG7uTnhLRuhU2rYNsGNPM41YZ8+DbMeSjcXQbrjVJG5zmPFTj67+oAdLv0z2/SU3/Xv4QLKVdfjeNMyaM4MEJzAEZPT8xfdEJ8SsLT/Ro8ad8gyLfBaWss9Gyswzba1kkwg3rII1fB1rXo2VcX7QTI3EdgyesVEtcNjb3hrEB36rQUgW5Zi/ziKNi2sfKdxRv9GvyHnuFvyjNyD+gzoOdLxYAdYdh4IMflbcNy2LQKmfY3mPMwJNvArdjS7/oi7EhukaN/1Y65/4SnKEwZPT0xPxyxIZu3pSf2muh67t194/LR/nGhV3qTIMlsFZiZkOhpk6CCHwe0UVCh51gqwx5HwHfv8fdGL4REM1x+EKwOebe/Q8+Eb/0z3D4tPolmuOJoWPpmZfvZYSfY8xj09Ethp0lIBUL66qZg+TvIPZfD4ldtHkM5FGL8gxz9dzfS73rM8/+TGf23ubAtpTSndG7MiX1+zNS2yiyJykEoOQAZxkxt+0A97s5eEdBeF4ACcwEs9cW7s+Cnh6JzHiookqf/+Wv4xr/fYPRLV4fbp6WDm86vrPHvPwQ9+Tvola/C+TcjO+9WEeMPILE4MmZv9PsPob95FT32XH/XP0v1kDeXbfvRf9ID9bg7TOMP/lR8qHx3XOMydfRQR9glJumpgOwoQCFbBRf82EYBaoLmzcich/xZoD2O7P6jWPEecu1XwAuz6I+gZ/4c+chxIfZpyaDP3408cGVlGo83oMd/A75+A3LIGaFWdRRAGvsg+5+C7nsSpBLI0jewI6ECMTn6L+BYZtyb8KDVVRIeL6gX/8WfFqdCzV41YtYWnhD/boPIH/s1CH3j0CD+VID/rc/hBJTsDBToAPR0vNhzLJVDBA7+NPqVa5B+g7d//vpz4Ll/hatp+Hi46u1w+7SgngebViA/2Cf4PR5EYPJx6DnXIkNHB9t2GejS15HbLob3Z4df26KaKNX4d3e8GAegp2NZc/+eQlKhOQVNSSWpeuGu01N/KkB5oIQ6BZBBvdRdKWVGwlOSbtZOgVC0J9Xz4xwvtL+b6kUVXrwf+fkR2xUN0mVvwey7w9Ujgp4b/g6DFhAR5JovBW/8443w+V/DJY9EyvgDyJh94LJp8Jkfm5ZSm4Q4+vfwN/tJV8idoV7qriLVBoIRB2DCDFZ78K+EW0QuQKn1AAp1AsrxGi3hsnoB8ttT2tf5a+tW5LqvgHrh6ph8PLL7EeH2afEHUo/8Dua/GGzDO4xEv30HespFwbYbJAL66cvQz/4YBo0wrSZ6VCr0X0zf3dqtHJn//gD4XxNmsLq4zoLBWFB7+Sfp29Yav6NPXD7dLyb0iUPMrgiwFIMTg1MvRoeNQ/4RcvW9voPgF7NhxK7h9muB5W/Dz4+Etubg2hw9Gb3kIWTwzsG1WSkytU7WL4XfngqrQs0bizZVkPnvKrSkoMlVWlL6QK/eqS+OeoQAv8yFYyQCADDqEZoR586kSzKRLhGsmUhAqVGAbo/bKEBN4rnw8O+QW74Tetd64GnW+Jvivl8Ga/z3Pxn9yYzqMP7QMaAZOsafEtj7eLN6okIYo/98tqeH0X/GvqXSq+CSLknEudOU8QeDDgDArtMSU1Ke3p7wtPNGQZB/jiXfc6UaausEVB9hb/M6eAT8T+j5OhaApa/Dq48H195Bp6MX3IH0HhBcm2EyeCf0m/+0TkAlr9ul2Jhu7Fd20Z+Up7fvOi0RWtW/XBh1AAAc0TuSLisT2RsFZaIAuaZ0i4kCVDIh0DoB9cunL/MrwVnC596f+5XygmD8/ujXbyip3HSUkP5D0K/fBDtNMC3FDEFfx4vd8Kcnm9Sl6E/W6H+lI3pHCYoDxbgDMG66+6QHt7dlRQGKLg5U6BcgyKkAS30ydl/0uPNsKogB9J2n4fXpwTQ2eARc/ED1jvy7IINHwGVTYegupqVEk6AT/wq2S9sn/rV5ige3j5vuPllYZ5XDuAMAEIPbUq6+2pbeLbBiywKLwU4FWLqSXvYndg126Kh6yMP/F0yN/F590HOvh0HDy28rSgweCRf9G/rUUeXAsEL/+WxKD8eU9LK/tPFPufpqDG4rUVWgRMIBGDM9+YYqtyWKKRFc6YTAQrG2oG7QY85Bxu1vt3U1waI58O6z5bfjxNCzr4Z9Tiy/rSgycg/01O/7K2RqnUqG/gvpp4DEv+2W/fnJ7reNmZ58owTVgRMJBwCgMZX6Z9LlsTZPSbhpJyDzZMEh/iKPl9qepf7oOxBO+KZpFXWLzLoTUgGM/o89F47+SsVq+Rsn3gtO+g7Ybal9wkz8y3Gekjb+rj/6T7o81phKRWbXsMg4AKOeZh3CrW0eLQkPUtpNQmCpUYBSEwLtVIAFQU+8ABn9EdNC6pPmzTDnwfLbGTAUPfXims/fkMY+6Ddugj61kd+Qk3Kuy5VK/Ms87pr41z73TwvCraOeZl1e7SERGQcAYNfpyXtcl1s7RQGKzQEIOiGwUKwTULsMHQWf/L5pFfXLwpcD2RZXD/9C5Mr7VgrpOwg9+qumZVSGsEL/3b22QJvUHvpPj/5dl1t3nZ68p0CloRApBwBAHL0l6ek7nRICu0YBsolKQmA57Vuiiwh67nVIY1/TSuqXp28Ft8wdHoeOhpMvBIncJa9iyKcvg4HDTMsIlkpfi8tN/Mse/dOR+Jf09B1x9JYSVVWMyP0adp2WetHzuDnh+p6T6++T3OEJZJYIZO4zj+lyTLs8n/Ox9nxuIcftrbZvY/eFyXVeZMUkW9fDO8+U9xkicMqFyA4jw9dvkr6D0OPPM/8bCvtWzDU82wZ0ZyfytpF9r5C2WW661n/CBc/j5l2npQLevKJ8IucAAPRuSN2S8vThVrcCCYHbnZfjxEJfW06/lugTb0DPv7Xm54yjjL7zFGxeU14jw8ejH/9WIHqqDfnE//OnsGqBoK/LxYb+CzxP6Qj9t7pKytOHezekbimwlVCJpAMw8gnWos7NSY+NbZ6/b3JJCYGFPC6GoJ0PS6TRE76BjNzNtIz6ZtG8spvQ/76yfp24voPgkDNNqyifSl97i7EbuY51SfxLKrR5kPTYiDo3j3yC8pNYKkAkHQCA8TMS96eUmzIJgSnt4rDl+jC6PtfT8U6Pi4gCWCegbpAZN6FTfgpLI7Fkty6RJa+W14ATg/EfDUZMlaKHfwEae5uWUTrlXnPzjf4LGRz2ZGeym9J01n868S+l3DR+RuL+7iSbJrIOAIATk5sSKZ5Lr5/snBBYqOGvxFSANe71QaIFeeh38JPD0OvPRec9alpRXaFb18J7s8trZI8jYNBOwQiqVsbsDYNr/D0o1fgX22a3x7IS/9LGP5HiOScmNxXWmRki7QCMn5p411NuanVx0+GU8KcCbD6AxXORWXcifzoLfn4ETL/efrRhsPxdSLSW1YQeeDoSiwckqDoRqN5E1kpff4MO/fvr/Wl1cT3lpvFTE+8WrTtEIu0AAEycmbzZVW5o9ZS2UmsD9HQ831RAd9ipgPrDTcGCOfDPi5Bv7YLe+l102wbTqmqXpa9T1g8o3gATDg5MTjWjJ10I1eYIVeIaG2Tov0uzrkKbC62e4io3TJyZvLkIZUaIvAMAEPe4MeHq3MyOgWXXBugJmw9gyYcqbF2PTP87csFouOxAdPa/0FULTCurKeSNaeU1MPEQZPz+wYipdnaeCA1VlAdQ6Xn/YtvMdazLmv/MTn8JV+fGPW4srDOzVIUDMHZmcg7K39s838Oq+FSAdQIsheJ58OFbyLXnID89DL3mf+CZW6Fli2llVY0CrJxfXhuj9qyrwj89ogp7HG5aRWGEYfwrEfp3/fA/yt/HzkzOyaM+ElTNr2P8kakbUq52PxUQ5KqA7ijXiFsnoLZp2Yo8PwVuOB8uOwD+90SYfRe6dT2quUJVlh5p2lTWy2XsvgEJqX5EBD3w06Zl5CeMa2zAWf/Zof+UqzeMPzJ1Q0FaI0DVTArJL/A+OIG/J1w+Ghc9IO4JTgxEQURBhe0W+yqFHcuFauHbvhbapqV+WLfMv737HNKrD4yYgH7y+zBmXxi5m/26FIJbxu5/4sDgnYPTUgsMHG5aQXCUOu9fbJvdHZNcoX/mqMPf5Rc5J6YjSdU4AAATp6deWXBcw3WtLtfFhFhM/N+5Q9oJ8MT/T7ZBzjzOdaynx5DbCejO2BfsWBR4nqU2UA9am2DJ68g1X/bXpe/6UXTyCTB2P5hwMDJgaPUlaFWa5s2QSpT++l59YNi4wOTUBFFfClilof9W18/6V+W6iU+mXsknP0pU3VVnwozkjQuPb9ivzdML4q7gCDSknxPIbfAzFGK8CzHQ1gmwlIKqv5Jg/kvI/Jf8YwOGwC57oSP3RCYfD+MP8C/U9ewQbF0Pqxf4zlOp9O5fexvhlEvvCG8PXAnj39M5ZYT+FdoL/rSl1/x7ynUTZiSrIvEvm6q8ysQ8rk0K+7SKHhnzBMeBeCYhMN9UQHcOQrdRgW6mAqwTYAmCrRvgnVnIO7Ngxo3QfwjsMBKGjYU9joJd9kRH7w2DRgC19ZVRAM+FdUuRZW+jH7yAzH8e1i5GmjdDqowpgIZe0LtfUFJrg1jMD5lGLR+lUsa/0CV/+RLGOx1TSM/7Jzx/3j/p8WzM49pudUeYqnQAxs5MvrXouIZrWmFyTNghJn4uQIwCpgKyqUQ+QDFYJ8CSTXp5IVvX++WH5z4KTgzp3Q/6DYFx+/vRgomH+g7CoOFIn4GmVReEqsLWdbDhQ5j/IrJmEbJqPnz4hp/sl2hFPDe4Dht7V9eytxCQATv6GwOt+9C0lA4qlRgd1Lx/jtC/q36t/3TofyMe14ydmXyrLL2GqEoHAGD8jORdC49vmNzq6uUx/CiAAE4mAOAR/XyAYs+11BeZKYOmzf5tzSJ46T7EcfxcgliDP13QdzCM3A0dPRmG7+pHEAYOR/oO8kd8sRjEe/nTCkEui1PPT9RLtvoTol4K3bIWtq2HTatgzUJkyWuwegGyaTU0bQQv5S+dLKboVikMGGaXAHalobefCBgVB6CoRL4ijldk3t//r5cJ/af8nf5UuWbXGcm7etQeYarWAQCISfyapJfcq1X4TDyVXhXggThpq9qTcS0lH8A6AZYo4Hn+LZWE1Qv9Y4vmdv4KxeL+BV/ED4fvOAb6D4X+O6B9B0O8EeK9oaHRf9zQ6J8fbwQn7ifgJdsg1QbJRPr/Lf6xZCvSug2aNsDm1bBxpa/Fc5FES+WNeyE0b/YdFOsEdOClolOfwrTxL1SLdjxQL73kL5UJ/ev9cWm4BsqYqjJMVTsAY6e3rPjghNjf2lz2jDvs4YggTo6lgflG+YXmA3SHdQIsUcNNgbvNf9yyFbasa3+qLr5mLVt9p8VOA7SjTeuRtUtMy6ic8e/pnGLn/Ts93xH6z8z7J1x9T0X/NnZ6y4oClESWqnePJ053n1Tlr60e2ur6czMFVwkkz7Fcz3U3uinni1rKuRaLpXs8149WWNqRRFt5SyuDoJLGv7ukv0Jen2fe38ue9/dQdbhu4nT3yR56qQqq3gEAmDAj9TfX49pW168SmEw7AFnRm873+Y51fdyVSjoBFoulfFq2+rkIlnY0adj4F0M5xr+n1xRqA7TjTtPGv8315/1dl7+MG5S6vvsOq4eacAAA4g1cl1Aeb0k7ASklvdol7QkU6xF2Pb5dCKlIq17o6dZZsFjKp60J1kck2S0qbF5ttv9KXQMrMe+fCf17Hev9W1wloTyujvy1SIWRpWYcgNH9kx84nveXhKvzW11/18CO/QK0Z28v+3F3c0U5n8vxLSrF0Sj1PIvFkhs3BeuXmVYRLTauNNd3ENe+cpP+ypn3d5WEq/Mdz/vLxOmJ8napihBVnQTYlfEz3McXHBef0JrijzGIOXE/4SnmgKB+fYDuqgRm09Pz2yUMauErA4rBJgVaLGWhS19H+KJpGdFh43Izg4tKzfv3ZPy7/r/QgV865q+A66VL/aagNYXrKX+eMMN9vCf51UbNRAAyTJiR+mtK+VOLq7SmpwI8r92py/2BU8TjXP/PhU0KtFiMIusikPEeIeSZ28LvtJJJfz2dU7Lx9++8dOi/NR36Tyl/mjAjVTOh/ww15wAAiBP7U8rT+1qznAD1QLvmAwTlBNiVARZL9HjveYjCsrcIoM2bYd3SkDsN4NxCkv4CNf4d8/6t6aS/lKf3iRP7U4/6q5SadAAmTG9dqvDHNo85ra7Slv5AO+UDFDPXXwjWCbBYosXmNejbT5lWEQ2e+ke4SwDDMv6l9JHr2p81759SaEvP+7d5zFH444TprSF7T+FQkw4AwIQZqWcV/tDmsqY1lU4KzEwFZH8DikkKzDcVYJ0AiyVSyNLXTEswjgIy647SDGepHZZ7bqHGv5CBXEFR3Y55/4QHrSmlzWWNwh8mzEg9242aqqdmHQCACU8m70ipXt2a3rM5qVlOQHahgHxfWOsEWCzVydO3Ebnd78Jm82pYvzycvqJm/PP13TXpT9uL/ZBSvXrCk8k78rRU1dS0AwCwaXPq6pTHXzJJgUkvhKTASjsB1hGwWAqjrQld/q5pFUaR2f/yd1ysJMVel8Iy/gXN+/s2IellJf15/GXT5tTV3cmvFWreAThwDknHda5OeHpvS3Y+QCWTAqGyTkAp51ss9YgqMuVn9ftzSSXgpfsr20dQ1y4jxj+r2I+XLvbj6b2O61x94Jwq3uWnQGreAQAY/3Tb4pjDVQmX51pSWSsDNIcTkME6ARZLbfDqf5Clb5hWYQR9+QFY8EoFOwjo/DCMf/b/M8Zfs5b7pZSEy3Mxh6vGP922uBtFNUVdOAAA46enXhDkqjZX52ciAW77tuTpb0hXR8A6ARZL9eMm4fbvm1YRPsk25JGr/Ph2Jag249/p+p6u9Od1jPzbXJ0vyFXjp6de6EZRzVE3DgDA+BmJB1yRq9o8NrekspwA6PiyWSfAYqk93nsOXp9qWkWo6Av3wJIKRT6q2fhnJf21ef7Iv81jsyv/v72zj5OsKu/87zm3qrpnAgNBDB8hijNdPYDBXXRm1SjQzECMxrgE3UlMVqNGTVzdjR8/EoOCxgWEQAx+8B3UiEHjy6wwrhhcmOmeHsQAmVESiAzTPWFgBDMw4rx118u95zz7R92qvlV969Z9rdfn+/k03fe81Smmznl+5znPOUWfWD1d3dKmR0PJSAkAAChus2/Whq8vGaCkgSqHEAFewn7wRQQIQv+gNXD7x2tfEzwK2GXQd6/Lpu1eG/84r+Nj/KtcswElA2jD1xe32TeHfKWhYeQEAACs0c71jsEN9ZsCm+4ICAocCUr3+/CJCBCE/mHuAfADtw39MGG7DN56M/AfezNoPKXySYx/gjm6YfyN96Y/3LBGO9e36dFQM5ICgGbhEOzrbeZblh8PbAkKbPcBg0+6iABB6Gvo7/4nsP9hcDdvxes2z+wDbbk2/Xb71fi3K+P97Qb9tR73s5lvIdjX0yycNq0NNSMpAABgYhoHlKWuqxreUtKMsnsJhOGQIiBsPIBfWhwREGXwRS0vCKPC4hHQ3/xer3uRHZUF0GfenO65/zTnnyyMf5BHwGv82b3oZ+m43xZlqesmpnGgTa+GnpEVAACw+q7qbtL464rBTON4oOlTEdApL43ygjAKPPsk6PNvx9DdEFg+BvztG4An/i29NtOcc3ps/B2zdNyvYjBDGn+9+q7qSN8SNdICAADWbHfuB5trKxo7vSIg9TsC/NJEBE/lXH0AABxdSURBVAhCb3jgdvC3/6rXvUiPY78Ef+sjwE93pNfmIBp/77M7h3Or8dfYCTbXrtnu3B/Q45Fg5AUAAExM67uNomtLmnc3bgv0igBguRAQESAIgwsz6PufBN/5qaEYHvzQXaDpL6XYYIrlu2n8PfO01/jXz/qXNO82iq6dmNZ3B/R4ZBAB4FLcWr2NmK4pO7x/0WkRAWneEeCXJiJAELqP0aBvfBi463ODOzxKR8D3fA305fcCOqU4tmEw/txs/BcdRtnh/cR0TXFr9baAHo8UIgA8rJmxb9XAx8saB4dWBAzsTCcIGWA06Gt/AXzril73JDp2GXz7NTXjX15I3l6c+WFQjL/GQQ18fM2MfWtAj0cOEQAtFKedmzTz1SWNY4tOy5XBwyAC4tYRhGHFGNAdNwBf+BPwgAQGcmUB+MQloDs/VfvCn8QNplynR8Yf3HzF76LDKGkc08xXF6edmwJ6PJLket2BfqQ47dw4vzE3VrLpKmIuUI4wxgAUoIgBotoHjtwfYOk57N9ok8Zu+6341fXmISC/XZ0o5QVhmGEG7vkGaH4n+J2fB858Vd8ODz7yDOja16YX7Z/2dmIPjb/h5it+Sw6qmviq4rRzY4dejyTiAWhDcdq5XoOvWjTgRc+XB5leewJkS0AQsuPnc7V7Anb8Pdgu97o3TXB1ETzzd6DL1qVj/LNw+feJ8V/UjEUD1uCritOjectfGEQABFCcca52DK4s6doHqi9EQLv6YfLSrCMIw0r5GOimPwN98CXAw9vAuvdfC8/3bQZd/grQl94LHH4mhQZTrhOY133jX6od576yOONcHdCzkUcEQAeKJ9tX2Yyr/UWAWyiuCFhm9FufRQQIQs94eh9w3cWgv7kYeOrR3vRh7v7aXv9n3wY8NZdOm/1k/JPOnQxf428zri6ebF8V0DMBIgA6QpuhDx+2r3QMrlkuAjiZCAj1zMFbAu2I694TISAISxgNPDQDfPRc4LN/DH76scyHCAPgfQ8Cf/tG4NrXAj/5Qe2LSlJpOOU6QS7/KF/p2/oc2viz38r/msOH7StpM0bkqx/jI0GAIVi/C/bOdfbHTlyVRwn4cD2CbgwAFINAtbi9+gczajBgp2cAsYIDw+SnVUcQhpnSMeBHm0E7vweMHwf85ibwxneATlkD5Fckbp4rC8DBn4Hu+AToJ3cC5aOAneIXFmXhFQy73+9XNqHxrx/N9jP+h47YH1u/C73ftxkAhmaa501YQZtRyvI1dq5D/oQT8h/NAVeszAErLcKYAixVs81UN9De0wEI+LtTnm/5gH+yoH/NuP/SQ/MJEYSUIQJWPQd83luA4suBFceDTj4dWLkKyI8BhZWA5VljaQeoLgLVMrDwS+DZn4EXjwDz94NmvgKUjgZv+8UhbnO92O8Pymsy/i1H/TRj0QEc4OrDh+0ru2H8u2FvuoF4ACKwfhds3mR/bP5gXi84+CiDiV1PQE4BANdEQCdPQFBe3GOC7ep78xCQ3w7xBgiCP8zA4YOgOz65lDa2ElhxHLBiFXDcScCqk8FjvwIqHwOO/gI49iywcBgoHQHsSrZDq5urfiC9YD+/vBbj7zQbf9aMK4sn21fRtLj9oyACICK1fSX7Y/Mbck7Jpo8AXKhbyNAioPW5WyIgTH5adQRhFKks1n4OPd1I6snQGRHjX7JRNeCrJiXaPxYSBBiT4oxztSb+SMnBsQXNKEe9Nrj1Oaicb90OwYFxXXhBdSRAUBD6m7jjNG5AcZhgv9a0hMa/bIAFzSg5OKaJPyJH/eIjAiAB7mVBV5QcHFx0RYDtHhFsEgEGTZGrTYSJdvXLb6QFjNy4gzoIEQKC0H9kNZ6jrPr9ygctgtrNby1zJrvn/G3X+C/WjP9BDb5CLvlJhgiAhBSnnRsN+IqSzfsXal86sVwEAM0DIawIaPfs5w1oRxK3Xhb1BEFIl6zGcFSXf5i5q1NeSztNxl8DCw6jZPN+UzP+cr1vQkQApEBx2rlJgy4vad7tKwL8PtxxlHFQWicRIN4AQRguslz1p7nf3/rcztPZ8rev8de8W4Muly/2SQcRACkxOWPfyqwuLxvsrH1QgaoGNAOMNiIAHf5OMy6gXRtR8tOuJwhCPHq16o+z3x91vnPnTM21ObTkGv+ywU5mdfmkfKVvaogASJHiTPU2wHy4ojGz4DAWPSIg0q2BYT0DbdMSigDxBghCf5Ll+Ey639+aFmVe88yNhpeM/6Jr/CsaM4D5cG2OFdJCBEDKTEzru4n5QxXNWxZdEVDxiAD2fNBDu/2DBlLbtABvQNLJoFM9EQKCkC5JxlUS0d9u1d9pDooyt/HSS9WNf8U1/osOo6J5CzF/aGJa393hnQgRkXsAMmDNduf+x6YKH6pAH2KH3sZQYAYKFpBzP+0drw5ufQ7KW5bmyWAOvhyo050B6FAmqK7cHSAIyclyay5w1e+TkGS/3y/PY/yZAafu9jdAyTGoGr4lZ6zrVs9Wdwf0VIiJeAAyYvVsdbcifZlt+IYF22BBtwYHugUZy48JJo4LaCnYaZCLN0AQ+o9erfqX1XcLh3H5h3TzNx/zQ3Own2Ys2Aa24RsU6cvE+GeHCIAMmZjGgf1G/6VjcPmizYeXnxDwFI5r+APdcRxcrrVOEEknIxECghCOrMdapAUBx3P5h8xbZvwdxqLNhx2Dy/cb/ZcT0zjQ4d0ICZAtgIzZMAsHcK6Z35A/WHLMpQw1aUBgBvIWYMHjtc9kS6AlI8g1H8bln3RbIG5dQRh2kojkpO5+3/zsXP71pjUDtq5d8FPSjLJj5hjqE5Pb7Zs79FZIAfEAdInijH2zIXywrM29C3opONDx2xKIM6D8yjbK+GwJ9GpbIGz7gjAqJB0Pabj7l636E7r8A8rWV/2OWQr2q22RmnsN4YPFGTH+3UIEQBeZnNZblKZLy5q/s+CYJRFQH29t9sh8B1qULYFGGfZJCyDLbYE06gvCINON8ZPmqj+Ky7/NXOYN9msYf8egrPk7StOlk9N6S4ceCykiAqDLrJ517stp69KK5k8HBgcC0RV2u7ym9jLyBogQEIRwdMvwZ7Hqb32O4KFsF+xX0fzpnLYuXT3r3BfQYyEDRAD0gNWzlX1HjuoP2AaXLdr89LHWS4NMilsCaXoDRAgIQnz6wfDDLz/Cqj+uy9+g6XKfY7Vgv6dtg8uOHNUfWD1b2deh10IGSBBgj1i/CzbgXLf3QvWzsqb3G6h1hgnjAAqqFhwIeO4LYCzJNcbyAEAgeoAguPnegNZ2/PBry69Mp3ayrC8I/URSURu2flqG369skOFvTTOeZNexoBmouiv/kmFUtdkFxZ9cu818vUOvhQwRD0CPmdhmvg7Q+8uab1twDBpHBdlnSyAoLgBoq8Dblm/U8fEGJN0W8Gk2MuIREAaZND6/YcdZ5PGa4qrfOye1GH/DtbmsfsTP3e+/DaD3T4jx7zniAegDJqade/ZehMcrtrVPG7xPM6wVhjBuATkFWASA3AVxfQUedrUf1xvQruyyeimU6YR4BIRBIg3RmpbATmvV3+nZ6/J3/6O5FulfX/WXHdaO4RutvL5xYiueCNF7IWNEAPQJtQGhPzA3lXus5Jg/N5aa1FwTAQWvCGi3JQA0i4Ioz/CkU0tmWkZehIAw7PS74W9XN4nhBzq6/MuGUdFmzhj61NpZ/ZkQvRe6hGwB9BmTs85nmPC+ksN3LmgOvyUAJB/I9bQ42wLt2mvbfgIY6bQjCElJ67OY1rZakLs/beMfxuWvGSWH72TC+yZnHTH+fcbweABWDo85KE7rO+fPL8xXWc9pi/6XBmgFE8ZU7fZAxQApz5ZAqzegU4Bg0HNTvYy2BbzlwpQN0454BYRu0q3VfpSyWbr7W9NMczKbWpKtgYpxXf6aWWv+NLH1meL26lzH/g8SQ2Jvhmba5LeecCIWD1d63Y+02feL3J8Z8LvHLHXGCkUYs4C8uyWg6lsCdbyxAcDyf92oz8ugwMcwVVIr2412BMFLWlN+Nwx/lPIx9/qBpVW/5tr5/oq731/R5lEF+sILn+Pc1KH3g8nKE8boq4cP9bobSZGpcgCYv8C6kEHvzVt0ybgCxq2aEMhRS4Ag0FkE+KWFFQLUpoAIAWGYGTTDn9Wqv12gH9cMf1kzygawNd9O4M8Wt+ttnd6C0FtkihwQHr8Ip1Zs6z2WoveMW/Sr4xZhXC15Ayhtb0C7tEa6T2a/CoG02xKGnzQdvJkbfjcxrOH3S4u46mfPqr9sXOOv+Zfa8OfG8vpzp2/FU8FvQugHZFocMOan1JuY6D0FS53X6g2IvCXglxZlWyCJEIhSLmrZbrYlDA/9bPTblgsw/H51Eqz6gSWXf+uqv6rNPcT8ueKs+WZAb4Q+Q6bCAWRuQ/432Jj/YRG9ezxH1grLDRCM6w3wSxsFIZBFe8JgkXYo1xAbfu+qv9L4+l7WmvkLpNTnJ2fsfwvokdCHyPQ3wMxN5d9Jyry7oNS6+pZAweMNCIwNQIzndmlNeV0SAnHKd7s9oT/ppdGPUj4Nw++XFua5Za+/vuqv6iWXf9WYXWzUFyZn7S8F9EjoY2TKG3Dmp3LrDfGf5pR617gFjNdPClCG3oB2aU15AywEsm5X6C5ZHdgadMPfmha06q+7/E3tXhLHmC8qppuLs87OgF4JfY5McUMA/xXUntncuyzwnxYs9dIxNzag4Q2A596AOq1XQKUtBNqdGAiqE9hORuV73a6QDYNm9NuWjRjZ75cWpkybc/2NVb9mVGp7/T/WoJvXTjlfpP/trSUMIjKtDRHzG/LrmM07Fal3jVuwxltiAzoGCSLEc5S0prwuC4G4dfqhbSE6WV7LEqftNAx/0hW/X1qAux/wOdffiPCHNmy+SKS+VJyxdwX0TBggZBobQvZM5d9OyryjoNSrGt4AVwj4egPibAtESWvKa1NgkMVAN19DyNbYJ3mNVAIAMzL8rWmthh9Lq37b1O/xd1f9xtzLRn157az9lYCeCQOITFlDymNThTNt0u9QSr1jXOFXx5R7b0C7IEEg3raAX1qnT1UvhUCSev36OsNONwx+ktfphuH3qxtXDLS4+71BfrYb5FcxjLLBL40xX86z9eXVs9XdHXonDCAyRQ058+dbl7Cit+cUvX7MEyRYv0Uw1raAX1rHWICgvITbA3HKJ62XBBl1/nTL0KfxmqnEAnTY3w/KiyMGAtz9jXP9hlHRgGP4e2T4K8Ud+vaA3gkDjkxFI8Cec/FctnJvsxS/vaDUWWMKGIu6LQCfZ7+0tIVAp7pplE+rbhr0+vWzphdGPq3XTy0AsMeGH8vd/ZUld/8j2tBXSDu3rP0hngnooTAEDPt0I3h49ILcyxX4bUqpt44prBhTtSDBguV6AxAzPsAvPY4QaOSnJATi1kmzfhb0Y5+A3ht3P5L2KdVYgBhu/nbpYcoFGH7tRvdXXHd/xaBkjPmqAd1yxnbn/g69FIaEfp1KhAyZ26B+n416a96i3xmzgLGWuwNixwe0S48aLNiU30diIK02hOxIQ4SkbfTDtJkkuM8vvc0+v/dMf8V199ua/5GU+erkjPl2h14KQ4ZMZyPK7imcbFHuj4n4LXmlzhlTNSFQcIWA8osPAPpPCIRpI+16abchxKdXBr9jvd4bfmBpn9+4hr+qGyt+2MY8yEy3anb+/sxZHOzQU2EIkelrxNl7fv7FWpm3KKXeXCA8zxsfUA8UjB0f0C490fZAh4L9EAwooyob0txi6Dej3y49ypaAj7u/HuDXtM/P+Lkx5muWUbdO7LAf6tBbYYiRqUoAAMxfYF2ogf+eV+rNeYV8U3wA+kwINJXJQAwkrdvNNoeRLGIJMgv+C2n0g8pkZPg1mvf5bQPbNuZrFvD14na9LUSPhSFHpiShibkpaxMT/VFO0e8VlCc+QAVcK9wXQqBDhX4PBhy1kZh1wGCmwX/s+2fktjIw/PXre22ztM9fNYBjeAsx/8PkrN4cosfCiDBq044Qgid/FyuPHs3/kQL/Yd6ijQVvfECWQiBOetsyGYqBtNro59dLSrdPBGQeC5Ch0Y+SHsLwVz2G39Y8bUDfOP54+x9OuwOLIXoujBCDNq0IXWTvRpyiTe5NRPSmvMIrCgookHuRUFQhgDZp7dJD3RsQtkzGYiCLtrKiUx/78ShfK12LBUjJ6LfLi+oZCDD8jrvir7Jr+A3uY+ZvWsr55sQ0DoTovTCCDMKUJfSYf9+A0x3O/YEi/EFO0UsbHgHVQQgAy08NAN31Ciwr26GS7P33Dz2JBYiwp9+pzTTSW6P6sdzwV02Tq//HhvGtHDnfWjODx8N0XxhdZGoSQjM3NVY0pH/fUtiUIzqn7hHouDUAZCsEOuW1LRuiUpYjREZfjSy9DqHaTtHoB+WlaPjrrv76it9hflAbbFZsfXtytjLfqfuCAMgUJMRg/vzCpFZmk0X4bzlFL8lTc4yABfceAdfox44TCMpLXQyErNjNETMso7Ob2wpRDH7o8iHKRjX6fnk+bn4AMMa9xAfNe/w2A47hn2jG/7GM2lzcUZ3r8A4EoYlhmWKEHrBnw9gEWL+RmN6Ys/CyAgGF+ncMUG17QKGNEAh7oVBQXuRYgKhlQg6PrEbRsIzOrARA6HbbFEy6r9+pTBTj33pzH1zDj5qb33bP8lc1o8qAo/EAE38HZH1n7Uxlb4heCsIyhmWKEXrInin8OlPuDYrpDZbCVEG1CIH6hUJIeHIgKC/sJ7kbgiBi0dTJ6rV7GSAY6bUzNvhB5RKu+NnUftcv8Gky/AbQBrOG+DZi57a1s/hZyN4Kgi8iAITUeOLVOKlczV8CxiWWwusKCqj9UCNGIPSXDsHnuZVuiIGO5WIMIRl1/sQSGAGVkhrzsOWi3vwXENHfMPwGqLqBfa7h/z4It48X7NtfcBeeDdljQQhEpiIhdXauQ37VcdbFTHRxjujiHOH4uleg7hGobw8QuT/eBqIEDCbJy6xsgmE17CMykRchBWOfZtmoeS1ufubaT93N31jx63pgH446zN8l5u8eOaa/u34X7Ag9F4SODPt0I/SYufOtDUbhv1qg1+cUTeTdOIG8Z3tApXWfQKe8MPlxy4Yqn+Jw67eRm+r2QIfGor5WmuIgzln/Nqt943Hz266b3w3s26vB31MG/3dyh56J0HtBiES/TSPCkLJnY+FFMOb1AP1ujnBuXtVODBQUNQIGG9sDfl6BOGKgU37qBj5JnVEbiiGtchxhkaZAiCMI/Iy+Z7Wv2RvYx7BrF/fAYfwQ4Dug1PfWTld/GvFdCEJkRm3WEXrM3otwgtbqdWzU65Si3ykQTqyJgSWvgNUSKwCE2CJYViiD/LTqxK47KMM1ogVO4j3IQiDEzfeJ5Pfu7WvPat92DX+VccgY/kdS5vuWZb4/sRWHQ70HQUiBQZlRhCFkbkPulcz8WrB6bU5hXd0rkFfUdHpAuT/kflq7IgbClkmzXlbt9Jq0tgfitpNG9H8Uo881977h5mh+27vaN9gFMncS0Z2TM86PQvRQEFJnWKYYYYCZ/y38mnbUa2DUbyui1+QVTsoTkG8JGgzcIgDii4E0y2RZvx9eoxtHAZO+Rtbn+/1u6fNx8TcMv7u3bxs8a5h/AGX+n5UzPyjejadD9EIQMkMEgNBXzE/l1mvCq8H06pzCVI6AvAXkqfkoYaZiIIty3WpnUOi2VyBpuRBG33uEz2aGrRv39c+C+C6LcVdx1tkZsieCkDmjNu0IA8LDm1DIP2P9FqAuIvBFOaKzvWIgFyAGgJDbBMsKplAuatkoDMpo7fnNfxHKBpVr4973M/pOq9FnfphBWwGz1X6uvvvszahG6L0gdIVBmVKEEWbvRpyiWV3IRl2oCBtzil5Y3xaILAbanSZYVjAE3ThFMIpkecwvqLxP9D7Q2ejX3f2O4X2GMU3KbLPIbJOv4RX6HZmShIFi93ljq1XObGDmCwi4IK/o+a1iwIJHDAQFEALpeAeS1klSb1DJMqAvSh0f1z6wPJBPc+3LeFqNvm14PwPbiWi7cdTMmfdUHovRQ0HoCaM27QhDxJ4NYxMaZooMn28RzreIVucIyFlAjqjpSGFDDCDAOwAECwLfCiEYtTiBXkb9d6oTYPDrq/wmo+8G8jnMcFz3vmZ+TDN2sKIdFtSsfBmPMKgMypQiCIHMnYfnG6XOBVnnEfhci+jFdc9A7TfBoubvI6h7BggJBIFvpQiM+gjM+g6AIIMPz0ofS679WhQ/N9z8rtF/iEE/BOt7lDE/nLwH+xP0XBD6glGffoQhZM9rsMosWq8CqVcR4ZWK8Js5wviSIKAmz0DqgsC3YgIGdZSmGQwYtq2IBt/743j38xllw/gnZvwIbO5VK/W9a3+AI+m9IUHoPYM6tQhCaPacn3+JIX4FgFdYwMuVojMsj3fAImq6dMgbSKhaBAGQQBT4Vu4CcV+zG2f+k7xmG2MPLBl80xLA572cR/PSKl8zYAw/qoH7AdynmO5bu8P+SeL3Iwh9jAgAYaR4bAon2sp6GRt6GYD/ooD1StGpOQIsjyDw8w54xUCqosDLsI/IuKIihLH3Gn3/VX7N4Gt3lW8MP2WAnQD+mRQ/kDf6gdWzOBSzh4IwcAz7dCMIgTxyEU6FttYro17KhHUW80uVolMtH0Gg0BxM6CcKgIDtg3piGqOu30ZuGt6ClmN4rU0ze4r5GPv66n7J8C8ZfHeF/5Qm+jExdhllfgxL7zxrK55KoeeCMJD02zQiCD1l70acUjXWOQQ6B8A5CvjPiuishgBQdc+AvyiglpMGXnsf6DGoJw77iOxg5IEWQ4/mCP3WSH2vsdeusV9y9/MjBvgXAA8y+MGC0g/K2XxBWGLYpxtBSMTOdcifuCr/n7TBixk4m4CzCXy2UnSaN2agLgq8noHG31gSA3WPAQLEARAwMClMoS7Dbf4OSG418vDu2aPZ0Dd+Nww+N9z6DSFg+EkGPczAwwQ8bCk8dOiI/a/rd8FO860KwjDRL1OIIAwMey/CCaaae5FW9CIwzgJwJhGfYREVvQLA6xmwiBrGv93vptMH3i0Fz2u3CoVWsh7QnTz97CnAnt8Ng89LRt9w+9+auXml3ywA5pnpUQC7QXjEMvxTVXB+Kl+lKwjREAEgCCnAm2DN/aJwhjGYZDaTBJokYALgoiI6veEV8PEOKI84qIsA5fl7mThAm22FDlsMYQe7n5H3c9F7//Z69r1GvrFXj+XG33iMfNMqv/HDjwM0z8BeBs8RqTmlMDf5nOqjtBk65NsRBKENIgAEIUN4E6y9BwprjKVXa6gXEuOFYD6diF4A5hcQ0fMVgbzHDv08A4qoSQi0ioBWb0G7rQVv3rK++qVxc57vqh7Nxr5m4Nl3pe89lmcYzMz7QfQEMz8BoseZsM+C2ae09djEKdV/F0MvCNkhAkAQesijG3EakDsNjjqNlTkVTM8D+HkAnUKEUxh8CoGeq4DxVm/Asme0P4kQdaAvM/gBxr4epOd9NkCZwc8Q6AAzDgB8AKCfg/jnZNRTyJknAefJM6bxZMSuCYKQEiIABKHPeeSVOJ6ssZNZ6edYik9io04i8IkGOJGITgBjFYhXATiOQccB+BWAVxBjBYBxBo0ToQAgz4w8ESyuhSgQUIu/Ize2jgg2at93UyVwGUCZCSWASgAWCHwMwDEwHQHhCDMfVsAhBh0iZZ7Vhp4lY/2CdeXgWT/C0V79PxMEoTP/H2R2ycuto1uIAAAAAElFTkSuQmCC;" parent="rzaHR70I7FCayc-PlcB1-1" vertex="1">
                    <mxGeometry x="-1428" y="2355" width="41" height="41" as="geometry"/>
                </mxCell>
                <mxCell id="kcRQfIb6KLuYzMda1y29-1" value="&lt;b&gt;&lt;font style=&quot;font-size: 24px&quot;&gt;Ubuntu&lt;/font&gt;&lt;/b&gt;" style="text;html=1;align=center;verticalAlign=middle;resizable=0;points=[];autosize=1;strokeColor=none;fillColor=none;fontSize=18;" parent="rzaHR70I7FCayc-PlcB1-1" vertex="1">
                    <mxGeometry x="-1380" y="2360.5" width="96" height="30" as="geometry"/>
                </mxCell>
                <mxCell id="kcRQfIb6KLuYzMda1y29-2" value="" style="group;strokeWidth=3;rounded=1;arcSize=3;spacing=0;container=0;fontColor=#1A1A1A;strokeColor=#7EA6E0;dashed=1;fontSize=18;" parent="rzaHR70I7FCayc-PlcB1-1" vertex="1" connectable="0">
                    <mxGeometry x="-1416" y="2415" width="1647" height="1077" as="geometry"/>
                </mxCell>
            </root>
        </mxGraphModel>
    </diagram>
</mxfile>
